<?xml version="1.0" encoding="utf-8"?>
<!-- Generator: Adobe Illustrator 24.0.1, SVG Export Plug-In . SVG Version: 6.00 Build 0)  -->
<svg version="1.1" id="Capa_1" xmlns="http://www.w3.org/2000/svg" xmlns:xlink="http://www.w3.org/1999/xlink" x="0px" y="0px"
	 viewBox="0 0 50 50" style="enable-background:new 0 0 50 50;" xml:space="preserve">
<style type="text/css">
	.st0{fill:#333333;}
</style>
<g>
	<g>
		<path class="st0" d="M20,50c-4,0-7.2-3.2-7.2-7.2s3.3-7.3,7.2-7.3s7.2,3.2,7.2,7.2S24,50,20,50z"/>
	</g>
	<g>
		<path class="st0" d="M36.8,50c-4,0-7.2-3.2-7.2-7.2s3.2-7.2,7.2-7.2s7.2,3.2,7.2,7.2S40.8,50,36.8,50z"/>
	</g>
	<g>
		<path class="st0" d="M34.9,33.1h-14c-9.2,0-11.3-9.7-12.8-16.8c-0.3-1.3-0.5-2.5-0.8-3.6C6.7,10,6.1,8.9,5.7,8.5
			C5.5,8.2,5.3,8.1,4.3,7.7C3.6,7.5,2.8,7.1,1.9,6.6C0.2,5.7-0.4,3.5,0.5,1.8c1-1.7,3.1-2.3,4.8-1.4c0.5,0.3,1.1,0.5,1.6,0.7
			c3.6,1.5,5.6,3.3,7.3,9.8c0.3,1.3,0.6,2.6,0.9,3.9C16.8,22.5,18,26,21,26h14c1.4,0,2.2-0.1,2.5-0.4c0.5-0.3,1.1-1.5,1.9-2.8
			c0.1-0.2,0.7-1.3,1.2-2.3c0.8-1.5,1.7-3.3,2.3-4.4c0.2-0.3,0.2-0.5,0.1-0.6c-0.1-0.1-0.3-0.3-0.8-0.3H22c-1.9,0-3.5-1.6-3.5-3.5
			s1.6-3.5,3.5-3.5h20c2.9,0,5.5,1.4,6.8,3.7c1.3,2.2,1.4,5.1,0,7.5c-0.5,1-1.5,2.8-2.2,4.3c-0.9,1.8-1.2,2.4-1.4,2.6
			C42.9,30.7,41.2,33.1,34.9,33.1z"/>
	</g>
</g>
</svg>
