<?xml version="1.0" encoding="utf-8"?>
<!-- Generator: Adobe Illustrator 24.0.1, SVG Export Plug-In . SVG Version: 6.00 Build 0)  -->
<svg version="1.1" id="Capa_1" xmlns="http://www.w3.org/2000/svg" xmlns:xlink="http://www.w3.org/1999/xlink" x="0px" y="0px"
	 viewBox="0 0 50 50" style="enable-background:new 0 0 50 50;" xml:space="preserve">
<style type="text/css">
	.st0{fill:#333333;}
</style>
<g>
	<g>
		<path class="st0" d="M20.9,49.2c-3.8,0-7-3.1-7-7s3.1-7,7-7s7,3.1,7,7S24.7,49.2,20.9,49.2z M20.9,40.8c-0.8,0-1.5,0.7-1.5,1.5
			s0.7,1.5,1.5,1.5s1.5-0.7,1.5-1.5C22.4,41.4,21.7,40.8,20.9,40.8z"/>
	</g>
	<g>
		<path class="st0" d="M36.3,49.2c-3.8,0-7-3.1-7-7s3.1-7,7-7s7,3.1,7,7S40.1,49.2,36.3,49.2z M36.3,40.8c-0.8,0-1.5,0.7-1.5,1.5
			s0.7,1.5,1.5,1.5s1.5-0.7,1.5-1.5C37.7,41.4,37.1,40.8,36.3,40.8z"/>
	</g>
	<g>
		<path class="st0" d="M35.3,33.4H20.8c-4,0-7.1-2.1-9.2-6.1c-1.6-3.1-2.4-6.9-3.2-10.6c-0.3-1.3-0.6-2.6-0.9-3.8
			C6.3,8.1,5.6,7.8,3.8,7.1C3.2,6.8,2.3,6.5,1.4,6C0.1,5.2-0.4,3.6,0.3,2.2C1,0.9,2.7,0.4,4,1.1C4.7,1.5,5.3,1.7,5.9,2
			c3.1,1.2,5.3,2.6,7,9.6c0.3,1.3,0.6,2.7,0.9,4c1.6,7.5,3,12.4,7,12.4h14.5c3.2,0,3.2-0.1,5.4-3.7c0.1-0.2,0.7-1.4,1.2-2.4
			c0.8-1.5,1.8-3.4,2.3-4.6c0.2-0.3,0.4-1,0.1-1.5c-0.3-0.4-0.9-0.7-1.6-0.7H19.4c-1.5,0-2.7-1.2-2.7-2.7s1.2-2.7,2.7-2.7h23.3
			c2.7,0,5.1,1.3,6.3,3.4s1.2,4.6,0,6.9c-0.6,1.1-1.5,2.9-2.3,4.5c-0.9,1.8-1.2,2.4-1.4,2.7C42.9,31.3,41.4,33.4,35.3,33.4z"/>
	</g>
</g>
</svg>
