<?xml version="1.0" encoding="utf-8"?>
<!-- Generator: Adobe Illustrator 24.0.1, SVG Export Plug-In . SVG Version: 6.00 Build 0)  -->
<svg version="1.1" id="Capa_1" xmlns="http://www.w3.org/2000/svg" xmlns:xlink="http://www.w3.org/1999/xlink" x="0px" y="0px"
	 viewBox="0 0 50 50" style="enable-background:new 0 0 50 50;" xml:space="preserve">
<g>
	<g>
		<path d="M21,49.5c-4,0-7.2-3.2-7.2-7.2S17.1,35,21,35s7.2,3.2,7.2,7.2S25,49.5,21,49.5z M21,41.4c-0.5,0-0.9,0.4-0.9,0.9
			c0,0.5,0.4,0.9,0.9,0.9s0.9-0.4,0.9-0.9C21.9,41.8,21.5,41.4,21,41.4z"/>
	</g>
	<g>
		<path d="M35.8,49.5c-4,0-7.2-3.2-7.2-7.2s3.2-7.2,7.2-7.2s7.2,3.2,7.2,7.2S39.8,49.5,35.8,49.5z M35.8,41.4
			c-0.5,0-0.9,0.4-0.9,0.9c0,0.5,0.4,0.9,0.9,0.9c0.5,0,0.9-0.4,0.9-0.9C36.7,41.8,36.3,41.4,35.8,41.4z"/>
	</g>
	<g>
		<path d="M34.9,33.6h-14c-9.2,0-11.3-9.7-12.8-16.8c-0.3-1.3-0.5-2.5-0.8-3.6C6.7,10.5,6.1,9.4,5.7,9C5.5,8.7,5.3,8.6,4.3,8.2
			C3.6,8,2.8,7.6,1.9,7.1C0.2,6.2-0.4,4,0.5,2.3C1.5,0.6,3.6,0,5.3,0.9c0.5,0.3,1.1,0.5,1.6,0.7c3.6,1.5,5.6,3.3,7.3,9.8
			c0.3,1.3,0.6,2.6,0.9,3.9c1.7,7.7,2.9,11.2,5.9,11.2h14c1.4,0,2.2-0.1,2.5-0.4c0.5-0.3,1.1-1.5,1.9-2.8c0.1-0.2,0.7-1.3,1.2-2.3
			c0.8-1.5,1.7-3.3,2.3-4.4c0.2-0.3,0.2-0.5,0.1-0.6c-0.1-0.1-0.3-0.3-0.8-0.3H21c-1.9,0-3.5-1.6-3.5-3.5s1.6-3.5,3.5-3.5h21
			c2.9,0,5.5,1.4,6.8,3.7c1.3,2.2,1.4,5.1,0,7.5c-0.5,1-1.5,2.8-2.2,4.3c-0.9,1.8-1.2,2.4-1.4,2.6C42.9,31.2,41.2,33.6,34.9,33.6z"
			/>
	</g>
</g>
</svg>
