<?xml version="1.0" encoding="utf-8"?>
<!-- Generator: Adobe Illustrator 24.0.1, SVG Export Plug-In . SVG Version: 6.00 Build 0)  -->
<svg version="1.1" id="Capa_1" xmlns="http://www.w3.org/2000/svg" xmlns:xlink="http://www.w3.org/1999/xlink" x="0px" y="0px"
	 viewBox="0 0 50 50" style="enable-background:new 0 0 50 50;" xml:space="preserve">
<style type="text/css">
	.st0{fill:#333333;}
</style>
<g>
	<g>
		<path class="st0" d="M25.2,50h-0.3c-0.5,0-12.3-0.1-16.5-4.6c-1.2-1.3-1.7-2.8-1.6-4.4c0-0.6,0.1-1.2,0.1-1.8
			c0.2-3.3,0.4-7.4,4.9-8.5c2.3-0.6,4.3-1.8,5.8-2.8s3.5-0.6,4.5,0.9s0.6,3.5-0.9,4.5c-1.7,1.2-4.4,2.8-7.6,3.6
			c-0.1,0.6-0.2,1.7-0.3,2.7c0,0.5-0.1,1-0.1,1.5c1.2,1.1,6.6,2.4,11.6,2.4h0.3c5,0,10.4-1.3,11.6-2.4c0-0.5-0.1-1.1-0.1-1.5
			c-0.1-1-0.1-2.1-0.3-2.7c-3.2-0.8-5.8-2.5-7.6-3.6c-1.5-1-1.9-3-0.9-4.5s3-1.9,4.5-0.9s3.5,2.2,5.8,2.8c4.5,1.1,4.7,5.2,4.9,8.5
			c0,0.6,0.1,1.1,0.1,1.8c0.1,1.6-0.4,3.1-1.6,4.4C37.4,49.9,25.7,50,25.2,50z M36.7,37L36.7,37L36.7,37z"/>
	</g>
	<g>
		<path class="st0" d="M25,27.7c-6.1,0-11.6-6.6-11.6-13.9C13.4,9.7,13.4,0,25,0s11.6,9.7,11.6,13.9C36.6,21.1,31.1,27.7,25,27.7z
			 M25,6.5c-4,0-5.2,1-5.2,7.4c0,4.4,3.3,7.4,5.2,7.4c1.8,0,5.2-3.1,5.2-7.4C30.2,7.4,29,6.5,25,6.5z"/>
	</g>
</g>
</svg>
