<?xml version="1.0" encoding="utf-8"?>
<!-- Generator: Adobe Illustrator 24.0.1, SVG Export Plug-In . SVG Version: 6.00 Build 0)  -->
<svg version="1.1" id="Capa_1" xmlns="http://www.w3.org/2000/svg" xmlns:xlink="http://www.w3.org/1999/xlink" x="0px" y="0px"
	 viewBox="0 0 50 50" style="enable-background:new 0 0 50 50;" xml:space="preserve">
<style type="text/css">
	.st0{fill:#333333;}
</style>
<g>
	<g>
		<path class="st0" d="M25.2,50h-0.3c-0.1,0-12.3-0.1-16.4-4.4c-1.1-1.2-1.5-2.5-1.4-3.9c0.1-0.7,0.1-1.2,0.1-1.8
			c0.2-3.4,0.4-7.1,4.4-8.1c2.5-0.6,4.6-1.9,6.2-3c1.2-0.8,2.7-0.5,3.5,0.7c0.8,1.2,0.5,2.7-0.7,3.5c-1.9,1.2-4.6,2.9-7.8,3.7
			c-0.2,0-0.2,0.1-0.2,0.1c-0.3,0.4-0.4,2.1-0.5,3.4c0,0.6-0.1,1.2-0.1,1.9c0.2,0.3,1.3,1.2,4.7,2.1c3,0.7,6.2,1,8.1,1h0.3
			c1.9,0,5.1-0.3,8.1-1c3.5-0.8,4.6-1.7,4.7-2.1c-0.1-0.7-0.1-1.3-0.1-1.9c-0.1-1.2-0.2-3.1-0.5-3.5l0,0c0,0-0.1,0-0.2-0.1
			c-3.2-0.8-5.9-2.4-7.8-3.7c-1.2-0.8-1.4-2.3-0.7-3.5c0.8-1.2,2.3-1.4,3.5-0.7c1.6,1.1,3.7,2.4,6.2,3c4,1.1,4.2,4.7,4.4,8.1
			c0,0.6,0.1,1.2,0.1,1.8c0.1,1.4-0.4,2.8-1.4,3.9C37.5,49.9,25.3,50,25.2,50z"/>
	</g>
	<g>
		<path class="st0" d="M25,27.1c-5.3,0-11.1-5.8-11.1-13.6C13.8,9.1,13.8,0,25,0s11.1,9.1,11.1,13.6C36.1,21.3,30.3,27.1,25,27.1z
			 M25,5.1c-5.2,0-6.2,2.2-6.2,8.5c0,4.8,3.7,8.5,6.2,8.5s6.2-3.7,6.2-8.5C31.1,7.3,30.2,5.1,25,5.1z"/>
	</g>
</g>
</svg>
