<?xml version="1.0" encoding="utf-8"?>
<!-- Generator: Adobe Illustrator 24.0.1, SVG Export Plug-In . SVG Version: 6.00 Build 0)  -->
<svg version="1.1" id="Capa_1" xmlns="http://www.w3.org/2000/svg" xmlns:xlink="http://www.w3.org/1999/xlink" x="0px" y="0px"
	 viewBox="0 0 54 50" style="enable-background:new 0 0 54 50;" xml:space="preserve">
<style type="text/css">
	.st0{fill:#333333;}
	.st1{fill:none;stroke:#333333;stroke-width:2;stroke-linecap:round;stroke-miterlimit:10;}
	.st2{fill:none;stroke:#333333;stroke-width:2.5;stroke-linecap:round;stroke-linejoin:round;}
	.st3{fill:none;stroke:#333333;stroke-width:2.5;stroke-linecap:round;stroke-miterlimit:10;}
	.st4{fill:none;stroke:#333333;stroke-width:2.5;stroke-linecap:round;stroke-linejoin:round;stroke-miterlimit:10;}
</style>
<g>
	<path class="st0" d="M23.9,35h-5.7c-0.6,0-1-0.4-1-1s0.4-1,1-1h5.7c0.6,0,1,0.4,1,1S24.5,35,23.9,35z"/>
</g>
<g>
	<g>
		<path class="st0" d="M28.4,50.1c-8.3,0-16-4.1-20.7-10.9c-0.4-0.6-0.2-1.3,0.3-1.7c0.6-0.4,1.3-0.2,1.7,0.3
			c4.2,6.1,11.2,9.8,18.6,9.8C40.9,47.6,51,37.4,51,25S40.9,2.5,28.4,2.5c-11.5,0-21.1,8.6-22.4,20c-0.1,0.7-0.7,1.2-1.4,1.1
			c-0.7-0.1-1.2-0.7-1.1-1.4C5,9.5,15.7,0,28.4,0c13.8,0,25,11.2,25,25C53.5,38.8,42.3,50.1,28.4,50.1z"/>
	</g>
	<g>
		<g>
			<path class="st0" d="M10.2,19.3L10.2,19.3C9.7,18.8,9,18.6,8.4,19l-2.3,1.6c-0.6,0.4-1.4,0.3-1.8-0.3l-1.6-2.5
				c-0.4-0.6-1.1-0.7-1.7-0.4l0,0c-0.6,0.4-0.7,1.1-0.4,1.7l3,4.8c0.4,0.6,1.2,0.8,1.8,0.3l4.4-3.2C10.5,20.7,10.6,19.9,10.2,19.3z"
				/>
		</g>
	</g>
</g>
<g>
	<path class="st0" d="M28.4,31.7H18.3c-0.7,0-1.3-0.6-1.3-1.3s0.6-1.3,1.3-1.3h10.2c0.7,0,1.3,0.6,1.3,1.3S29.1,31.7,28.4,31.7z"/>
</g>
<g>
	<g>
		<path class="st0" d="M42.7,39.7H14.2c-0.7,0-1.3-0.6-1.3-1.3V15.7c0-0.3,0.1-0.6,0.3-0.8l3.5-4.1c0.2-0.3,0.6-0.4,0.9-0.4h21.5
			c0.4,0,0.7,0.2,0.9,0.4l3.5,4.1c0.2,0.2,0.3,0.5,0.3,0.8v22.7C44,39.1,43.4,39.7,42.7,39.7z M15.4,37.2h26v-21l-2.8-3.3H18.3
			l-2.8,3.3V37.2z"/>
	</g>
	<g>
		<path class="st0" d="M31.6,21h-6.4c-0.7,0-1.3-0.6-1.3-1.3v-4.1c0-0.7,0.6-1.3,1.3-1.3h6.4c0.7,0,1.3,0.6,1.3,1.3v4.1
			C32.9,20.5,32.3,21,31.6,21z M26.5,18.5h3.9V17h-3.9V18.5z"/>
	</g>
	<g>
		<path class="st0" d="M31.6,17h-6.4c-0.4,0-0.8-0.2-1-0.5c-0.2-0.3-0.3-0.8-0.2-1.1l1.5-4.1c0.2-0.5,0.6-0.8,1.2-0.8h3.5
			c0.5,0,1,0.3,1.2,0.8l1.5,4.1c0.1,0.4,0.1,0.8-0.2,1.1C32.4,16.8,32.1,17,31.6,17z M27,14.5h2.9l-0.6-1.6h-1.7L27,14.5z"/>
	</g>
	<g>
		<path class="st0" d="M41.7,17H15.1c-0.7,0-1.3-0.6-1.3-1.3s0.6-1.3,1.3-1.3h26.6c0.7,0,1.3,0.6,1.3,1.3S42.4,17,41.7,17z"/>
	</g>
</g>
<line class="st1" x1="140.1" y1="34" x2="145.8" y2="34"/>
<g>
	<g>
		<path class="st2" d="M126.7,22.3c1.3-11.9,11.4-21.1,23.6-21.1c13.1,0,23.8,10.7,23.8,23.8s-10.7,23.8-23.8,23.8
			c-8.1,0-15.3-4.1-19.6-10.3"/>
		<g>
			<polygon class="st0" points="138.7,16.2 137.2,14.2 127.2,21.4 120.7,10.9 118.6,12.3 126.5,25 			"/>
		</g>
	</g>
</g>
<line class="st3" x1="140.1" y1="30.4" x2="150.3" y2="30.4"/>
<g>
	<polygon class="st4" points="161.1,11.6 139.5,11.6 136,15.7 136,38.4 164.5,38.4 164.5,15.7 	"/>
	<rect x="147.1" y="15.7" class="st4" width="6.4" height="4.1"/>
	<polygon class="st4" points="153.5,15.7 147.1,15.7 148.5,11.6 152,11.6 	"/>
	<line class="st4" x1="164.5" y1="15.7" x2="136" y2="15.7"/>
</g>
</svg>
