<?xml version="1.0" encoding="utf-8"?>
<!-- Generator: Adobe Illustrator 24.0.1, SVG Export Plug-In . SVG Version: 6.00 Build 0)  -->
<svg version="1.1" id="Capa_1" xmlns="http://www.w3.org/2000/svg" xmlns:xlink="http://www.w3.org/1999/xlink" x="0px" y="0px"
	 viewBox="0 0 80.2 50" style="enable-background:new 0 0 80.2 50;" xml:space="preserve">
<style type="text/css">
	.st0{fill:#004C98;}
	.st1{fill:#FFFFFF;}
</style>
<path class="st0" d="M80.2,47.3c0,1.5-1.2,2.7-2.7,2.7H2.7C1.2,50,0,48.8,0,47.3V2.7C0,1.2,1.2,0,2.7,0h74.9c1.5,0,2.7,1.2,2.7,2.7
	V47.3z"/>
<g>
	<path class="st1" d="M42,27.3c4.5,0,8.6-3.7,8.6-8.2c0-4.9-4.1-8.3-8.6-8.3h-3.9c-4.6,0-8.3,3.4-8.3,8.3c0,4.5,3.8,8.2,8.3,8.2H42z
		"/>
	<path class="st0" d="M39.9,23.5v-9c1.8,0.7,3.1,2.4,3.1,4.5C42.9,21,41.7,22.8,39.9,23.5 M33.4,19c0-2,1.3-3.8,3.1-4.5v9
		C34.6,22.8,33.4,21,33.4,19 M38.2,11.4c-4.2,0-7.6,3.4-7.6,7.6c0,4.2,3.4,7.6,7.6,7.6c4.2,0,7.6-3.4,7.6-7.6
		C45.7,14.8,42.3,11.4,38.2,11.4"/>
	<g>
		<path class="st1" d="M21.3,32.9c0,0.7,0.5,0.8,0.9,0.8c1.9,0,2.5-1.4,2.5-2.7c0-1.6-1.1-2.8-2.7-2.8c-0.4,0-0.5,0-0.7,0V32.9z
			 M20.5,28.8c0-0.8-0.4-0.7-0.8-0.7v-0.2c0.3,0,0.7,0,1,0c0.4,0,0.9,0,1.5,0c2.3,0,3.5,1.5,3.5,3.1c0,0.9-0.5,3-3.6,3
			c-0.4,0-0.9,0-1.3,0c-0.4,0-0.8,0-1.2,0v-0.2c0.5-0.1,0.8-0.1,0.8-0.7V28.8z"/>
		<path class="st1" d="M27,28.6c-0.2,0-0.4-0.2-0.4-0.4c0-0.2,0.2-0.4,0.4-0.4c0.2,0,0.4,0.2,0.4,0.4S27.2,28.6,27,28.6 M26,33.7
			h0.2c0.2,0,0.4,0,0.4-0.3v-2.4c0-0.4-0.1-0.4-0.5-0.6v-0.1c0.4-0.1,0.9-0.3,0.9-0.3c0.1,0,0.1,0,0.2,0c0,0,0.1,0.1,0.1,0.1v3.4
			c0,0.3,0.2,0.3,0.4,0.3h0.1v0.2c-0.3,0-0.6,0-0.9,0c-0.3,0-0.6,0-1,0V33.7z"/>
		<path class="st1" d="M28.7,31.1c0-0.3-0.1-0.4-0.5-0.6v-0.2c0.4-0.1,0.7-0.2,1.2-0.4c0,0,0.1,0,0.1,0.1v0.6
			c0.5-0.4,0.9-0.7,1.5-0.7c0.7,0,1,0.5,1,1.2v2.3c0,0.3,0.2,0.3,0.4,0.3h0.2v0.2c-0.3,0-0.6,0-0.9,0c-0.3,0-0.6,0-0.9,0v-0.2h0.2
			c0.2,0,0.4,0,0.4-0.3v-2.3c0-0.5-0.3-0.7-0.8-0.7c-0.3,0-0.7,0.2-1,0.4v2.6c0,0.3,0.2,0.3,0.4,0.3H30v0.2c-0.3,0-0.6,0-0.9,0
			c-0.3,0-0.6,0-0.9,0v-0.2h0.2c0.2,0,0.4,0,0.4-0.3V31.1z"/>
		<path class="st1" d="M34.8,31.3c0.2,0,0.2-0.1,0.2-0.2c0-0.4-0.3-0.8-0.8-0.8c-0.5,0-0.9,0.4-1,1H34.8z M33.2,31.5
			c0,0.1,0,0.2,0,0.5c0.1,0.8,0.6,1.5,1.3,1.5c0.5,0,0.9-0.3,1.2-0.6l0.1,0.1c-0.4,0.5-0.9,1-1.6,1c-1.4,0-1.7-1.3-1.7-1.9
			c0-1.7,1.2-2.2,1.8-2.2c0.7,0,1.5,0.4,1.5,1.4c0,0.1,0,0.1,0,0.2l-0.1,0.1H33.2z"/>
		<path class="st1" d="M36,33.7h0.2c0.2,0,0.4,0,0.4-0.3V31c0-0.3-0.3-0.3-0.5-0.4v-0.1c0.6-0.3,1-0.5,1.1-0.5c0.1,0,0.1,0,0.1,0.1
			v0.8h0c0.2-0.3,0.6-0.9,1.1-0.9c0.2,0,0.5,0.1,0.5,0.5c0,0.2-0.2,0.4-0.4,0.4c-0.3,0-0.3-0.2-0.6-0.2c-0.1,0-0.6,0.2-0.6,0.7v2.1
			c0,0.3,0.2,0.3,0.4,0.3h0.5v0.2c-0.5,0-0.8,0-1.2,0c-0.4,0-0.7,0-1,0V33.7z"/>
		<path class="st1" d="M39.3,32.7c0.1,0.6,0.5,1.1,1.1,1.1c0.5,0,0.7-0.3,0.7-0.6c0-1-1.9-0.7-1.9-2.1c0-0.5,0.4-1.1,1.4-1.1
			c0.3,0,0.7,0.1,1,0.3l0.1,0.9h-0.2c-0.1-0.5-0.4-0.9-1-0.9c-0.4,0-0.7,0.2-0.7,0.6c0,1,2,0.7,2,2.1c0,0.6-0.5,1.2-1.5,1.2
			c-0.4,0-0.8-0.1-1.1-0.3l-0.1-1L39.3,32.7z"/>
		<path class="st1" d="M49.7,29.4h-0.2c-0.2-1-0.9-1.4-1.9-1.4c-1,0-2.5,0.7-2.5,2.8c0,1.8,1.3,3,2.6,3c0.9,0,1.6-0.6,1.8-1.5
			l0.2,0.1l-0.2,1.3c-0.4,0.2-1.4,0.5-1.9,0.5c-2,0-3.3-1.3-3.3-3.3c0-1.8,1.6-3.1,3.3-3.1c0.7,0,1.4,0.2,2.1,0.5L49.7,29.4z"/>
		<path class="st1" d="M50,33.7h0.2c0.2,0,0.4,0,0.4-0.3v-4.9c0-0.6-0.1-0.6-0.5-0.7v-0.1c0.4-0.1,0.7-0.3,0.9-0.4
			c0.1-0.1,0.2-0.1,0.2-0.1c0.1,0,0.1,0.1,0.1,0.1v6c0,0.3,0.2,0.3,0.4,0.3h0.1v0.2c-0.3,0-0.6,0-0.9,0c-0.3,0-0.6,0-1,0V33.7z"/>
		<path class="st1" d="M55.6,33.5c0,0.2,0.1,0.2,0.2,0.2c0.1,0,0.2,0,0.4,0v0.2c-0.4,0-1.1,0.2-1.3,0.3l0,0v-0.7
			c-0.5,0.4-0.9,0.7-1.5,0.7c-0.5,0-1-0.3-1-1v-2.2c0-0.2,0-0.4-0.5-0.5v-0.2c0.3,0,1-0.1,1.1-0.1c0.1,0,0.1,0.1,0.1,0.3v2.3
			c0,0.3,0,1,0.8,1c0.3,0,0.7-0.2,1.1-0.5v-2.4c0-0.2-0.4-0.3-0.7-0.4v-0.2c0.8-0.1,1.3-0.1,1.4-0.1c0.1,0,0.1,0.1,0.1,0.2V33.5z"/>
		<path class="st1" d="M57.4,33c0,0.3,0.3,0.9,0.9,0.9c0.9,0,1.3-0.9,1.3-1.7c0-0.9-0.7-1.7-1.4-1.7c-0.3,0-0.6,0.2-0.8,0.4V33z
			 M57.4,30.6c0.4-0.3,0.8-0.6,1.3-0.6c1,0,1.6,0.9,1.6,1.8c0,1.1-0.8,2.3-2.1,2.3c-0.6,0-1-0.2-1.2-0.3L56.8,34l-0.2-0.1
			c0.1-0.5,0.1-1,0.1-1.6v-3.8c0-0.6-0.1-0.6-0.5-0.7v-0.1c0.4-0.1,0.7-0.3,0.9-0.4c0.1-0.1,0.2-0.1,0.2-0.1c0.1,0,0.1,0.1,0.1,0.1
			V30.6z"/>
		<path class="st1" d="M19.7,39L19.7,39c0.2,0,0.4,0,0.4-0.3v-2.5c0-0.2-0.2-0.3-0.4-0.3h-0.1v-0.1c0.2,0,0.5,0,0.7,0
			c0.2,0,0.5,0,0.7,0V36h-0.1c-0.2,0-0.4,0-0.4,0.3v2.5c0,0.2,0.2,0.3,0.4,0.3h0.1v0.1c-0.2,0-0.5,0-0.8,0c-0.2,0-0.5,0-0.7,0V39z"
			/>
		<path class="st1" d="M21.1,39.2v-0.1h0c-0.2,0-0.4,0-0.4-0.3v-2.5c0-0.3,0.2-0.3,0.4-0.3h0v-0.1c-0.2,0-0.5,0-0.7,0
			c-0.2,0-0.5,0-0.7,0V36h0c0.2,0,0.4,0,0.4,0.3v2.5c0,0.3-0.2,0.3-0.4,0.3h0v0.1c0.2,0,0.5,0,0.7,0C20.6,39.1,20.9,39.2,21.1,39.2
			 M21.1,39.2c-0.2,0-0.5,0-0.8,0c-0.2,0-0.5,0-0.7,0h0v0V39v0h0h0.1c0.2,0,0.3,0,0.3-0.3v-2.5c0-0.2-0.2-0.2-0.3-0.3h-0.1v0v-0.2h0
			c0.2,0,0.5,0,0.7,0c0.2,0,0.5,0,0.7,0h0v0V36h0h-0.1c-0.2,0-0.3,0-0.3,0.3v2.5c0,0.2,0.2,0.2,0.3,0.3h0.1v0L21.1,39.2L21.1,39.2z"
			/>
		<path class="st1" d="M24.4,38.2L24.4,38.2l0-1.8c0-0.4-0.3-0.4-0.4-0.4h-0.1v-0.1c0.2,0,0.4,0,0.7,0c0.2,0,0.4,0,0.6,0V36h-0.1
			c-0.2,0-0.4,0-0.4,0.6v2.2c0,0.2,0,0.3,0,0.5h-0.2L22,36.5v2c0,0.4,0.1,0.6,0.4,0.6h0.1v0.1c-0.2,0-0.4,0-0.6,0
			c-0.2,0-0.4,0-0.6,0V39h0.1c0.3,0,0.4-0.2,0.4-0.6v-2c0-0.3-0.2-0.4-0.4-0.4h-0.1v-0.1c0.2,0,0.4,0,0.5,0c0.1,0,0.3,0,0.4,0
			L24.4,38.2z"/>
		<path class="st1" d="M24.4,38.2L24.4,38.2L24.4,38.2L24.4,38.2z M24.4,38.2L24.4,38.2L24.4,38.2z M24.5,39.2h0.2
			c0-0.1,0-0.3,0-0.5v-2.2c0-0.6,0.2-0.6,0.4-0.6h0.1v-0.1c-0.2,0-0.4,0-0.6,0c-0.2,0-0.4,0-0.6,0V36H24c0.1,0,0.4,0.1,0.4,0.5
			l0,1.8l0,0l0,0l-2.1-2.4c-0.1,0-0.3,0-0.4,0c-0.2,0-0.4,0-0.5,0l0,0.1h0c0.2,0,0.5,0.2,0.5,0.4v2c0,0.4-0.1,0.6-0.4,0.6l0,0v0.1
			c0.2,0,0.4,0,0.6,0c0.2,0,0.4,0,0.6,0v-0.1h-0.1c-0.4,0-0.5-0.2-0.5-0.6v-2L24.5,39.2z M24.7,39.3l-0.2,0l-2.4-2.7v1.9
			c0,0.4,0.1,0.5,0.4,0.5h0.1v0v0.2h0c-0.2,0-0.4,0-0.6,0c-0.2,0-0.4,0-0.6,0h0v0V39h0h0.1c0.3,0,0.4-0.2,0.4-0.6v-2
			c0-0.3-0.2-0.4-0.4-0.4h-0.1v0v-0.2h0c0.2,0,0.4,0,0.5,0c0.1,0,0.3,0,0.4,0l2.1,2.4v-1.7c0-0.4-0.3-0.4-0.4-0.4h-0.1v0v-0.2h0
			c0.2,0,0.4,0,0.7,0c0.2,0,0.4,0,0.6,0h0v0V36h0h-0.1c-0.2,0-0.4,0-0.4,0.6v2.2C24.7,38.9,24.7,39.1,24.7,39.3L24.7,39.3L24.7,39.3
			z"/>
		<path class="st1" d="M25.8,36.1c-0.4,0-0.4,0.1-0.4,0.4h-0.1c0-0.1,0-0.3,0.1-0.4c0-0.1,0-0.3,0-0.4h0.1c0,0.1,0.2,0.1,0.3,0.1
			h2.5c0.1,0,0.2,0,0.3-0.1l0.1,0c0,0.1,0,0.3-0.1,0.4c0,0.1,0,0.3,0,0.4l-0.1,0.1c0-0.2,0-0.5-0.4-0.5h-0.8v2.5
			c0,0.4,0.2,0.4,0.4,0.4h0.1v0.1c-0.2,0-0.5,0-0.8,0c-0.3,0-0.6,0-0.8,0V39h0.1c0.3,0,0.4,0,0.4-0.4v-2.5H25.8z"/>
		<path class="st1" d="M27.7,39.2c-0.2,0-0.5,0-0.8,0c-0.3,0-0.6,0-0.8,0h0v0V39h0h0.1c0.3,0,0.4,0,0.4-0.4v-2.5h-0.8v0v0h0.8v2.6
			c0,0.4-0.2,0.4-0.4,0.4h-0.1v0.1c0.2,0,0.5,0,0.8,0C27.2,39.1,27.5,39.2,27.7,39.2l0-0.1h-0.1c-0.2,0-0.4-0.1-0.4-0.4v-2.6H28
			c0.3,0,0.4,0.3,0.4,0.4l0.1,0c0-0.1,0-0.2,0-0.4c0-0.1,0-0.2,0-0.4l-0.1,0c0,0.1-0.2,0.1-0.3,0.1h-2.5h0c-0.1,0-0.2,0-0.3-0.1
			h-0.1c0,0.1,0,0.3,0,0.4c0,0.1,0,0.3-0.1,0.4h0.1c0.1-0.3,0.1-0.4,0.5-0.4v0v0c-0.4,0-0.3,0.1-0.4,0.4l0,0h0h-0.2l0,0
			c0-0.1,0-0.3,0.1-0.4c0-0.1,0-0.3,0-0.4v0h0h0.1l0,0c0,0.1,0.1,0.1,0.2,0.1h0h2.5c0.1,0,0.2,0,0.2-0.1l0,0l0,0l0.1,0l0,0
			c0,0.1,0,0.3-0.1,0.4c0,0.1,0,0.3,0,0.4v0l0,0l-0.2,0.1l0,0c0-0.2,0-0.4-0.3-0.4h-0.8v2.5c0,0.4,0.1,0.4,0.4,0.4h0.1v0L27.7,39.2
			L27.7,39.2z"/>
		<path class="st1" d="M28.7,39L28.7,39c0.2,0,0.4,0,0.4-0.3v-2.5c0-0.2-0.2-0.3-0.4-0.3h-0.1v-0.1c0.3,0,0.8,0,1.2,0
			c0.4,0,0.9,0,1.2,0c0,0.2,0,0.5,0,0.7l-0.1,0c0-0.3-0.1-0.6-0.6-0.6h-0.7v1.2h0.6c0.3,0,0.3-0.2,0.4-0.4h0.1c0,0.2,0,0.4,0,0.6
			c0,0.2,0,0.4,0,0.5l-0.1,0c0-0.3,0-0.5-0.4-0.5h-0.6v1.1c0,0.3,0.3,0.3,0.6,0.3c0.6,0,0.8,0,1-0.6l0.1,0c-0.1,0.3-0.1,0.5-0.2,0.8
			c-0.3,0-0.9,0-1.3,0c-0.4,0-1,0-1.3,0V39z"/>
		<path class="st1" d="M31.2,39.2c0-0.2,0.1-0.5,0.2-0.7l-0.1,0c-0.1,0.5-0.4,0.6-1,0.6c-0.3,0-0.6,0-0.6-0.3v-1.1h0.6
			c0.3,0,0.4,0.2,0.4,0.5l0.1,0c0-0.2,0-0.4,0-0.5c0-0.2,0-0.4,0-0.5h-0.1c0,0.2-0.1,0.4-0.4,0.4h-0.6V36h0.7c0.5,0,0.6,0.3,0.6,0.6
			l0.1,0c0-0.1,0-0.3,0-0.5c0-0.1,0-0.2,0-0.2c-0.3,0-0.8,0-1.2,0c-0.4,0-0.9,0-1.2,0V36h0c0.2,0,0.4,0,0.4,0.3v2.5
			c0,0.3-0.2,0.3-0.4,0.3h0v0.1c0.3,0,0.8,0,1.2,0C30.4,39.1,30.9,39.2,31.2,39.2 M31.3,39.2c-0.3,0-0.9,0-1.3,0c-0.4,0-1,0-1.3,0h0
			v0V39v0h0h0.1c0.2,0,0.3,0,0.3-0.3v-2.5c0-0.2-0.2-0.2-0.3-0.3h-0.1v0v-0.2h0c0.3,0,0.8,0,1.2,0c0.4,0,0.9,0,1.2,0h0v0
			c0,0.1,0,0.2,0,0.2c0,0.2,0,0.3,0,0.5v0l0,0l-0.2,0l0,0c0-0.3-0.1-0.5-0.6-0.5h-0.6v1.2h0.5c0.3,0,0.3-0.1,0.4-0.4l0,0h0h0.2l0,0
			c0,0.2,0,0.4,0,0.6c0,0.2,0,0.4,0,0.5l0,0l0,0l-0.2,0l0,0c0-0.3,0-0.4-0.4-0.5h-0.6v1.1c0,0.3,0.3,0.3,0.6,0.3
			c0.6,0,0.8,0,0.9-0.6l0,0l0,0l0.2,0l0,0C31.4,38.7,31.3,38.9,31.3,39.2L31.3,39.2L31.3,39.2z"/>
		<path class="st1" d="M32.7,37.5h0.2c0.5,0,0.7-0.2,0.7-0.7c0-0.4-0.3-0.7-0.7-0.7c-0.1,0-0.2,0-0.3,0V37.5z M32.1,36.4
			c0-0.3-0.2-0.4-0.3-0.4h-0.1v-0.1c0.2,0,0.4,0,0.7,0c0.3,0,0.5,0,0.8,0c0.6,0,1.1,0.2,1.1,0.8c0,0.4-0.3,0.7-0.7,0.8l0.8,1.2
			c0.1,0.2,0.2,0.3,0.5,0.3v0.1c-0.2,0-0.3,0-0.5,0c-0.1,0-0.3,0-0.4,0c-0.4-0.5-0.7-1-1-1.5h-0.3v1c0,0.4,0.2,0.4,0.4,0.4h0.1v0.1
			c-0.3,0-0.5,0-0.8,0c-0.2,0-0.5,0-0.7,0V39h0.1c0.2,0,0.3-0.1,0.3-0.3V36.4z"/>
		<path class="st1" d="M32.9,37.4c0.5,0,0.7-0.2,0.7-0.7c0-0.4-0.3-0.7-0.7-0.7c-0.1,0-0.2,0-0.3,0v1.4H32.9z M32.7,37.5L32.7,37.5
			l0-1.5l0,0c0.1,0,0.1,0,0.3,0c0.4,0,0.7,0.3,0.7,0.7c0,0.6-0.3,0.8-0.8,0.8H32.7z M32.7,37.6H33l0,0c0.3,0.5,0.6,1.1,1,1.5
			c0.1,0,0.3,0,0.4,0c0.2,0,0.3,0,0.4,0V39c-0.2,0-0.3-0.1-0.5-0.3l-0.8-1.2l0,0c0.4-0.1,0.6-0.4,0.6-0.8c0-0.7-0.5-0.8-1.1-0.8
			c-0.3,0-0.5,0-0.8,0c-0.3,0-0.6,0-0.7,0V36h0.1c0.1,0,0.4,0,0.4,0.4v2.4c0,0.2-0.2,0.3-0.4,0.3h-0.1v0.1c0.2,0,0.4,0,0.7,0
			c0.3,0,0.5,0,0.8,0v-0.1h-0.1c-0.2,0-0.4,0-0.4-0.4L32.7,37.6L32.7,37.6z M34.9,39.2c-0.2,0-0.3,0-0.5,0c-0.1,0-0.3,0-0.5,0
			c-0.4-0.5-0.7-1-1-1.5h-0.3v1c0,0.4,0.1,0.4,0.4,0.4h0.1v0v0.2h0c-0.3,0-0.5,0-0.8,0c-0.2,0-0.5,0-0.7,0h0v0V39h0h0.1
			c0.2,0,0.3-0.1,0.3-0.2v-2.4c0-0.3-0.2-0.3-0.3-0.3h-0.1v0v-0.2h0c0.2,0,0.4,0,0.7,0c0.3,0,0.5,0,0.8,0c0.6,0,1.2,0.2,1.2,0.9
			c0,0.4-0.3,0.7-0.7,0.8l0.8,1.2c0.1,0.2,0.2,0.2,0.4,0.3l0,0v0L34.9,39.2L34.9,39.2z"/>
		<path class="st1" d="M38.1,38.2L38.1,38.2l0-1.8c0-0.4-0.3-0.4-0.4-0.4h-0.1v-0.1c0.2,0,0.4,0,0.7,0c0.2,0,0.4,0,0.6,0V36h-0.1
			c-0.2,0-0.4,0-0.4,0.6v2.2c0,0.2,0,0.3,0,0.5h-0.2l-2.4-2.7v2c0,0.4,0.1,0.6,0.4,0.6h0.1v0.1c-0.2,0-0.4,0-0.6,0
			c-0.2,0-0.4,0-0.6,0V39h0.1c0.3,0,0.4-0.2,0.4-0.6v-2c0-0.3-0.2-0.4-0.4-0.4H35v-0.1c0.2,0,0.4,0,0.5,0c0.1,0,0.3,0,0.4,0
			L38.1,38.2z"/>
		<path class="st1" d="M38.1,38.2L38.1,38.2L38.1,38.2L38.1,38.2z M38.1,38.2L38.1,38.2L38.1,38.2z M38.2,39.2h0.2
			c0-0.1,0-0.3,0-0.5v-2.2c0-0.6,0.2-0.6,0.4-0.6h0v-0.1c-0.2,0-0.4,0-0.6,0c-0.2,0-0.4,0-0.6,0V36h0.1c0.1,0,0.4,0.1,0.4,0.5l0,1.8
			l0,0l0,0L36,35.9c-0.1,0-0.3,0-0.4,0c-0.2,0-0.4,0-0.5,0V36h0c0.2,0,0.5,0.2,0.5,0.4v2c0,0.4-0.1,0.6-0.4,0.6l0,0v0.1
			c0.2,0,0.4,0,0.6,0c0.2,0,0.4,0,0.6,0v-0.1h-0.1c-0.4,0-0.5-0.2-0.5-0.6v-2L38.2,39.2z M38.4,39.3l-0.2,0l-2.4-2.7v1.9
			c0,0.4,0.1,0.5,0.4,0.5h0.1v0v0.2h0c-0.2,0-0.4,0-0.6,0c-0.2,0-0.4,0-0.6,0h0v0V39h0h0.1c0.3,0,0.4-0.2,0.4-0.6v-2
			c0-0.3-0.2-0.4-0.4-0.4H35v0v-0.2h0c0.2,0,0.4,0,0.5,0c0.1,0,0.3,0,0.4,0l2.1,2.4v-1.8c0-0.4-0.3-0.4-0.4-0.4h-0.1v0v-0.2h0
			c0.2,0,0.4,0,0.7,0c0.2,0,0.4,0,0.6,0h0v0V36h0h-0.1c-0.2,0-0.4,0-0.4,0.6v2.2C38.4,38.9,38.4,39.1,38.4,39.3L38.4,39.3L38.4,39.3
			z"/>
		<path class="st1" d="M40.3,36.4L40.3,36.4l-0.5,1.3h0.9L40.3,36.4z M39.6,38.5c0,0.2-0.1,0.3-0.1,0.4c0,0.1,0.2,0.2,0.4,0.2h0.1
			v0.1c-0.2,0-0.4,0-0.6,0c-0.2,0-0.3,0-0.5,0V39h0c0.2,0,0.3-0.1,0.4-0.3l0.8-2.2c0.1-0.2,0.1-0.4,0.2-0.6c0.2-0.1,0.3-0.1,0.4-0.2
			c0,0,0,0,0,0c0,0,0,0,0,0c0,0,0,0.1,0,0.1l0.9,2.5c0.1,0.2,0.1,0.3,0.2,0.5C41.9,39,42,39,42.1,39h0v0.1c-0.2,0-0.4,0-0.7,0
			c-0.2,0-0.5,0-0.7,0V39h0.1c0.1,0,0.3,0,0.3-0.1c0-0.1,0-0.2-0.1-0.3L40.9,38h-1.1L39.6,38.5z"/>
		<path class="st1" d="M40.3,36.4L40.3,36.4L40.3,36.4z M39.9,37.7h0.8l-0.4-1.3L39.9,37.7z M39.8,37.8l0.5-1.4h0h0v0l0,0l0,0v0h0
			l0.5,1.4H39.8z M40.8,39.2c0.2,0,0.5,0,0.7,0c0.2,0,0.4,0,0.6,0v-0.1h0c-0.2,0-0.3-0.1-0.3-0.2c-0.1-0.1-0.1-0.3-0.2-0.5l-0.9-2.5
			c0,0,0-0.1,0-0.1c0,0,0,0,0,0h0c0,0,0,0,0,0c-0.1,0.1-0.3,0.2-0.4,0.2c0,0.2-0.1,0.4-0.2,0.6l-0.8,2.2c-0.1,0.2-0.2,0.3-0.4,0.3h0
			v0.1c0.2,0,0.3,0,0.5,0c0.2,0,0.4,0,0.6,0v-0.1h0c-0.2,0-0.4,0-0.4-0.2c0-0.1,0.1-0.2,0.1-0.4l0,0l0,0l0.2-0.5h1.1l0.2,0.6
			c0.1,0.2,0.1,0.3,0.1,0.4c0,0.1-0.2,0.2-0.3,0.2h0V39.2z M42.2,39.2c-0.2,0-0.4,0-0.7,0c-0.2,0-0.5,0-0.7,0l0,0v0V39h0h0.1
			c0.1,0,0.3,0,0.3-0.1c0-0.1,0-0.2-0.1-0.3L40.8,38h-1l-0.1,0.5c0,0.2-0.1,0.3-0.1,0.4c0,0.1,0.2,0.1,0.3,0.1H40v0v0.2l0,0
			c-0.2,0-0.4,0-0.6,0c-0.2,0-0.3,0-0.5,0l0,0v0V39h0h0c0.2,0,0.3-0.1,0.4-0.3l0.8-2.2c0.1-0.2,0.1-0.4,0.2-0.6
			c0.1-0.1,0.3-0.1,0.4-0.2c0,0,0,0,0,0c0,0,0,0,0.1,0c0,0,0,0.1,0,0.1l0.9,2.5c0.1,0.2,0.1,0.3,0.2,0.5C41.9,39,42,39,42.1,39h0v0
			L42.2,39.2L42.2,39.2z"/>
		<path class="st1" d="M42.4,36.1c-0.4,0-0.4,0.1-0.4,0.4h-0.1c0-0.1,0-0.3,0.1-0.4c0-0.1,0-0.3,0-0.4H42c0,0.1,0.2,0.1,0.3,0.1h2.5
			c0.1,0,0.2,0,0.3-0.1l0.1,0c0,0.1,0,0.3-0.1,0.4c0,0.1,0,0.3,0,0.4l-0.1,0.1c0-0.2,0-0.5-0.4-0.5h-0.8v2.5c0,0.4,0.2,0.4,0.4,0.4
			h0.1v0.1c-0.2,0-0.5,0-0.8,0c-0.3,0-0.6,0-0.8,0V39h0.1c0.3,0,0.4,0,0.4-0.4v-2.5H42.4z"/>
		<path class="st1" d="M44.3,39.2c-0.2,0-0.5,0-0.8,0c-0.3,0-0.6,0-0.8,0h0v0V39h0h0.1c0.3,0,0.4,0,0.4-0.4l0-2.5h-0.8v0v0h0.8v2.6
			c0,0.4-0.2,0.4-0.4,0.4h-0.1v0.1c0.2,0,0.5,0,0.8,0C43.7,39.1,44,39.2,44.3,39.2l0-0.1h-0.1c-0.2,0-0.4-0.1-0.4-0.4v-2.6h0.8
			c0.3,0,0.4,0.3,0.4,0.4l0.1,0c0-0.1,0-0.2,0-0.4c0-0.1,0-0.2,0-0.4l-0.1,0c0,0.1-0.2,0.1-0.3,0.1h-2.5h0c-0.1,0-0.2,0-0.3-0.1
			h-0.1c0,0.1,0,0.3,0,0.4c0,0.1,0,0.3-0.1,0.4h0.1c0.1-0.3,0.1-0.4,0.5-0.4v0v0c-0.4,0-0.3,0.1-0.4,0.4l0,0h0h-0.2l0,0
			c0-0.1,0-0.3,0.1-0.4c0-0.1,0-0.3,0-0.4v0h0H42l0,0c0,0.1,0.1,0.1,0.2,0.1c0,0,0,0,0,0h2.5c0.1,0,0.2,0,0.2-0.1l0,0l0,0l0.1,0l0,0
			c0,0.1,0,0.3-0.1,0.4c0,0.1,0,0.3,0,0.4v0l0,0l-0.2,0.1v0c0-0.2,0-0.4-0.3-0.4h-0.8v2.5c0,0.4,0.1,0.4,0.4,0.4h0.1v0L44.3,39.2
			L44.3,39.2z"/>
		<path class="st1" d="M45.3,39L45.3,39c0.2,0,0.4,0,0.4-0.3v-2.5c0-0.2-0.2-0.3-0.4-0.3h-0.1v-0.1c0.2,0,0.5,0,0.7,0
			c0.2,0,0.5,0,0.7,0V36h-0.1c-0.2,0-0.4,0-0.4,0.3v2.5c0,0.2,0.2,0.3,0.4,0.3h0.1v0.1c-0.2,0-0.5,0-0.8,0c-0.2,0-0.5,0-0.7,0V39z"
			/>
		<path class="st1" d="M46.7,39.2v-0.1h0c-0.2,0-0.4,0-0.4-0.3v-2.5c0-0.3,0.2-0.3,0.4-0.3h0v-0.1c-0.2,0-0.5,0-0.7,0
			c-0.2,0-0.5,0-0.7,0V36h0c0.2,0,0.4,0,0.4,0.3v2.5c0,0.3-0.2,0.3-0.4,0.3h0v0.1c0.2,0,0.5,0,0.7,0C46.2,39.1,46.5,39.2,46.7,39.2
			 M46.7,39.2c-0.2,0-0.5,0-0.8,0c-0.2,0-0.5,0-0.7,0h0v0V39v0h0h0.1c0.2,0,0.3,0,0.3-0.3v-2.5c0-0.2-0.2-0.2-0.3-0.3h-0.1v0v-0.2h0
			c0.2,0,0.5,0,0.7,0c0.2,0,0.5,0,0.7,0h0v0V36h0h-0.1c-0.2,0-0.3,0-0.3,0.3v2.5c0,0.2,0.2,0.2,0.3,0.3h0.1v0L46.7,39.2L46.7,39.2z"
			/>
		<path class="st1" d="M48.7,39c0.9,0,1.1-0.8,1.1-1.5c0-0.7-0.4-1.5-1.2-1.5c-0.8,0-1.1,0.7-1.1,1.4C47.5,38.2,47.9,39,48.7,39
			 M48.6,35.8c1,0,1.8,0.6,1.8,1.6c0,1.1-0.8,1.8-1.8,1.8c-1,0-1.8-0.7-1.8-1.7C46.9,36.5,47.6,35.8,48.6,35.8"/>
		<path class="st1" d="M47.5,37.4c0-0.6,0.3-1.4,1.1-1.4c0.8,0,1.2,0.9,1.2,1.6c0,0.7-0.2,1.5-1.1,1.5v0v0c0.9,0,1.1-0.8,1.1-1.5
			c0-0.7-0.4-1.5-1.1-1.5C47.8,36,47.6,36.7,47.5,37.4c0,0.8,0.4,1.6,1.2,1.6v0v0C47.9,39.1,47.5,38.2,47.5,37.4 M46.9,37.5
			c0-1,0.8-1.8,1.8-1.8v0v0C47.6,35.8,46.9,36.6,46.9,37.5c0,1,0.8,1.7,1.8,1.7c1,0,1.8-0.7,1.8-1.8c0-1-0.8-1.6-1.8-1.6v0v0
			c1,0,1.8,0.6,1.8,1.7c0,1.1-0.8,1.8-1.8,1.8C47.6,39.3,46.9,38.6,46.9,37.5"/>
		<path class="st1" d="M53.7,38.2L53.7,38.2l0-1.8c0-0.4-0.3-0.4-0.4-0.4h-0.1v-0.1c0.2,0,0.4,0,0.7,0c0.2,0,0.4,0,0.6,0V36h-0.1
			c-0.2,0-0.4,0-0.4,0.6v2.2c0,0.2,0,0.3,0,0.5h-0.2l-2.5-2.7v2c0,0.4,0.1,0.6,0.4,0.6h0.1v0.1c-0.2,0-0.4,0-0.6,0
			c-0.2,0-0.4,0-0.6,0V39h0.1c0.3,0,0.4-0.2,0.4-0.6v-2c0-0.3-0.2-0.4-0.4-0.4h-0.1v-0.1c0.2,0,0.4,0,0.5,0c0.1,0,0.3,0,0.4,0
			L53.7,38.2z"/>
		<path class="st1" d="M53.6,38.2L53.6,38.2L53.6,38.2L53.6,38.2z M53.7,38.2L53.7,38.2L53.7,38.2z M53.8,39.2h0.2
			c0-0.1,0-0.3,0-0.5v-2.2c0-0.6,0.2-0.6,0.4-0.6h0.1v-0.1c-0.2,0-0.4,0-0.6,0c-0.2,0-0.4,0-0.6,0V36h0.1c0.1,0,0.4,0.1,0.4,0.5
			l0,1.8l0,0l0,0l-2.1-2.4c-0.1,0-0.3,0-0.4,0c-0.2,0-0.4,0-0.5,0V36h0c0.2,0,0.5,0.2,0.5,0.4v2c0,0.4-0.1,0.6-0.4,0.6l0,0v0.1
			c0.2,0,0.4,0,0.6,0c0.2,0,0.4,0,0.6,0v-0.1h-0.1c-0.4,0-0.5-0.2-0.5-0.6v-2L53.8,39.2z M53.9,39.3l-0.2,0l-2.4-2.7v1.9
			c0,0.4,0.1,0.5,0.4,0.5h0.1v0v0.2h0c-0.2,0-0.4,0-0.6,0c-0.2,0-0.4,0-0.6,0h0v0V39h0h0.1c0.3,0,0.4-0.2,0.4-0.6v-2
			c0-0.3-0.2-0.4-0.4-0.4h-0.1v0v-0.2h0c0.2,0,0.4,0,0.5,0c0.1,0,0.3,0,0.4,0l2.1,2.4v-1.7c0-0.4-0.3-0.4-0.4-0.4h-0.1v0v-0.2h0
			c0.2,0,0.4,0,0.7,0c0.2,0,0.4,0,0.6,0h0v0V36h0h-0.1c-0.2,0-0.4,0-0.4,0.6v2.2C53.9,38.9,53.9,39.1,53.9,39.3L53.9,39.3L53.9,39.3
			z"/>
		<path class="st1" d="M55.9,36.4L55.9,36.4l-0.5,1.3h0.9L55.9,36.4z M55.2,38.5c0,0.2-0.1,0.3-0.1,0.4c0,0.1,0.2,0.2,0.4,0.2h0.1
			v0.1c-0.2,0-0.4,0-0.6,0c-0.2,0-0.3,0-0.5,0V39h0c0.2,0,0.3-0.1,0.4-0.3l0.8-2.2c0.1-0.2,0.1-0.4,0.2-0.6c0.2-0.1,0.3-0.1,0.4-0.2
			c0,0,0,0,0,0c0,0,0,0,0,0c0,0,0,0.1,0,0.1l0.9,2.5c0.1,0.2,0.1,0.3,0.2,0.5c0.1,0.1,0.2,0.2,0.3,0.2h0v0.1c-0.2,0-0.4,0-0.7,0
			c-0.2,0-0.5,0-0.7,0V39h0.1c0.1,0,0.3,0,0.3-0.1c0-0.1,0-0.2-0.1-0.3L56.4,38h-1.1L55.2,38.5z"/>
		<path class="st1" d="M55.8,36.4L55.8,36.4L55.8,36.4z M55.4,37.7h0.8l-0.4-1.3L55.4,37.7z M55.4,37.8l0.5-1.4h0h0v0l0,0l0,0v0h0
			l0.5,1.4H55.4z M56.3,39.2c0.2,0,0.5,0,0.7,0c0.2,0,0.4,0,0.6,0l0-0.1h0c-0.2,0-0.3-0.1-0.3-0.2c-0.1-0.1-0.1-0.3-0.2-0.5
			l-0.9-2.5c0,0,0-0.1,0-0.1c0,0,0,0,0,0h0c0,0,0,0,0,0c-0.1,0.1-0.3,0.2-0.4,0.2c0,0.2-0.1,0.4-0.2,0.6l-0.8,2.2
			c-0.1,0.2-0.2,0.3-0.4,0.3h0v0.1c0.2,0,0.3,0,0.5,0c0.2,0,0.4,0,0.6,0v-0.1h0c-0.2,0-0.4,0-0.4-0.2c0-0.1,0.1-0.2,0.1-0.4l0,0l0,0
			l0.2-0.5h1.1l0.2,0.6c0.1,0.2,0.1,0.3,0.1,0.4c0,0.1-0.2,0.2-0.3,0.2h0V39.2z M57.7,39.2c-0.2,0-0.4,0-0.7,0c-0.2,0-0.5,0-0.7,0
			l0,0v0V39h0h0.1c0.1,0,0.3,0,0.3-0.1c0-0.1,0-0.2-0.1-0.3L56.4,38h-1.1l-0.1,0.5c0,0.2-0.1,0.3-0.1,0.4c0,0.1,0.2,0.1,0.3,0.1h0.1
			v0v0.2l0,0c-0.2,0-0.4,0-0.6,0c-0.2,0-0.3,0-0.5,0l0,0v0V39h0h0c0.2,0,0.3-0.1,0.4-0.3l0.8-2.2c0.1-0.2,0.1-0.4,0.2-0.6
			c0.2-0.1,0.3-0.1,0.4-0.2c0,0,0,0,0,0c0,0,0,0,0.1,0c0,0,0,0.1,0,0.1l0.9,2.5c0.1,0.2,0.1,0.3,0.2,0.5c0.1,0.1,0.1,0.2,0.3,0.2
			h0.1v0L57.7,39.2L57.7,39.2z"/>
		<path class="st1" d="M58.9,38.7c0,0.2,0.1,0.2,0.3,0.3c0.2,0,0.4,0,0.6,0c0.2,0,0.4-0.1,0.5-0.3c0.1-0.1,0.1-0.2,0.1-0.3h0.1
			c-0.1,0.3-0.1,0.5-0.2,0.8c-0.4,0-0.8,0-1.3,0c-0.4,0-0.8,0-1.3,0V39h0.1c0.2,0,0.4,0,0.4-0.3v-2.4c0-0.2-0.2-0.3-0.4-0.3h-0.1
			v-0.1c0.3,0,0.5,0,0.8,0c0.2,0,0.5,0,0.7,0V36h-0.1c-0.2,0-0.3,0-0.3,0.3V38.7z"/>
		<path class="st1" d="M60.4,39.2c0.1-0.3,0.1-0.5,0.2-0.8h-0.1c0,0.1-0.1,0.2-0.1,0.3C60.2,38.8,60,39,59.8,39c-0.1,0-0.2,0-0.4,0
			c-0.1,0-0.2,0-0.3,0c-0.2,0-0.3-0.1-0.3-0.3v-2.5c0-0.3,0.2-0.3,0.3-0.3h0.1v-0.1c-0.2,0-0.5,0-0.7,0c-0.2,0-0.5,0-0.7,0V36h0
			c0.2,0,0.4,0,0.4,0.3v2.4c0,0.3-0.2,0.3-0.4,0.3h0v0.1c0.4,0,0.8,0,1.2,0S59.9,39.2,60.4,39.2 M60.4,39.2c-0.4,0-0.8,0-1.3,0
			c-0.4,0-0.8,0-1.3,0h0v0V39h0h0.1c0.2,0,0.3,0,0.3-0.3v-2.4c0-0.2-0.2-0.2-0.3-0.3h-0.1v0v-0.2h0c0.3,0,0.5,0,0.8,0
			c0.2,0,0.5,0,0.7,0h0v0V36h0h-0.1c-0.2,0-0.3,0-0.3,0.2v2.5c0,0.2,0.1,0.2,0.3,0.2c0.1,0,0.2,0,0.3,0c0.1,0,0.2,0,0.4,0
			c0.2,0,0.4-0.1,0.4-0.2c0.1-0.1,0.1-0.2,0.1-0.3l0,0h0h0.2l0,0C60.5,38.6,60.5,38.9,60.4,39.2L60.4,39.2L60.4,39.2z"/>
	</g>
</g>
</svg>
