<?xml version="1.0" encoding="utf-8"?>
<!-- Generator: Adobe Illustrator 24.0.1, SVG Export Plug-In . SVG Version: 6.00 Build 0)  -->
<svg version="1.1" id="Capa_1" xmlns="http://www.w3.org/2000/svg" xmlns:xlink="http://www.w3.org/1999/xlink" x="0px" y="0px"
	 viewBox="0 0 76 50" style="enable-background:new 0 0 76 50;" xml:space="preserve">
<style type="text/css">
	.st0{fill:#333333;}
</style>
<path class="st0" d="M12.5,42.8c-0.6,0-1.1-0.5-1.1-1.1c0-0.6,0.5-1.1,1.1-1.1h4.9c0.6,0,1.1,0.5,1.1,1.1c0,0.6-0.5,1.1-1.1,1.1
	H12.5z"/>
<path class="st0" d="M39.5,42.8c-0.6,0-1.1-0.5-1.1-1.1c0-0.6,0.5-1.1,1.1-1.1h8.6c0.6,0,1.1,0.5,1.1,1.1c0,0.6-0.5,1.1-1.1,1.1
	H39.5z"/>
<path class="st0" d="M70.2,42.8c-0.6,0-1.1-0.5-1.1-1.1c0-0.6,0.5-1.1,1.1-1.1h1.6c0.9,0,1.5-0.6,1.5-1.5V28.6
	c0-1.3-0.5-2.5-1.5-3.5L68.7,22c-0.2-0.2-0.3-0.5-0.3-0.8s0.1-0.6,0.3-0.8c0.2-0.2,0.5-0.3,0.8-0.3c0.3,0,0.6,0.1,0.8,0.3l3.1,3.1
	c1.4,1.4,2.2,3.3,2.2,5.1v10.3c0,2.1-1.8,3.9-3.9,3.9H70.2z"/>
<path class="st0" d="M55.1,22.3c-0.6,0-1.1-0.5-1.1-1.1c0-0.6,0.5-1.1,1.1-1.1h12.7l-4.6-9.5c-0.5-1.2-1.7-1.9-3-1.9h-8.6
	c-0.6,0-1.1-0.5-1.1-1.1V3.9c0-0.9-0.6-1.5-1.5-1.5H14.1c-0.6,0-1.1-0.5-1.1-1.1C13,0.6,13.5,0,14.1,0h34.5c2.1,0,3.9,1.8,3.9,3.9
	v2.3H60c2.2,0,4.1,1.2,5.2,3.3l5.4,11.1c0.2,0.4,0.2,0.6,0,1c-0.2,0.4-0.6,0.7-1,0.7H55.1z"/>
<path class="st0" d="M9.2,13.5c-0.6,0-1.1-0.5-1.1-1.1c0-0.6,0.5-1.1,1.1-1.1h22.9c0.6,0,1.1,0.5,1.1,1.1c0,0.6-0.6,1.1-1.1,1.1H9.2
	z"/>
<path class="st0" d="M1.5,22.4c-0.6,0-1.1-0.5-1.1-1.1c0-0.6,0.5-1.1,1.1-1.1h27.3c0.6,0,1.1,0.5,1.1,1.1c0,0.6-0.5,1.1-1.1,1.1H1.5
	z"/>
<path class="st0" d="M6.3,31.3c-0.6,0-1.1-0.5-1.1-1.1c0-0.6,0.5-1.1,1.1-1.1h18c0.6,0,1.1,0.5,1.1,1.1c0,0.6-0.5,1.1-1.1,1.1H6.3z"
	/>
<path class="st0" d="M28.5,50c-4.6,0-8.3-3.7-8.3-8.3s3.7-8.3,8.3-8.3s8.3,3.7,8.3,8.3S33,50,28.5,50z M28.5,35.7c-3.3,0-6,2.8-6,6
	c0,3.3,2.8,6,6,6s6-2.8,6-6C34.4,38.3,31.8,35.7,28.5,35.7z"/>
<path class="st0" d="M59.2,50c-4.6,0-8.3-3.7-8.3-8.3s3.7-8.3,8.3-8.3s8.3,3.7,8.3,8.3S63.8,50,59.2,50z M59.2,35.7
	c-3.3,0-6,2.8-6,6c0,3.3,2.8,6,6,6c3.3,0,6-2.8,6-6C65.2,38.3,62.5,35.7,59.2,35.7z"/>
</svg>
