<?xml version="1.0" encoding="utf-8"?>
<svg version="1.1" id="Capa_1" xmlns="http://www.w3.org/2000/svg" xmlns:xlink="http://www.w3.org/1999/xlink" x="0px" y="0px"
	 viewBox="0 0 155.2 50" style="enable-background:new 0 0 155.2 50;" xml:space="preserve">
<style type="text/css">
	.st0{fill:#282828;}
	.st1{fill:#F9AD32;}
</style>
<g>
	<g>
		<path class="st0" d="M150.8,17.2l-4.7,14.1c-0.5-0.5-4.1-9.6-4.8-11.1c-0.9-2.1-2.2-3-5-3c-2.6,0-5.3,0-7.9,0v-5.7
			c-0.9,0.2-3.6,1-4.3,1.4v4.3h-3.4v3.4l3.4,0.1v11.4c0.1,1.1,0.2,1.7,0.5,2.2c1.5,3.4,6.9,3.1,10,1l-1.4-2.9
			c-1,0.4-2.2,1.2-3.7,0.8c-1.3-0.4-1.2-1.9-1.2-3.4c0-3.1,0-6.2,0-9.2h8.6l6.9,15.8c0.1,0.7-1.4,3.4-1.7,3.9
			c-2.4,3.4-4.6,1.9-6.6,1.5l-1,3.4c3.7,1.4,7.5,0.9,9.6-1.4c1.9-2.1,3-5,4.2-8.2l6.7-18.4C155,17.2,150.8,17.2,150.8,17.2z"/>
		<path class="st0" d="M84.7,11.8l0.8-3.3c-1.6-1-4.9-1-6.6-0.2c-1.9,0.9-3.2,3.2-3.2,4.7v4.2h-3.4l1.3,3.3h2.1v15.7
			c0.7,0.2,3.4,0.1,4.2,0V20.6h3.9l1.4-3.3h-5.3C79.9,11.7,79.9,10.8,84.7,11.8z"/>
		<path class="st0" d="M111.5,32.7c-4.3-2.1-3.9-10,0.4-12c1.7-0.8,4-0.7,5.7,0c0.6,0.3,1.1,0.6,1.6,0.8v-3.7c-2.5-1-4.3-1.7-7.5-1
			c-4.8,1.1-7.6,5.5-7.5,10.3c0.3,11.3,12.5,10.7,15.8,7.7c-0.1-0.5-1-2.6-1.2-2.9C116.4,33,114.2,34.1,111.5,32.7z"/>
		<path class="st0" d="M66.2,17.1c-2.2-0.7-4.9-0.5-6.7,0.6c-6.7,4-6.3,19.2,5.3,19c2.2,0,5.1-0.6,6.4-1.8L70,32.2
			c-1.1,0.3-1.8,0.9-3.3,1.1c-3.8,0.6-7.2-1.1-7.3-5.4h12.3C71.7,23.6,71,18.6,66.2,17.1z M59.4,24.8c0.3-2.6,1.3-4.7,4-4.7
			c2.6,0,3.9,2.1,4,4.8L59.4,24.8z"/>
		<path class="st0" d="M93.7,16.7c-6.3-0.1-8.8,5.3-8.5,10.9c0.5,7.1,6,10.5,12.7,8.9c1.5-0.4,2.2-0.9,3.3-1.3l-1.2-3
			c-1.7,0.5-3.9,2-7,0.9c-2-0.7-3.5-2.5-3.5-5.2h12.3C101.9,22.2,100.2,16.8,93.7,16.7z M89.5,24.8c0.2-2.6,1.4-4.8,4.1-4.8
			c2.6,0,3.9,2.2,3.9,4.8H89.5z"/>
	</g>
	<g>
		<path class="st1" d="M30.4,0C16.5,0,3.1,11.2,0.5,25C-2.2,38.8,7,50,20.9,50s27.3-11.2,29.9-25C53.5,11.2,44.3,0,30.4,0z M48.7,25
			c-2.3,11.8-13.1,21.5-24.9,22.8c-0.9,0-1-0.6-1-1.3c0-1.6,0.1-3.3,0.2-4.9c0-0.2-0.1-0.3-0.2-0.3c-1.2-0.1-2.4-0.4-3.6-0.8
			c-1.3-0.5-2.6-1.2-3.8-2.1c-0.6-0.3-0.5-1.6-0.5-2.2c0.1-1,0.8-3.2,2-3.3c1.4-0.1,2,0.7,3.4,1.3c2.4,1.1,5.7,1.8,8.2,0.6
			c1.2-0.7,1.5-1.7,0.9-3c-1-2-5.6-3.7-7.7-4.7c-5-2.1-7.9-6.5-7-11.7c0.7-3.8,4.3-6.7,8-7.3c0-0.6,0-1.2,0-1.8
			c-4.6,1.3-8.2,4-11.3,7.1c-4.6,4.5-7.3,10.1-7.5,17.4c0.4,8.9,5,12.8,9.8,15.7C5.4,43.4,0.7,34.9,2.6,25
			C4.9,12.9,16.3,2.9,28.4,2.1c0.5,0.3,0.5,0.3,0.8,1c-0.1,1.5-0.2,3.1-0.3,4.6c2.4,0.5,4.7,1.2,6.5,2.7c0.1,3.5-2.6,5-3.6,4.4
			c0-0.2-4-1.3-4.8-1.5c-1-0.2-2-0.1-3,0.3c-1.2,0.6-1.7,1.4-1.2,2.7c0.5,1,1.3,1.6,2.2,2.1c2.5,1.4,5.1,2.7,7.6,4.1
			c2.2,1.2,3.7,2.8,4.7,4.7c0.7,1.9,0.9,3.8,0.5,5.8c-0.5,1.6-1.1,3-2,3.9c-0.8,0.9-1.6,1.6-2.5,2c-1.3,0.7-2.6,1.3-3.9,1.5
			c0,0.8-0.1,1.6-0.1,2.4c0.1,0.1,0.2,0,0.3,0c2.9-0.9,5.4-2.5,7.8-4.3c3.2-2.8,6.1-5.7,7.7-9.5c1.1-2.1,1.9-4.5,2.3-7.2
			c0.9-7.7-2-15-10.3-18.8C45.7,6.3,50.7,14.9,48.7,25z"/>
	</g>
</g>
</svg>
