<?xml version="1.0" encoding="utf-8"?>
<!-- Generator: Adobe Illustrator 24.0.1, SVG Export Plug-In . SVG Version: 6.00 Build 0)  -->
<svg version="1.1" id="Capa_1" xmlns="http://www.w3.org/2000/svg" xmlns:xlink="http://www.w3.org/1999/xlink" x="0px" y="0px"
	 viewBox="0 0 357.9 50" style="enable-background:new 0 0 357.9 50;" xml:space="preserve">
<style type="text/css">
	.st0{fill:#004C98;}
	.st1{fill:#FFFFFF;}
	.st2{fill:#00437F;}
	.st3{fill-rule:evenodd;clip-rule:evenodd;fill:#FFB216;}
	.st4{fill-rule:evenodd;clip-rule:evenodd;fill:#FF152B;}
	.st5{fill-rule:evenodd;clip-rule:evenodd;fill:#FFFFFF;}
	.st6{fill:none;stroke:#FFFFFF;stroke-width:0.216;stroke-miterlimit:2.6131;}
	.st7{fill:#2056AA;}
	.st8{fill:#FFA61F;}
	.st9{fill:#0073A5;}
</style>
<g>
	<path class="st0" d="M265.3,47.3c0,1.5-1.2,2.7-2.7,2.7h-74.8c-1.5,0-2.7-1.2-2.7-2.7V2.7c0-1.5,1.2-2.7,2.7-2.7h74.9
		c1.5,0,2.7,1.2,2.7,2.7v44.6H265.3z"/>
	<g>
		<path class="st1" d="M227.1,27.3c4.5,0,8.6-3.7,8.6-8.2c0-4.9-4.1-8.3-8.6-8.3h-3.9c-4.6,0-8.3,3.4-8.3,8.3c0,4.5,3.8,8.2,8.3,8.2
			H227.1z"/>
		<path class="st0" d="M225,23.5v-9c1.8,0.7,3.1,2.4,3.1,4.5C228,21,226.8,22.8,225,23.5 M218.5,19c0-2,1.3-3.8,3.1-4.5v9
			C219.7,22.8,218.5,21,218.5,19 M223.3,11.4c-4.2,0-7.6,3.4-7.6,7.6s3.4,7.6,7.6,7.6s7.6-3.4,7.6-7.6
			C230.8,14.8,227.4,11.4,223.3,11.4"/>
		<g>
			<path class="st1" d="M206.4,32.9c0,0.7,0.5,0.8,0.9,0.8c1.9,0,2.5-1.4,2.5-2.7c0-1.6-1.1-2.8-2.7-2.8c-0.4,0-0.5,0-0.7,0
				C206.4,28.2,206.4,32.9,206.4,32.9z M205.6,28.8c0-0.8-0.4-0.7-0.8-0.7v-0.2c0.3,0,0.7,0,1,0c0.4,0,0.9,0,1.5,0
				c2.3,0,3.5,1.5,3.5,3.1c0,0.9-0.5,3-3.6,3c-0.4,0-0.9,0-1.3,0c-0.4,0-0.8,0-1.2,0v-0.2c0.5-0.1,0.8-0.1,0.8-0.7v-4.3H205.6z"/>
			<path class="st1" d="M212.1,28.6c-0.2,0-0.4-0.2-0.4-0.4c0-0.2,0.2-0.4,0.4-0.4s0.4,0.2,0.4,0.4S212.3,28.6,212.1,28.6
				 M211.1,33.7h0.2c0.2,0,0.4,0,0.4-0.3V31c0-0.4-0.1-0.4-0.5-0.6v-0.1c0.4-0.1,0.9-0.3,0.9-0.3c0.1,0,0.1,0,0.2,0l0.1,0.1v3.4
				c0,0.3,0.2,0.3,0.4,0.3h0.1V34c-0.3,0-0.6,0-0.9,0s-0.6,0-1,0v-0.3H211.1z"/>
			<path class="st1" d="M213.8,31.1c0-0.3-0.1-0.4-0.5-0.6v-0.2c0.4-0.1,0.7-0.2,1.2-0.4c0,0,0.1,0,0.1,0.1v0.6
				c0.5-0.4,0.9-0.7,1.5-0.7c0.7,0,1,0.5,1,1.2v2.3c0,0.3,0.2,0.3,0.4,0.3h0.2v0.2c-0.3,0-0.6,0-0.9,0s-0.6,0-0.9,0v-0.2h0.2
				c0.2,0,0.4,0,0.4-0.3v-2.3c0-0.5-0.3-0.7-0.8-0.7c-0.3,0-0.7,0.2-1,0.4v2.6c0,0.3,0.2,0.3,0.4,0.3l0,0v0.2c-0.3,0-0.6,0-0.9,0
				c-0.3,0-0.6,0-0.9,0v-0.2h0.2c0.2,0,0.4,0,0.4-0.3v-2.3H213.8z"/>
			<path class="st1" d="M219.9,31.3c0.2,0,0.2-0.1,0.2-0.2c0-0.4-0.3-0.8-0.8-0.8s-0.9,0.4-1,1H219.9z M218.3,31.5
				c0,0.1,0,0.2,0,0.5c0.1,0.8,0.6,1.5,1.3,1.5c0.5,0,0.9-0.3,1.2-0.6l0.1,0.1c-0.4,0.5-0.9,1-1.6,1c-1.4,0-1.7-1.3-1.7-1.9
				c0-1.7,1.2-2.2,1.8-2.2c0.7,0,1.5,0.4,1.5,1.4c0,0.1,0,0.1,0,0.2l-0.1,0.1L218.3,31.5L218.3,31.5z"/>
			<path class="st1" d="M221.1,33.7h0.2c0.2,0,0.4,0,0.4-0.3V31c0-0.3-0.3-0.3-0.5-0.4v-0.1c0.6-0.3,1-0.5,1.1-0.5
				c0.1,0,0.1,0,0.1,0.1v0.8l0,0c0.2-0.3,0.6-0.9,1.1-0.9c0.2,0,0.5,0.1,0.5,0.5c0,0.2-0.2,0.4-0.4,0.4c-0.3,0-0.3-0.2-0.6-0.2
				c-0.1,0-0.6,0.2-0.6,0.7v2.1c0,0.3,0.2,0.3,0.4,0.3h0.5V34c-0.5,0-0.8,0-1.2,0c-0.4,0-0.7,0-1,0V33.7z"/>
			<path class="st1" d="M224.4,32.7c0.1,0.6,0.5,1.1,1.1,1.1c0.5,0,0.7-0.3,0.7-0.6c0-1-1.9-0.7-1.9-2.1c0-0.5,0.4-1.1,1.4-1.1
				c0.3,0,0.7,0.1,1,0.3l0.1,0.9h-0.2c-0.1-0.5-0.4-0.9-1-0.9c-0.4,0-0.7,0.2-0.7,0.6c0,1,2,0.7,2,2.1c0,0.6-0.5,1.2-1.5,1.2
				c-0.4,0-0.8-0.1-1.1-0.3l-0.1-1L224.4,32.7z"/>
			<path class="st1" d="M234.8,29.4h-0.2c-0.2-1-0.9-1.4-1.9-1.4s-2.5,0.7-2.5,2.8c0,1.8,1.3,3,2.6,3c0.9,0,1.6-0.6,1.8-1.5l0.2,0.1
				l-0.2,1.3c-0.4,0.2-1.4,0.5-1.9,0.5c-2,0-3.3-1.3-3.3-3.3c0-1.8,1.6-3.1,3.3-3.1c0.7,0,1.4,0.2,2.1,0.5L234.8,29.4z"/>
			<path class="st1" d="M235.1,33.7h0.2c0.2,0,0.4,0,0.4-0.3v-4.9c0-0.6-0.1-0.6-0.5-0.7v-0.1c0.4-0.1,0.7-0.3,0.9-0.4
				c0.1-0.1,0.2-0.1,0.2-0.1c0.1,0,0.1,0.1,0.1,0.1v6c0,0.3,0.2,0.3,0.4,0.3h0.1v0.2c-0.3,0-0.6,0-0.9,0s-0.6,0-1,0v-0.1H235.1z"/>
			<path class="st1" d="M240.7,33.5c0,0.2,0.1,0.2,0.2,0.2c0.1,0,0.2,0,0.4,0v0.2c-0.4,0-1.1,0.2-1.3,0.3l0,0v-0.7
				c-0.5,0.4-0.9,0.7-1.5,0.7c-0.5,0-1-0.3-1-1V31c0-0.2,0-0.4-0.5-0.5v-0.2c0.3,0,1-0.1,1.1-0.1c0.1,0,0.1,0.1,0.1,0.3v2.3
				c0,0.3,0,1,0.8,1c0.3,0,0.7-0.2,1.1-0.5v-2.4c0-0.2-0.4-0.3-0.7-0.4v-0.2c0.8-0.1,1.3-0.1,1.4-0.1c0.1,0,0.1,0.1,0.1,0.2v3.1
				H240.7z"/>
			<path class="st1" d="M242.5,33c0,0.3,0.3,0.9,0.9,0.9c0.9,0,1.3-0.9,1.3-1.7c0-0.9-0.7-1.7-1.4-1.7c-0.3,0-0.6,0.2-0.8,0.4V33z
				 M242.5,30.6c0.4-0.3,0.8-0.6,1.3-0.6c1,0,1.6,0.9,1.6,1.8c0,1.1-0.8,2.3-2.1,2.3c-0.6,0-1-0.2-1.2-0.3l-0.2,0.2l-0.2-0.1
				c0.1-0.5,0.1-1,0.1-1.6v-3.8c0-0.6-0.1-0.6-0.5-0.7v-0.1c0.4-0.1,0.7-0.3,0.9-0.4c0.1-0.1,0.2-0.1,0.2-0.1c0.1,0,0.1,0.1,0.1,0.1
				S242.5,30.6,242.5,30.6z"/>
			<path class="st1" d="M204.8,39L204.8,39c0.2,0,0.4,0,0.4-0.3v-2.5c0-0.2-0.2-0.3-0.4-0.3h-0.1v-0.1c0.2,0,0.5,0,0.7,0
				c0.2,0,0.5,0,0.7,0V36H206c-0.2,0-0.4,0-0.4,0.3v2.5c0,0.2,0.2,0.3,0.4,0.3h0.1v0.1c-0.2,0-0.5,0-0.8,0c-0.2,0-0.5,0-0.7,0V39
				H204.8z"/>
			<path class="st1" d="M206.2,39.2L206.2,39.2L206.2,39.2c-0.2-0.1-0.4-0.1-0.4-0.4v-2.5c0-0.3,0.2-0.3,0.4-0.3l0,0v-0.1
				c-0.2,0-0.5,0-0.7,0s-0.5,0-0.7,0V36l0,0c0.2,0,0.4,0,0.4,0.3v2.5c0,0.3-0.2,0.3-0.4,0.3l0,0v0.1c0.2,0,0.5,0,0.7,0
				C205.7,39.1,206,39.2,206.2,39.2 M206.2,39.2c-0.2,0-0.5,0-0.8,0c-0.2,0-0.5,0-0.7,0l0,0l0,0V39l0,0l0,0h0.1c0.2,0,0.3,0,0.3-0.3
				v-2.5c0-0.2-0.2-0.2-0.3-0.3h-0.1l0,0v-0.2l0,0c0.2,0,0.5,0,0.7,0c0.2,0,0.5,0,0.7,0l0,0l0,0V36l0,0H206c-0.2,0-0.3,0-0.3,0.3
				v2.5c0,0.2,0.2,0.2,0.3,0.3h0.1l0,0L206.2,39.2L206.2,39.2z"/>
			<path class="st1" d="M209.5,38.2L209.5,38.2v-1.8c0-0.4-0.3-0.4-0.4-0.4H209v-0.1c0.2,0,0.4,0,0.7,0c0.2,0,0.4,0,0.6,0V36h-0.1
				c-0.2,0-0.4,0-0.4,0.6v2.2c0,0.2,0,0.3,0,0.5h-0.2l-2.5-2.8v2c0,0.4,0.1,0.6,0.4,0.6h0.1v0.1c-0.2,0-0.4,0-0.6,0s-0.4,0-0.6,0V39
				h0.1c0.3,0,0.4-0.2,0.4-0.6v-2c0-0.3-0.2-0.4-0.4-0.4h-0.1v-0.1c0.2,0,0.4,0,0.5,0c0.1,0,0.3,0,0.4,0L209.5,38.2z"/>
			<path class="st1" d="M209.5,38.2L209.5,38.2L209.5,38.2L209.5,38.2z M209.5,38.2L209.5,38.2L209.5,38.2z M209.6,39.2h0.2
				c0-0.1,0-0.3,0-0.5v-2.2c0-0.6,0.2-0.6,0.4-0.6h0.1v-0.1c-0.2,0-0.4,0-0.6,0c-0.2,0-0.4,0-0.6,0V36l0,0c0.1,0,0.4,0.1,0.4,0.5
				v1.8l0,0l0,0l-2.1-2.4c-0.1,0-0.3,0-0.4,0c-0.2,0-0.4,0-0.5,0V36l0,0c0.2,0,0.5,0.2,0.5,0.4v2c0,0.4-0.1,0.6-0.4,0.6l0,0v0.1
				c0.2,0,0.4,0,0.6,0c0.2,0,0.4,0,0.6,0V39h-0.1c-0.4,0-0.5-0.2-0.5-0.6v-2L209.6,39.2z M209.8,39.3h-0.2l-2.4-2.7v1.9
				c0,0.4,0.1,0.5,0.4,0.5h0.1l0,0v0.2l0,0c-0.2,0-0.4,0-0.6,0c-0.2,0-0.4,0-0.6,0l0,0l0,0V39l0,0h0.1c0.3,0,0.4-0.2,0.4-0.6v-2
				c0-0.3-0.2-0.4-0.4-0.4h-0.1l0,0v-0.2l0,0c0.2,0,0.4,0,0.5,0s0.3,0,0.4,0l2.1,2.4v-1.7c0-0.4-0.3-0.4-0.4-0.4H209l0,0v-0.2l0,0
				c0.2,0,0.4,0,0.7,0c0.2,0,0.4,0,0.6,0l0,0l0,0V36l0,0h-0.1c-0.2,0-0.4,0-0.4,0.6v2.2C209.8,38.9,209.8,39.1,209.8,39.3
				L209.8,39.3L209.8,39.3z"/>
			<path class="st1" d="M210.9,36.1c-0.4,0-0.4,0.1-0.4,0.4h-0.1c0-0.1,0-0.3,0.1-0.4c0-0.1,0-0.3,0-0.4h0.1c0,0.1,0.2,0.1,0.3,0.1
				h2.5c0.1,0,0.2,0,0.3-0.1h0.1c0,0.1,0,0.3-0.1,0.4c0,0.1,0,0.3,0,0.4l-0.1,0.1c0-0.2,0-0.5-0.4-0.5h-0.8v2.5
				c0,0.4,0.2,0.4,0.4,0.4h0.1v0.1c-0.2,0-0.5,0-0.8,0c-0.3,0-0.6,0-0.8,0V39h0.1c0.3,0,0.4,0,0.4-0.4v-2.5H210.9z"/>
			<path class="st1" d="M212.8,39.2c-0.2,0-0.5,0-0.8,0s-0.6,0-0.8,0l0,0l0,0V39l0,0h0.1c0.3,0,0.4,0,0.4-0.4v-2.5h-0.8l0,0l0,0h0.8
				v2.6c0,0.4-0.2,0.4-0.4,0.4h-0.1v0.1c0.2,0,0.5,0,0.8,0C212.3,39.1,212.6,39.2,212.8,39.2L212.8,39.2l-0.1-0.1
				c-0.2,0-0.4-0.1-0.4-0.4v-2.6h0.8c0.3,0,0.4,0.3,0.4,0.4h0.1c0-0.1,0-0.2,0-0.4c0-0.1,0-0.2,0-0.4h-0.1c0,0.1-0.2,0.1-0.3,0.1
				h-2.5l0,0c-0.1,0-0.2,0-0.3-0.1h-0.1c0,0.1,0,0.3,0,0.4c0,0.1,0,0.3-0.1,0.4h0.1c0.1-0.3,0.1-0.4,0.5-0.4l0,0l0,0
				c-0.4,0-0.3,0.1-0.4,0.4l0,0l0,0h-0.2l0,0c0-0.1,0-0.3,0.1-0.4c0-0.1,0-0.3,0-0.4l0,0l0,0h0.1l0,0c0,0.1,0.1,0.1,0.2,0.1l0,0h2.5
				c0.1,0,0.2,0,0.2-0.1l0,0l0,0h0.1l0,0c0,0.1,0,0.3-0.1,0.4c0,0.1,0,0.3,0,0.4l0,0l0,0l-0.2,0.1l0,0c0-0.2,0-0.4-0.3-0.4H212v2.5
				c0,0.4,0.1,0.4,0.4,0.4h0.1l0,0L212.8,39.2L212.8,39.2z"/>
			<path class="st1" d="M213.8,39L213.8,39c0.2,0,0.4,0,0.4-0.3v-2.5c0-0.2-0.2-0.3-0.4-0.3h-0.1v-0.1c0.3,0,0.8,0,1.2,0
				c0.4,0,0.9,0,1.2,0c0,0.2,0,0.5,0,0.7H216c0-0.3-0.1-0.6-0.6-0.6h-0.7v1.2h0.6c0.3,0,0.3-0.2,0.4-0.4h0.1c0,0.2,0,0.4,0,0.6
				c0,0.2,0,0.4,0,0.5h-0.1c0-0.3,0-0.5-0.4-0.5h-0.6v1.1c0,0.3,0.3,0.3,0.6,0.3c0.6,0,0.8,0,1-0.6h0.1c-0.1,0.3-0.1,0.5-0.2,0.8
				c-0.3,0-0.9,0-1.3,0c-0.4,0-1,0-1.3,0V39H213.8z"/>
			<path class="st1" d="M216.3,39.2c0-0.2,0.1-0.5,0.2-0.7h-0.1c-0.1,0.5-0.4,0.6-1,0.6c-0.3,0-0.6,0-0.6-0.3v-1.1h0.6
				c0.3,0,0.4,0.2,0.4,0.5h0.1c0-0.2,0-0.4,0-0.5c0-0.2,0-0.4,0-0.5h-0.1c0,0.2-0.1,0.4-0.4,0.4h-0.6V36h0.7c0.5,0,0.6,0.3,0.6,0.6
				h0.1c0-0.1,0-0.3,0-0.5c0-0.1,0-0.2,0-0.2c-0.3,0-0.8,0-1.2,0c-0.4,0-0.9,0-1.2,0V36l0,0c0.2,0,0.4,0,0.4,0.3v2.5
				c0,0.3-0.2,0.3-0.4,0.3l0,0v0.1c0.3,0,0.8,0,1.2,0C215.5,39.1,216,39.2,216.3,39.2 M216.4,39.2c-0.3,0-0.9,0-1.3,0
				c-0.4,0-1,0-1.3,0l0,0l0,0V39l0,0l0,0h0.1c0.2,0,0.3,0,0.3-0.3v-2.5c0-0.2-0.2-0.2-0.3-0.3h-0.1l0,0v-0.2l0,0c0.3,0,0.8,0,1.2,0
				c0.4,0,0.9,0,1.2,0l0,0l0,0c0,0.1,0,0.2,0,0.2c0,0.2,0,0.3,0,0.5l0,0l0,0H216l0,0c0-0.3-0.1-0.5-0.6-0.5h-0.6v1.2h0.5
				c0.3,0,0.3-0.1,0.4-0.4l0,0l0,0h0.2l0,0c0,0.2,0,0.4,0,0.6c0,0.2,0,0.4,0,0.5l0,0l0,0h-0.2l0,0c0-0.3,0-0.4-0.4-0.5h-0.6v1.1
				c0,0.3,0.3,0.3,0.6,0.3c0.6,0,0.8,0,0.9-0.6l0,0l0,0h0.2l0,0C216.5,38.7,216.4,38.9,216.4,39.2L216.4,39.2L216.4,39.2z"/>
			<path class="st1" d="M217.8,37.5h0.2c0.5,0,0.7-0.2,0.7-0.7c0-0.4-0.3-0.7-0.7-0.7c-0.1,0-0.2,0-0.3,0v1.4H217.8z M217.2,36.4
				c0-0.3-0.2-0.4-0.3-0.4h-0.1v-0.1c0.2,0,0.4,0,0.7,0s0.5,0,0.8,0c0.6,0,1.1,0.2,1.1,0.8c0,0.4-0.3,0.7-0.7,0.8l0.8,1.2
				c0.1,0.2,0.2,0.3,0.5,0.3v0.1c-0.2,0-0.3,0-0.5,0c-0.1,0-0.3,0-0.4,0c-0.4-0.5-0.7-1-1-1.5h-0.3v1c0,0.4,0.2,0.4,0.4,0.4h0.1v0.1
				c-0.3,0-0.5,0-0.8,0c-0.2,0-0.5,0-0.7,0V39h0.1c0.2,0,0.3-0.1,0.3-0.3C217.2,38.7,217.2,36.4,217.2,36.4z"/>
			<path class="st1" d="M218,37.4c0.5,0,0.7-0.2,0.7-0.7c0-0.4-0.3-0.7-0.7-0.7c-0.1,0-0.2,0-0.3,0v1.4H218z M217.8,37.5L217.8,37.5
				V36l0,0c0.1,0,0.1,0,0.3,0c0.4,0,0.7,0.3,0.7,0.7c0,0.6-0.3,0.8-0.8,0.8H217.8z M217.8,37.6h0.3l0,0c0.3,0.5,0.6,1.1,1,1.5
				c0.1,0,0.3,0,0.4,0c0.2,0,0.3,0,0.4,0V39c-0.2,0-0.3-0.1-0.5-0.3l-0.8-1.2l0,0c0.4-0.1,0.6-0.4,0.6-0.8c0-0.7-0.5-0.8-1.1-0.8
				c-0.3,0-0.5,0-0.8,0s-0.6,0-0.7,0V36h0.1c0.1,0,0.4,0,0.4,0.4v2.4c0,0.2-0.2,0.3-0.4,0.3h-0.1v0.1c0.2,0,0.4,0,0.7,0s0.5,0,0.8,0
				v-0.1H218c-0.2,0-0.4,0-0.4-0.4L217.8,37.6L217.8,37.6z M220,39.2c-0.2,0-0.3,0-0.5,0c-0.1,0-0.3,0-0.5,0c-0.4-0.5-0.7-1-1-1.5
				h-0.3v1c0,0.4,0.1,0.4,0.4,0.4h0.1l0,0v0.2l0,0c-0.3,0-0.5,0-0.8,0c-0.2,0-0.5,0-0.7,0l0,0l0,0V39l0,0h0.1c0.2,0,0.3-0.1,0.3-0.2
				v-2.4c0-0.3-0.2-0.3-0.3-0.3h-0.1l0,0v-0.2l0,0c0.2,0,0.4,0,0.7,0c0.3,0,0.5,0,0.8,0c0.6,0,1.2,0.2,1.2,0.9
				c0,0.4-0.3,0.7-0.7,0.8l0.8,1.2c0.1,0.2,0.2,0.2,0.4,0.3l0,0l0,0L220,39.2L220,39.2z"/>
			<path class="st1" d="M223.2,38.2L223.2,38.2v-1.8c0-0.4-0.3-0.4-0.4-0.4h-0.1v-0.1c0.2,0,0.4,0,0.7,0c0.2,0,0.4,0,0.6,0V36h-0.1
				c-0.2,0-0.4,0-0.4,0.6v2.2c0,0.2,0,0.3,0,0.5h-0.2l-2.4-2.7v2c0,0.4,0.1,0.6,0.4,0.6h0.1v0.1c-0.2,0-0.4,0-0.6,0
				c-0.2,0-0.4,0-0.6,0V39h0.1c0.3,0,0.4-0.2,0.4-0.6v-2c0-0.3-0.2-0.4-0.4-0.4h-0.2v-0.1c0.2,0,0.4,0,0.5,0c0.1,0,0.3,0,0.4,0
				L223.2,38.2z"/>
			<path class="st1" d="M223.2,38.2L223.2,38.2L223.2,38.2L223.2,38.2z M223.2,38.2L223.2,38.2L223.2,38.2z M223.3,39.2h0.2
				c0-0.1,0-0.3,0-0.5v-2.2c0-0.6,0.2-0.6,0.4-0.6l0,0v-0.1c-0.2,0-0.4,0-0.6,0s-0.4,0-0.6,0V36h0.1c0.1,0,0.4,0.1,0.4,0.5v1.8l0,0
				l0,0l-2.1-2.4c-0.1,0-0.3,0-0.4,0c-0.2,0-0.4,0-0.5,0V36l0,0c0.2,0,0.5,0.2,0.5,0.4v2c0,0.4-0.1,0.6-0.4,0.6l0,0v0.1
				c0.2,0,0.4,0,0.6,0s0.4,0,0.6,0V39h-0.1c-0.4,0-0.5-0.2-0.5-0.6v-2L223.3,39.2z M223.5,39.3h-0.2l-2.4-2.7v1.9
				c0,0.4,0.1,0.5,0.4,0.5h0.1l0,0v0.2l0,0c-0.2,0-0.4,0-0.6,0s-0.4,0-0.6,0l0,0l0,0V39l0,0h0.1c0.3,0,0.4-0.2,0.4-0.6v-2
				c0-0.3-0.2-0.4-0.4-0.4h-0.2l0,0v-0.2l0,0c0.2,0,0.4,0,0.5,0c0.1,0,0.3,0,0.4,0l2.1,2.4v-1.8c0-0.4-0.3-0.4-0.4-0.4h-0.1l0,0
				v-0.2l0,0c0.2,0,0.4,0,0.7,0c0.2,0,0.4,0,0.6,0l0,0l0,0V36l0,0h-0.1c-0.2,0-0.4,0-0.4,0.6v2.2C223.5,38.9,223.5,39.1,223.5,39.3
				L223.5,39.3L223.5,39.3z"/>
			<path class="st1" d="M225.4,36.4L225.4,36.4l-0.5,1.3h0.9L225.4,36.4z M224.7,38.5c0,0.2-0.1,0.3-0.1,0.4c0,0.1,0.2,0.2,0.4,0.2
				h0.1v0.1c-0.2,0-0.4,0-0.6,0s-0.3,0-0.5,0V39l0,0c0.2,0,0.3-0.1,0.4-0.3l0.8-2.2c0.1-0.2,0.1-0.4,0.2-0.6
				c0.2-0.1,0.3-0.1,0.4-0.2l0,0l0,0v0.1l0.9,2.5c0.1,0.2,0.1,0.3,0.2,0.5c0.1,0.2,0.2,0.2,0.3,0.2l0,0v0.1c-0.2,0-0.4,0-0.7,0
				c-0.2,0-0.5,0-0.7,0V39h0.1c0.1,0,0.3,0,0.3-0.1s0-0.2-0.1-0.3L226,38h-1.1L224.7,38.5z"/>
			<path class="st1" d="M225.4,36.4L225.4,36.4L225.4,36.4z M225,37.7h0.8l-0.4-1.3L225,37.7z M224.9,37.8l0.5-1.4l0,0l0,0l0,0l0,0
				l0,0l0,0l0,0l0.5,1.4H224.9z M225.9,39.2c0.2,0,0.5,0,0.7,0c0.2,0,0.4,0,0.6,0v-0.1l0,0c-0.2,0-0.3-0.1-0.3-0.2
				c-0.1-0.1-0.1-0.3-0.2-0.5l-0.9-2.5v-0.1l0,0l0,0l0,0c-0.1,0.1-0.3,0.2-0.4,0.2c0,0.2-0.1,0.4-0.2,0.6l-0.8,2.2
				c-0.1,0.2-0.2,0.3-0.4,0.3l0,0v0.1c0.2,0,0.3,0,0.5,0c0.2,0,0.4,0,0.6,0v-0.1l0,0c-0.2,0-0.4,0-0.4-0.2c0-0.1,0.1-0.2,0.1-0.4
				l0,0l0,0L225,38h1.1l0.2,0.6c0.1,0.2,0.1,0.3,0.1,0.4c0,0.1-0.2,0.2-0.3,0.2l0,0l0,0H225.9z M227.3,39.2c-0.2,0-0.4,0-0.7,0
				c-0.2,0-0.5,0-0.7,0l0,0l0,0V39l0,0h0.1c0.1,0,0.3,0,0.3-0.1s0-0.2-0.1-0.3l-0.3-0.6h-1l-0.1,0.5c0,0.2-0.1,0.3-0.1,0.4
				c0,0.1,0.2,0.1,0.3,0.1h0.1l0,0v0.2l0,0c-0.2,0-0.4,0-0.6,0s-0.3,0-0.5,0l0,0l0,0V39l0,0l0,0c0.2,0,0.3-0.1,0.4-0.3l0.8-2.2
				c0.1-0.2,0.1-0.4,0.2-0.6c0.1-0.1,0.3-0.1,0.4-0.2l0,0c0,0,0,0,0.1,0v0.1l0.9,2.5c0.1,0.2,0.1,0.3,0.2,0.5c0,0.2,0.1,0.2,0.2,0.2
				l0,0l0,0L227.3,39.2L227.3,39.2z"/>
			<path class="st1" d="M227.5,36.1c-0.4,0-0.4,0.1-0.4,0.4H227c0-0.1,0-0.3,0.1-0.4c0-0.1,0-0.3,0-0.4l0,0c0,0.1,0.2,0.1,0.3,0.1
				h2.5c0.1,0,0.2,0,0.3-0.1h0.1c0,0.1,0,0.3-0.1,0.4c0,0.1,0,0.3,0,0.4l-0.1,0.1c0-0.2,0-0.5-0.4-0.5h-0.8v2.5
				c0,0.4,0.2,0.4,0.4,0.4h0.1v0.1c-0.2,0-0.5,0-0.8,0c-0.3,0-0.6,0-0.8,0V39h0.1c0.3,0,0.4,0,0.4-0.4v-2.5H227.5z"/>
			<path class="st1" d="M229.4,39.2c-0.2,0-0.5,0-0.8,0c-0.3,0-0.6,0-0.8,0l0,0l0,0V39l0,0h0.1c0.3,0,0.4,0,0.4-0.4v-2.5h-0.8l0,0
				l0,0h0.8v2.6c0,0.4-0.2,0.4-0.4,0.4h-0.1v0.1c0.2,0,0.5,0,0.8,0C228.8,39.1,229.1,39.2,229.4,39.2L229.4,39.2L229.4,39.2
				c-0.3-0.1-0.5-0.2-0.5-0.5v-2.6h0.8c0.3,0,0.4,0.3,0.4,0.4h0.1c0-0.1,0-0.2,0-0.4c0-0.1,0-0.2,0-0.4h-0.1c0,0.1-0.2,0.1-0.3,0.1
				h-2.5l0,0c-0.1,0-0.2,0-0.3-0.1h-0.1c0,0.1,0,0.3,0,0.4c0,0.1,0,0.3-0.1,0.4h0.1c0.1-0.3,0.1-0.4,0.5-0.4l0,0l0,0
				c-0.4,0-0.3,0.1-0.4,0.4l0,0l0,0h-0.2l0,0c0-0.1,0-0.3,0.1-0.4c0-0.1,0-0.3,0-0.4l0,0l0,0h0.2l0,0c0,0.1,0.1,0.1,0.2,0.1l0,0h2.5
				c0.1,0,0.2,0,0.2-0.1l0,0l0,0h0.1l0,0c0,0.1,0,0.3-0.1,0.4c0,0.1,0,0.3,0,0.4l0,0l0,0l-0.2,0.1l0,0c0-0.2,0-0.4-0.3-0.4h-0.8v2.5
				c0,0.4,0.1,0.4,0.4,0.4h0.1l0,0L229.4,39.2L229.4,39.2z"/>
			<path class="st1" d="M230.4,39L230.4,39c0.2,0,0.4,0,0.4-0.3v-2.5c0-0.2-0.2-0.3-0.4-0.3h-0.1v-0.1c0.2,0,0.5,0,0.7,0
				s0.5,0,0.7,0V36h-0.1c-0.2,0-0.4,0-0.4,0.3v2.5c0,0.2,0.2,0.3,0.4,0.3h0.1v0.1c-0.2,0-0.5,0-0.8,0c-0.2,0-0.5,0-0.7,0V39H230.4z"
				/>
			<path class="st1" d="M231.8,39.2L231.8,39.2L231.8,39.2c-0.2-0.1-0.4-0.1-0.4-0.4v-2.5c0-0.3,0.2-0.3,0.4-0.3l0,0v-0.1
				c-0.2,0-0.5,0-0.7,0c-0.2,0-0.5,0-0.7,0V36l0,0c0.2,0,0.4,0,0.4,0.3v2.5c0,0.3-0.2,0.3-0.4,0.3l0,0v0.1c0.2,0,0.5,0,0.7,0
				C231.3,39.1,231.6,39.2,231.8,39.2 M231.8,39.2c-0.2,0-0.5,0-0.8,0c-0.2,0-0.5,0-0.7,0l0,0l0,0V39l0,0l0,0h0.1
				c0.2,0,0.3,0,0.3-0.3v-2.5c0-0.2-0.2-0.2-0.3-0.3h-0.1l0,0v-0.2l0,0c0.2,0,0.5,0,0.7,0s0.5,0,0.7,0l0,0l0,0V36l0,0h-0.1
				c-0.2,0-0.3,0-0.3,0.3v2.5c0,0.2,0.2,0.2,0.3,0.3h0.1l0,0L231.8,39.2L231.8,39.2z"/>
			<path class="st1" d="M233.8,39c0.9,0,1.1-0.8,1.1-1.5s-0.4-1.5-1.2-1.5s-1.1,0.7-1.1,1.4C232.6,38.2,233,39,233.8,39 M233.7,35.8
				c1,0,1.8,0.6,1.8,1.6c0,1.1-0.8,1.8-1.8,1.8s-1.8-0.7-1.8-1.7C232,36.5,232.7,35.8,233.7,35.8"/>
			<path class="st1" d="M232.6,37.4c0-0.6,0.3-1.4,1.1-1.4s1.2,0.9,1.2,1.6c0,0.7-0.2,1.5-1.1,1.5l0,0l0,0c0.9,0,1.1-0.8,1.1-1.5
				s-0.4-1.5-1.1-1.5C232.9,36,232.7,36.7,232.6,37.4c0,0.8,0.4,1.6,1.2,1.6l0,0l0,0C233,39.1,232.6,38.2,232.6,37.4 M232,37.5
				c0-1,0.8-1.8,1.8-1.8l0,0l0,0C232.7,35.8,232,36.6,232,37.5c0,1,0.8,1.7,1.8,1.7s1.8-0.7,1.8-1.8c0-1-0.8-1.6-1.8-1.6l0,0l0,0
				c1,0,1.8,0.6,1.8,1.7c0,1.1-0.8,1.8-1.8,1.8C232.7,39.3,232,38.6,232,37.5"/>
			<path class="st1" d="M238.8,38.2L238.8,38.2v-1.8c0-0.4-0.3-0.4-0.4-0.4h-0.1v-0.1c0.2,0,0.4,0,0.7,0c0.2,0,0.4,0,0.6,0V36h-0.1
				c-0.2,0-0.4,0-0.4,0.6v2.2c0,0.2,0,0.3,0,0.5h-0.2l-2.5-2.7v2c0,0.4,0.1,0.6,0.4,0.6h0.1v0.1c-0.2,0-0.4,0-0.6,0s-0.4,0-0.6,0V39
				h0.1c0.3,0,0.4-0.2,0.4-0.6v-2c0-0.3-0.2-0.4-0.4-0.4h-0.1v-0.1c0.2,0,0.4,0,0.5,0c0.1,0,0.3,0,0.4,0L238.8,38.2z"/>
			<path class="st1" d="M238.7,38.2L238.7,38.2L238.7,38.2L238.7,38.2z M238.8,38.2L238.8,38.2L238.8,38.2z M238.9,39.2h0.2
				c0-0.1,0-0.3,0-0.5v-2.2c0-0.6,0.2-0.6,0.4-0.6h0.1v-0.1c-0.2,0-0.4,0-0.6,0s-0.4,0-0.6,0V36h0.1c0.1,0,0.4,0.1,0.4,0.5v1.8l0,0
				l0,0l-2.1-2.4c-0.1,0-0.3,0-0.4,0c-0.2,0-0.4,0-0.5,0V36l0,0c0.2,0,0.5,0.2,0.5,0.4v2c0,0.4-0.1,0.6-0.4,0.6l0,0v0.1
				c0.2,0,0.4,0,0.6,0s0.4,0,0.6,0V39h-0.1c-0.4,0-0.5-0.2-0.5-0.6v-2L238.9,39.2z M239,39.3h-0.2l-2.4-2.7v1.9
				c0,0.4,0.1,0.5,0.4,0.5h0.1l0,0v0.2l0,0c-0.2,0-0.4,0-0.6,0s-0.4,0-0.6,0l0,0l0,0V39l0,0h0.1c0.3,0,0.4-0.2,0.4-0.6v-2
				c0-0.3-0.2-0.4-0.4-0.4h-0.1l0,0v-0.2l0,0c0.2,0,0.4,0,0.5,0c0.1,0,0.3,0,0.4,0l2.1,2.4v-1.7c0-0.4-0.3-0.4-0.4-0.4h-0.1l0,0
				v-0.2l0,0c0.2,0,0.4,0,0.7,0c0.2,0,0.4,0,0.6,0l0,0l0,0V36l0,0h-0.1c-0.2,0-0.4,0-0.4,0.6v2.2C239,38.9,239,39.1,239,39.3
				L239,39.3L239,39.3z"/>
			<path class="st1" d="M241,36.4L241,36.4l-0.5,1.3h0.9L241,36.4z M240.3,38.5c0,0.2-0.1,0.3-0.1,0.4c0,0.1,0.2,0.2,0.4,0.2h0.1
				v0.1c-0.2,0-0.4,0-0.6,0s-0.3,0-0.5,0V39l0,0c0.2,0,0.3-0.1,0.4-0.3l0.8-2.2c0.1-0.2,0.1-0.4,0.2-0.6c0.2-0.1,0.3-0.1,0.4-0.2
				l0,0l0,0v0.1l0.9,2.5c0.1,0.2,0.1,0.3,0.2,0.5c0.1,0.1,0.2,0.2,0.3,0.2l0,0v0.1c-0.2,0-0.4,0-0.7,0c-0.2,0-0.5,0-0.7,0V39h0.1
				c0.1,0,0.3,0,0.3-0.1s0-0.2-0.1-0.3l-0.2-0.6h-1.1L240.3,38.5z"/>
			<path class="st1" d="M240.9,36.4L240.9,36.4L240.9,36.4z M240.5,37.7h0.8l-0.4-1.3L240.5,37.7z M240.5,37.8l0.5-1.4l0,0l0,0l0,0
				l0,0l0,0l0,0l0,0l0.5,1.4H240.5z M241.4,39.2c0.2,0,0.5,0,0.7,0c0.2,0,0.4,0,0.6,0v-0.1l0,0c-0.2,0-0.3-0.1-0.3-0.2
				c-0.1-0.1-0.1-0.3-0.2-0.5l-0.9-2.5v-0.1l0,0l0,0l0,0c-0.1,0.1-0.3,0.2-0.4,0.2c0,0.2-0.1,0.4-0.2,0.6l-0.8,2.2
				c-0.1,0.2-0.2,0.3-0.4,0.3l0,0v0.1c0.2,0,0.3,0,0.5,0c0.2,0,0.4,0,0.6,0v-0.1l0,0c-0.2,0-0.4,0-0.4-0.2c0-0.1,0.1-0.2,0.1-0.4
				l0,0l0,0l0.2-0.5h1.1l0.2,0.6c0.1,0.2,0.1,0.3,0.1,0.4c0,0.1-0.2,0.2-0.3,0.2l0,0l0,0H241.4z M242.8,39.2c-0.2,0-0.4,0-0.7,0
				c-0.2,0-0.5,0-0.7,0l0,0l0,0V39l0,0h0.1c0.1,0,0.3,0,0.3-0.1s0-0.2-0.1-0.3l-0.2-0.6h-1.1l-0.1,0.5c0,0.2-0.1,0.3-0.1,0.4
				c0,0.1,0.2,0.1,0.3,0.1h0.1l0,0v0.2l0,0c-0.2,0-0.4,0-0.6,0s-0.3,0-0.5,0l0,0l0,0V39l0,0l0,0c0.2,0,0.3-0.1,0.4-0.3l0.8-2.2
				c0.1-0.2,0.1-0.4,0.2-0.6c0.2-0.1,0.3-0.1,0.4-0.2l0,0c0,0,0,0,0.1,0v0.1l0.9,2.5c0.1,0.2,0.1,0.3,0.2,0.5
				c0.1,0.1,0.1,0.2,0.3,0.2h0.1l0,0L242.8,39.2L242.8,39.2z"/>
			<path class="st1" d="M244,38.7c0,0.2,0.1,0.2,0.3,0.3c0.2,0,0.4,0,0.6,0c0.2,0,0.4-0.1,0.5-0.3c0.1-0.1,0.1-0.2,0.1-0.3h0.1
				c-0.1,0.3-0.1,0.5-0.2,0.8c-0.4,0-0.8,0-1.3,0c-0.4,0-0.8,0-1.3,0V39h0.1c0.2,0,0.4,0,0.4-0.3v-2.4c0-0.2-0.2-0.3-0.4-0.3h-0.1
				v-0.1c0.3,0,0.5,0,0.8,0c0.2,0,0.5,0,0.7,0V36h-0.1c-0.2,0-0.3,0-0.3,0.3v2.4H244z"/>
			<path class="st1" d="M245.5,39.2c0.1-0.3,0.1-0.5,0.2-0.8h-0.1c0,0.1-0.1,0.2-0.1,0.3c-0.2,0.1-0.4,0.3-0.6,0.3
				c-0.1,0-0.2,0-0.4,0c-0.1,0-0.2,0-0.3,0c-0.2,0-0.3-0.1-0.3-0.3v-2.5c0-0.3,0.2-0.3,0.3-0.3h0.1v-0.1c-0.2,0-0.5,0-0.7,0
				c-0.2,0-0.5,0-0.7,0V36l0,0c0.2,0,0.4,0,0.4,0.3v2.4c0,0.3-0.2,0.3-0.4,0.3l0,0v0.1c0.4,0,0.8,0,1.2,0
				C244.5,39.1,245,39.2,245.5,39.2 M245.5,39.2c-0.4,0-0.8,0-1.3,0c-0.4,0-0.8,0-1.3,0l0,0l0,0V39l0,0h0.1c0.2,0,0.3,0,0.3-0.3
				v-2.4c0-0.2-0.2-0.2-0.3-0.3h-0.1l0,0v-0.2l0,0c0.3,0,0.5,0,0.8,0c0.2,0,0.5,0,0.7,0l0,0l0,0V36l0,0h-0.1c-0.2,0-0.3,0-0.3,0.2
				v2.5c0,0.2,0.1,0.2,0.3,0.2c0.1,0,0.2,0,0.3,0c0.1,0,0.2,0,0.4,0c0.2,0,0.4-0.1,0.4-0.2c0.1-0.1,0.1-0.2,0.1-0.3l0,0l0,0h0.2l0,0
				C245.6,38.6,245.6,38.9,245.5,39.2L245.5,39.2L245.5,39.2z"/>
		</g>
	</g>
</g>
<g>
	<path class="st2" d="M172.7,47.3c0,1.5-1.2,2.7-2.7,2.7H95.2c-1.5,0-2.7-1.2-2.7-2.7V2.7c0-1.5,1.2-2.7,2.7-2.7h74.9
		c1.5,0,2.7,1.2,2.7,2.7L172.7,47.3L172.7,47.3z"/>
	<g>
		<polygon class="st3" points="142.2,39.3 143,39.3 143.7,39.3 144.4,39.2 145.1,39 145.8,38.9 146.5,38.7 147.2,38.4 147.9,38.2 
			148.5,37.9 149.1,37.6 149.7,37.2 150.3,36.9 150.9,36.5 151.4,36 151.9,35.6 152.4,35.1 152.9,34.6 153.4,34.1 153.8,33.5 
			154.2,33 154.6,32.4 154.9,31.8 155.2,31.2 155.5,30.5 155.8,29.9 156,29.2 156.2,28.5 156.4,27.8 156.5,27.1 156.6,26.4 
			156.6,25.6 156.7,24.9 156.6,24.2 156.6,23.4 156.5,22.7 156.4,22 156.2,21.3 156,20.6 155.8,20 155.5,19.3 155.2,18.7 
			154.9,18.1 154.6,17.5 154.2,16.9 153.8,16.3 153.4,15.8 152.9,15.3 152.4,14.8 151.9,14.3 151.4,13.8 150.9,13.4 150.3,13 
			149.7,12.6 149.1,12.3 148.5,12 147.9,11.7 147.2,11.4 146.5,11.2 145.8,11 145.1,10.8 144.4,10.7 143.7,10.6 143,10.6 
			142.2,10.5 141.5,10.6 140.8,10.6 140.1,10.7 139.3,10.8 138.6,11 138,11.2 137.3,11.4 136.6,11.7 136,12 135.4,12.3 134.8,12.6 
			134.2,13 133.6,13.4 133.1,13.8 132.6,14.3 132.1,14.8 131.6,15.3 131.2,15.8 130.7,16.3 130.3,16.9 130,17.5 129.6,18.1 
			129.3,18.7 129,19.3 128.7,20 128.5,20.6 128.3,21.3 128.2,22 128,22.7 127.9,23.4 127.9,24.2 127.9,24.9 127.9,25.6 127.9,26.4 
			128,27.1 128.2,27.8 128.3,28.5 128.5,29.2 128.7,29.9 129,30.5 129.3,31.2 129.6,31.8 130,32.4 130.3,33 130.7,33.5 131.2,34.1 
			131.6,34.6 132.1,35.1 132.6,35.6 133.1,36 133.6,36.5 134.2,36.9 134.8,37.2 135.4,37.6 136,37.9 136.6,38.2 137.3,38.4 
			138,38.7 138.6,38.9 139.3,39 140.1,39.2 140.8,39.3 141.5,39.3 142.2,39.3 		"/>
		<polygon class="st4" points="123,39.3 123.7,39.3 124.5,39.3 125.2,39.2 125.9,39 126.6,38.9 127.3,38.7 127.9,38.4 128.6,38.2 
			129.2,37.9 129.8,37.6 130.4,37.2 131,36.9 131.6,36.5 132.1,36 132.6,35.6 133.1,35.1 133.6,34.6 134.1,34.1 134.5,33.5 
			134.9,33 135.3,32.4 135.6,31.8 135.9,31.2 136.2,30.5 136.5,29.9 136.7,29.2 136.9,28.5 137.1,27.8 137.2,27.1 137.3,26.4 
			137.3,25.6 137.3,24.9 137.3,24.2 137.3,23.4 137.2,22.7 137.1,22 136.9,21.3 136.7,20.6 136.5,20 136.2,19.3 135.9,18.7 
			135.6,18.1 135.3,17.5 134.9,16.9 134.5,16.3 134.1,15.8 133.6,15.3 133.1,14.8 132.6,14.3 132.1,13.8 131.6,13.4 131,13 
			130.4,12.6 129.8,12.3 129.2,12 128.6,11.7 127.9,11.4 127.3,11.2 126.6,11 125.9,10.8 125.2,10.7 124.5,10.6 123.7,10.6 
			123,10.5 122.2,10.6 121.5,10.6 120.8,10.7 120.1,10.8 119.4,11 118.7,11.2 118,11.4 117.4,11.7 116.7,12 116.1,12.3 115.5,12.6 
			114.9,13 114.4,13.4 113.8,13.8 113.3,14.3 112.8,14.8 112.3,15.3 111.9,15.8 111.4,16.3 111,16.9 110.7,17.5 110.3,18.1 
			110,18.7 109.7,19.3 109.4,20 109.2,20.6 109,21.3 108.9,22 108.7,22.7 108.6,23.4 108.6,24.2 108.6,24.9 108.6,25.6 108.6,26.4 
			108.7,27.1 108.9,27.8 109,28.5 109.2,29.2 109.4,29.9 109.7,30.5 110,31.2 110.3,31.8 110.7,32.4 111,33 111.4,33.5 111.9,34.1 
			112.3,34.6 112.8,35.1 113.3,35.6 113.8,36 114.4,36.5 114.9,36.9 115.5,37.2 116.1,37.6 116.7,37.9 117.4,38.2 118,38.4 
			118.7,38.7 119.4,38.9 120.1,39 120.8,39.2 121.5,39.3 122.2,39.3 123,39.3 		"/>
		<polygon class="st3" points="130.9,16.1 138.6,16.1 138.6,15.3 131.6,15.3 130.9,16.1 		"/>
		<polygon class="st3" points="129.8,17.8 138.6,17.8 138.6,17 130.2,17 129.8,17.8 		"/>
		<polygon class="st3" points="128.9,19.5 138.6,19.5 138.6,18.7 129.3,18.7 128.9,19.5 		"/>
		<polygon class="st3" points="128.3,21.3 138.6,21.3 138.6,20.5 128.6,20.5 128.3,21.3 		"/>
		<polygon class="st3" points="128.7,29.7 138.6,29.7 138.6,28.9 128.4,28.9 128.7,29.7 		"/>
		<polygon class="st3" points="129.4,31.4 138.6,31.4 138.6,30.6 129,30.6 129.4,31.4 		"/>
		<polygon class="st3" points="130.4,33.1 138.6,33.1 138.6,32.4 130,32.4 130.4,33.1 		"/>
		<polygon class="st3" points="131.9,34.9 138.6,34.9 138.6,34.1 131.2,34.1 131.9,34.9 		"/>
		<polygon class="st3" points="128,23 138.6,23 138.6,22.2 128.1,22.2 128,23 		"/>
		<polygon class="st3" points="134.4,27.9 138.5,27.9 138.5,27.2 134.6,27.2 134.4,27.9 		"/>
		<polygon class="st3" points="134.8,26.2 138.5,26.2 138.5,25.4 134.9,25.4 134.8,26.2 		"/>
		<polygon class="st3" points="127.7,25.4 128.8,25.4 128.8,26.2 127.8,26.2 127.7,25.4 		"/>
		<polygon class="st5" points="125.8,24.5 125.7,24.5 125.6,24.5 125.6,24.4 125.5,24.4 125.5,24.4 125.4,24.4 125.3,24.4 
			125.3,24.4 125.2,24.4 125.1,24.4 125,24.4 124.9,24.4 124.8,24.4 124.7,24.4 124.6,24.4 124.5,24.4 124.4,24.4 124.3,24.4 
			124.2,24.5 124.1,24.5 124,24.5 124,24.6 123.9,24.6 123.9,24.6 123.9,24.7 123.8,24.8 123.8,24.8 123.8,24.9 123.8,24.9 
			123.9,25 123.9,25.1 123.9,25.1 124,25.2 124.2,25.3 124.3,25.3 124.4,25.4 124.6,25.5 124.8,25.5 124.9,25.6 125.1,25.6 
			125.2,25.7 125.3,25.8 125.5,25.9 125.6,26.1 125.6,26.3 125.7,26.5 125.7,26.7 125.7,27.1 125.7,27.3 125.6,27.5 125.5,27.7 
			125.4,27.8 125.3,28 125.2,28.1 125.1,28.2 124.9,28.3 124.8,28.4 124.6,28.4 124.4,28.5 124.3,28.5 124.1,28.5 123.9,28.6 
			123.8,28.6 123.6,28.6 123.4,28.6 123.2,28.6 123,28.6 122.9,28.6 122.7,28.6 122.6,28.5 122.5,28.5 122.4,28.5 122.3,28.5 
			122.2,28.5 122.1,28.5 122,28.5 121.9,28.4 121.9,28.4 121.8,28.4 121.7,28.3 121.9,27.3 122,27.3 122,27.3 122.1,27.3 
			122.2,27.3 122.2,27.4 122.3,27.4 122.5,27.4 122.6,27.4 122.7,27.4 122.8,27.5 122.9,27.5 123.1,27.5 123.2,27.5 123.4,27.5 
			123.5,27.5 123.6,27.5 123.8,27.5 123.9,27.4 124,27.4 124.1,27.3 124.1,27.2 124.1,27.2 124.2,27.1 124.2,27 124.2,26.9 
			124.1,26.7 124.1,26.6 123.9,26.6 123.8,26.5 123.6,26.4 123.4,26.3 123.3,26.3 123.1,26.2 122.9,26.1 122.7,26 122.5,25.8 
			122.4,25.6 122.3,25.4 122.3,25.1 122.3,24.8 122.3,24.6 122.4,24.5 122.4,24.3 122.5,24.1 122.5,24 122.6,23.9 122.7,23.7 
			122.9,23.6 123,23.5 123.1,23.5 123.3,23.4 123.5,23.3 123.7,23.3 124,23.3 124.2,23.2 124.5,23.2 124.7,23.2 124.9,23.2 
			125,23.3 125.2,23.3 125.3,23.3 125.4,23.3 125.5,23.3 125.6,23.3 125.7,23.3 125.7,23.3 125.8,23.3 125.8,23.3 125.9,23.3 
			125.9,23.4 126,23.4 126,23.4 125.8,24.5 		"/>
		<polyline class="st6" points="125.8,24.5 125.8,24.5 125.7,24.5 125.6,24.5 125.6,24.4 125.5,24.4 125.5,24.4 125.4,24.4 
			125.3,24.4 125.3,24.4 125.2,24.4 125.1,24.4 125,24.4 124.9,24.4 124.8,24.4 124.7,24.4 124.6,24.4 124.5,24.4 124.5,24.4 
			124.4,24.4 124.3,24.4 124.2,24.5 124.1,24.5 124,24.5 124,24.6 123.9,24.6 123.9,24.6 123.9,24.7 123.8,24.8 123.8,24.8 
			123.8,24.9 123.8,24.9 123.9,25 123.9,25.1 123.9,25.1 123.9,25.1 124,25.2 124.2,25.3 124.3,25.3 124.4,25.4 124.6,25.5 
			124.8,25.5 124.9,25.6 125.1,25.6 125.2,25.7 125.3,25.8 125.5,25.9 125.6,26.1 125.6,26.3 125.7,26.5 125.7,26.7 125.7,27.1 
			125.7,27.1 125.7,27.3 125.6,27.5 125.5,27.7 125.4,27.8 125.3,28 125.2,28.1 125.1,28.2 124.9,28.3 124.8,28.4 124.6,28.4 
			124.4,28.5 124.3,28.5 124.1,28.5 123.9,28.6 123.8,28.6 123.6,28.6 123.6,28.6 123.4,28.6 123.2,28.6 123,28.6 122.9,28.6 
			122.7,28.6 122.6,28.5 122.5,28.5 122.4,28.5 122.3,28.5 122.2,28.5 122.1,28.5 122,28.5 121.9,28.4 121.9,28.4 121.8,28.4 
			121.7,28.3 121.9,27.3 121.9,27.3 122,27.3 122,27.3 122.1,27.3 122.2,27.3 122.2,27.4 122.3,27.4 122.5,27.4 122.6,27.4 
			122.7,27.4 122.8,27.5 122.9,27.5 123.1,27.5 123.2,27.5 123.4,27.5 123.5,27.5 123.6,27.5 123.6,27.5 123.8,27.5 123.9,27.4 
			124,27.4 124.1,27.3 124.1,27.2 124.1,27.2 124.2,27.1 124.2,27 124.2,27 124.2,26.9 124.1,26.7 124.1,26.6 123.9,26.6 
			123.8,26.5 123.6,26.4 123.4,26.3 123.3,26.3 123.1,26.2 122.9,26.1 122.7,26 122.5,25.8 122.4,25.6 122.3,25.4 122.3,25.1 
			122.3,24.8 122.3,24.8 122.3,24.6 122.4,24.5 122.4,24.3 122.5,24.1 122.5,24 122.6,23.9 122.7,23.7 122.9,23.6 123,23.5 
			123.1,23.5 123.3,23.4 123.5,23.3 123.7,23.3 124,23.3 124.2,23.2 124.5,23.2 124.5,23.2 124.7,23.2 124.9,23.2 125,23.3 
			125.2,23.3 125.3,23.3 125.4,23.3 125.5,23.3 125.6,23.3 125.7,23.3 125.7,23.3 125.8,23.3 125.8,23.3 125.9,23.3 125.9,23.4 
			126,23.4 126,23.4 125.8,24.5 		"/>
		<polygon class="st5" points="126.9,22.2 128.3,22.2 128.1,23.3 128.9,23.3 128.7,24.4 127.8,24.4 127.4,27.1 127.4,27.2 
			127.4,27.3 127.5,27.4 127.5,27.4 127.6,27.5 127.7,27.5 127.8,27.5 127.9,27.5 128,27.5 128.1,27.5 128.2,27.5 128.3,27.5 
			128.4,27.4 128.4,27.4 128.4,27.4 128.4,27.4 128.3,28.3 128.2,28.3 128.2,28.4 128.2,28.4 128.1,28.4 128.1,28.4 128.1,28.4 
			128,28.4 128,28.5 127.9,28.5 127.9,28.5 127.8,28.5 127.8,28.5 127.7,28.5 127.6,28.5 127.5,28.5 127.5,28.5 127.1,28.5 
			126.9,28.5 126.7,28.5 126.6,28.5 126.4,28.4 126.3,28.4 126.2,28.4 126.2,28.3 126.1,28.2 126,28.2 126,28.1 126,28 126,27.9 
			126,27.8 126,27.7 126,27.6 126,27.5 126.9,22.2 		"/>
		<polyline class="st6" points="126.9,22.2 128.3,22.2 128.1,23.3 128.9,23.3 128.7,24.4 127.8,24.4 127.4,27.1 127.4,27.1 
			127.4,27.2 127.4,27.3 127.5,27.4 127.5,27.4 127.6,27.5 127.7,27.5 127.8,27.5 127.9,27.5 127.9,27.5 128,27.5 128.1,27.5 
			128.2,27.5 128.3,27.5 128.4,27.4 128.4,27.4 128.4,27.4 128.4,27.4 128.3,28.3 128.3,28.3 128.2,28.3 128.2,28.4 128.2,28.4 
			128.1,28.4 128.1,28.4 128.1,28.4 128,28.4 128,28.5 127.9,28.5 127.9,28.5 127.8,28.5 127.8,28.5 127.7,28.5 127.6,28.5 
			127.5,28.5 127.5,28.5 127.1,28.5 127.1,28.5 126.9,28.5 126.7,28.5 126.6,28.5 126.4,28.4 126.3,28.4 126.2,28.4 126.2,28.3 
			126.1,28.2 126,28.2 126,28.1 126,28 126,27.9 126,27.8 126,27.7 126,27.6 126,27.5 126.9,22.2 		"/>
		<polyline class="st6" points="130,26.3 130,26.3 129.9,26.4 129.9,26.4 129.9,26.5 130,26.6 130,26.7 130,26.8 130.1,26.9 
			130.1,27 130.2,27.1 130.3,27.1 130.4,27.2 130.5,27.3 130.5,27.3 130.6,27.4 130.7,27.4 130.8,27.4 130.8,27.4 131,27.4 
			131.1,27.5 131.2,27.5 131.3,27.5 131.5,27.5 131.6,27.5 131.7,27.5 131.8,27.5 132,27.4 132.1,27.4 132.2,27.4 132.4,27.4 
			132.5,27.3 132.7,27.2 132.8,27.2 132.9,27.1 132.7,28.3 132.7,28.3 132.7,28.3 132.6,28.4 132.5,28.4 132.4,28.4 132.4,28.4 
			132.3,28.5 132.2,28.5 132.1,28.5 132,28.5 131.9,28.5 131.8,28.5 131.7,28.5 131.6,28.5 131.5,28.5 131.3,28.5 131.2,28.5 
			131.2,28.5 130.9,28.5 130.7,28.5 130.4,28.5 130.2,28.4 129.9,28.4 129.7,28.3 129.5,28.1 129.3,28 129.1,27.8 128.9,27.6 
			128.8,27.4 128.7,27.2 128.6,26.9 128.5,26.5 128.5,26.2 128.6,25.8 128.6,25.8 128.6,25.6 128.6,25.4 128.6,25.3 128.7,25.1 
			128.8,24.8 128.9,24.6 129,24.4 129.1,24.2 129.3,24 129.5,23.8 129.7,23.7 129.9,23.5 130.2,23.4 130.5,23.3 130.9,23.3 
			131.2,23.2 131.2,23.2 131.4,23.2 131.6,23.3 131.8,23.3 132,23.3 132.2,23.4 132.4,23.5 132.6,23.6 132.8,23.8 132.9,23.9 
			133,24.1 133.1,24.3 133.2,24.6 133.2,24.9 133.2,25.2 133.2,25.6 133.1,26 133.1,26.3 129.6,26.3 129.8,25.3 131.9,25.3 
			131.9,25.3 131.9,25.2 131.9,25.1 131.9,25 131.9,24.9 131.8,24.8 131.8,24.7 131.8,24.7 131.7,24.6 131.7,24.5 131.6,24.5 
			131.5,24.4 131.5,24.4 131.4,24.4 131.3,24.3 131.2,24.3 131.1,24.3 131.1,24.3 131,24.3 130.9,24.3 130.9,24.4 130.8,24.4 
			130.7,24.4 130.6,24.5 130.6,24.5 130.5,24.6 130.4,24.7 130.4,24.7 130.3,24.8 130.3,24.9 130.2,25 130.2,25.1 130.2,25.2 
			130.1,25.3 130,26.3 		"/>
		<polygon class="st5" points="141.5,23.6 141.5,23.6 141.4,23.6 141.3,23.5 141.3,23.5 141.2,23.5 141.1,23.4 141,23.4 140.9,23.4 
			140.8,23.4 140.8,23.3 140.7,23.3 140.6,23.3 140.4,23.3 140.3,23.3 140.2,23.3 140.1,23.3 140,23.3 139.8,23.3 139.7,23.3 
			139.6,23.3 139.4,23.4 139.3,23.4 139.2,23.5 139,23.6 138.9,23.7 138.8,23.8 138.7,24 138.5,24.2 138.4,24.4 138.3,24.6 
			138.2,24.9 138.2,25.2 138.1,25.4 138.1,25.5 138.1,25.7 138.1,25.9 138.1,26 138.2,26.2 138.2,26.3 138.2,26.5 138.3,26.6 
			138.4,26.7 138.5,26.9 138.6,27 138.8,27 138.9,27.1 139.1,27.2 139.3,27.2 139.3,27.2 139.4,27.3 139.5,27.3 139.6,27.3 
			139.7,27.3 139.8,27.3 139.9,27.3 140,27.3 140.2,27.3 140.3,27.2 140.4,27.2 140.5,27.2 140.7,27.1 140.8,27 140.9,27 141,26.9 
			140.7,28.2 140.7,28.2 140.7,28.2 140.7,28.3 140.6,28.3 140.6,28.3 140.5,28.4 140.4,28.4 140.3,28.4 140.2,28.5 140.1,28.5 
			139.9,28.5 139.8,28.5 139.6,28.5 139.4,28.5 139.1,28.5 138.8,28.5 138.6,28.5 138.4,28.4 138.2,28.4 137.9,28.3 137.7,28.2 
			137.5,28 137.3,27.8 137.2,27.7 137,27.4 136.9,27.2 136.7,26.9 136.7,26.6 136.6,26.3 136.6,26 136.6,25.6 136.6,25.2 136.7,25 
			136.7,24.8 136.8,24.6 136.8,24.4 136.9,24.2 136.9,24.1 137,23.9 137.1,23.8 137.1,23.6 137.2,23.5 137.3,23.3 137.4,23.2 
			137.5,23.1 137.6,23 137.7,22.9 137.8,22.8 137.9,22.7 138,22.6 138.1,22.5 138.2,22.4 138.4,22.3 138.5,22.3 138.6,22.2 
			138.8,22.2 138.9,22.1 139.1,22.1 139.2,22 139.4,22 139.6,22 139.7,22 139.9,22 140.1,22 140.2,22 140.4,22 140.5,22 140.7,22 
			140.8,22 141,22 141.1,22.1 141.2,22.1 141.3,22.1 141.4,22.2 141.5,22.2 141.6,22.2 141.6,22.2 141.7,22.3 141.7,22.3 
			141.8,22.3 141.5,23.6 		"/>
		<polyline class="st6" points="141.5,23.6 141.5,23.6 141.5,23.6 141.4,23.6 141.3,23.5 141.3,23.5 141.2,23.5 141.1,23.4 
			141,23.4 140.9,23.4 140.8,23.4 140.8,23.3 140.7,23.3 140.6,23.3 140.4,23.3 140.3,23.3 140.2,23.3 140.1,23.3 140.1,23.3 
			140,23.3 139.8,23.3 139.7,23.3 139.6,23.3 139.4,23.4 139.3,23.4 139.2,23.5 139,23.6 138.9,23.7 138.8,23.8 138.7,24 
			138.5,24.2 138.4,24.4 138.3,24.6 138.2,24.9 138.2,25.2 138.2,25.2 138.1,25.4 138.1,25.5 138.1,25.7 138.1,25.9 138.1,26 
			138.2,26.2 138.2,26.3 138.2,26.5 138.3,26.6 138.4,26.7 138.5,26.9 138.6,27 138.8,27 138.9,27.1 139.1,27.2 139.3,27.2 
			139.3,27.2 139.3,27.2 139.4,27.3 139.5,27.3 139.6,27.3 139.7,27.3 139.8,27.3 139.9,27.3 140,27.3 140.2,27.3 140.3,27.2 
			140.4,27.2 140.5,27.2 140.7,27.1 140.8,27 140.9,27 141,26.9 140.7,28.2 140.7,28.2 140.7,28.2 140.7,28.2 140.7,28.3 
			140.6,28.3 140.6,28.3 140.5,28.4 140.4,28.4 140.3,28.4 140.2,28.5 140.1,28.5 139.9,28.5 139.8,28.5 139.6,28.5 139.4,28.5 
			139.1,28.5 138.8,28.5 138.8,28.5 138.6,28.5 138.4,28.4 138.2,28.4 137.9,28.3 137.7,28.2 137.5,28 137.3,27.8 137.2,27.7 
			137,27.4 136.9,27.2 136.7,26.9 136.7,26.6 136.6,26.3 136.6,26 136.6,25.6 136.6,25.2 136.6,25.2 136.7,25 136.7,24.8 
			136.8,24.6 136.8,24.4 136.9,24.2 136.9,24.1 137,23.9 137.1,23.8 137.1,23.6 137.2,23.5 137.3,23.3 137.4,23.2 137.5,23.1 
			137.6,23 137.7,22.9 137.8,22.8 137.9,22.7 138,22.6 138.1,22.5 138.2,22.4 138.4,22.3 138.5,22.3 138.6,22.2 138.8,22.2 
			138.9,22.1 139.1,22.1 139.2,22 139.4,22 139.6,22 139.7,22 139.9,22 140.1,22 140.1,22 140.2,22 140.4,22 140.5,22 140.7,22 
			140.8,22 141,22 141.1,22.1 141.2,22.1 141.3,22.1 141.4,22.2 141.5,22.2 141.6,22.2 141.6,22.2 141.7,22.3 141.7,22.3 
			141.8,22.3 141.5,23.6 		"/>
		<polygon class="st5" points="153.5,28.5 152.1,28.5 152.2,28 152.2,28 152.2,28.1 152.1,28.1 152,28.2 151.9,28.3 151.8,28.4 
			151.7,28.4 151.6,28.4 151.6,28.5 151.5,28.5 151.4,28.5 151.3,28.6 151.2,28.6 151.1,28.6 151,28.6 150.9,28.6 150.8,28.6 
			150.5,28.6 150.3,28.5 150.1,28.5 149.9,28.4 149.7,28.2 149.6,28 149.4,27.9 149.3,27.7 149.2,27.4 149.1,27.2 149.1,27 
			149.1,26.7 149,26.5 149,26.2 149.1,26 149.1,25.7 149.2,25.4 149.3,25.2 149.4,24.9 149.5,24.7 149.6,24.5 149.8,24.3 
			149.9,24.1 150.1,23.9 150.2,23.8 150.4,23.7 150.6,23.6 150.8,23.5 151,23.4 151.2,23.4 151.4,23.4 151.6,23.3 151.7,23.3 
			151.9,23.4 152,23.4 152.1,23.4 152.2,23.5 152.3,23.5 152.4,23.6 152.5,23.6 152.6,23.7 152.6,23.7 152.7,23.8 152.8,23.9 
			152.8,23.9 152.9,24 152.9,24 152.9,24.1 152.9,24.1 153.3,22.2 154.6,22.2 153.5,28.5 		"/>
		<polyline class="st6" points="153.5,28.5 152.1,28.5 152.2,28 152.2,28 152.2,28 152.2,28.1 152.1,28.1 152,28.2 151.9,28.3 
			151.8,28.4 151.7,28.4 151.6,28.4 151.6,28.5 151.5,28.5 151.4,28.5 151.3,28.6 151.2,28.6 151.1,28.6 151,28.6 150.9,28.6 
			150.8,28.6 150.8,28.6 150.5,28.6 150.3,28.5 150.1,28.5 149.9,28.4 149.7,28.2 149.6,28 149.4,27.9 149.3,27.7 149.2,27.4 
			149.1,27.2 149.1,27 149.1,26.7 149,26.5 149,26.2 149.1,26 149.1,25.7 149.1,25.7 149.2,25.4 149.3,25.2 149.4,24.9 149.5,24.7 
			149.6,24.5 149.8,24.3 149.9,24.1 150.1,23.9 150.2,23.8 150.4,23.7 150.6,23.6 150.8,23.5 151,23.4 151.2,23.4 151.4,23.4 
			151.6,23.3 151.6,23.3 151.7,23.3 151.9,23.4 152,23.4 152.1,23.4 152.2,23.5 152.3,23.5 152.4,23.6 152.5,23.6 152.6,23.7 
			152.6,23.7 152.7,23.8 152.8,23.9 152.8,23.9 152.9,24 152.9,24 152.9,24.1 152.9,24.1 153.3,22.2 154.6,22.2 153.5,28.5 		"/>
		<polygon class="st3" points="151.3,27.4 151.4,27.4 151.5,27.3 151.7,27.3 151.8,27.2 151.9,27.2 152,27.1 152.1,27 152.1,26.9 
			152.2,26.8 152.3,26.7 152.4,26.6 152.4,26.5 152.5,26.4 152.5,26.3 152.5,26.1 152.6,26 152.6,25.9 152.6,25.7 152.6,25.6 
			152.6,25.5 152.6,25.3 152.6,25.2 152.5,25.1 152.5,25 152.4,24.9 152.4,24.8 152.3,24.7 152.2,24.6 152.2,24.6 152.1,24.5 
			152,24.5 151.9,24.5 151.7,24.5 151.6,24.5 151.5,24.6 151.4,24.6 151.3,24.7 151.2,24.8 151.1,24.9 151,24.9 151,25.1 
			150.9,25.2 150.8,25.3 150.8,25.4 150.7,25.5 150.7,25.7 150.7,25.8 150.6,26 150.6,26.2 150.6,26.4 150.6,26.6 150.7,26.9 
			150.8,27.1 150.9,27.2 151.1,27.3 151.3,27.4 		"/>
		<polygon class="st5" points="121.5,27.5 121.3,28.5 120.1,28.5 120.1,28.3 120.1,28.2 120.1,28 120.1,28 120.1,28 120,28.1 
			119.9,28.2 119.8,28.3 119.7,28.3 119.6,28.4 119.4,28.4 119.3,28.5 119.2,28.5 119,28.6 118.9,28.6 118.7,28.6 118.6,28.6 
			118.5,28.6 118.3,28.6 118.2,28.6 118,28.5 117.9,28.5 117.7,28.4 117.6,28.4 117.5,28.3 117.4,28.2 117.3,28.1 117.3,28 
			117.2,27.9 117.2,27.8 117.1,27.7 117.1,27.6 117.1,27.5 117.1,27.4 117,27.3 117,27.2 117.1,27 117.1,26.8 117.1,26.6 
			117.2,26.4 117.3,26.3 117.4,26.2 117.5,26 117.6,25.9 117.7,25.8 117.8,25.7 118,25.6 118.1,25.5 118.3,25.4 118.4,25.4 
			118.6,25.3 118.8,25.3 118.8,25.3 118.8,25.3 118.8,25.3 118.9,25.3 119,25.3 119,25.3 119.1,25.3 119.2,25.3 119.3,25.3 
			119.3,25.2 119.4,25.2 119.5,25.2 119.6,25.2 119.7,25.2 119.7,25.2 119.8,25.2 119.9,25.2 120,25.2 120.1,25.2 120.2,25.2 
			120.3,25.2 120.4,25.2 120.4,25.2 120.4,25.2 120.5,25.2 120.5,25.1 120.5,25 120.5,24.9 120.5,24.8 120.5,24.7 120.4,24.6 
			120.3,24.6 120.2,24.5 120.1,24.5 120,24.4 119.9,24.4 119.7,24.4 119.6,24.4 119.4,24.4 119.3,24.4 119.1,24.4 119,24.4 
			118.8,24.5 118.7,24.5 118.5,24.5 118.4,24.5 118.3,24.5 118.1,24.6 118,24.6 118,24.6 117.9,24.7 117.8,24.7 118.2,23.5 
			118.3,23.5 118.4,23.4 118.5,23.4 118.6,23.4 118.7,23.3 118.9,23.3 119,23.3 119.1,23.3 119.3,23.3 119.4,23.3 119.5,23.3 
			119.7,23.3 119.8,23.3 120,23.3 120.2,23.3 120.3,23.3 120.5,23.3 120.6,23.3 120.8,23.4 120.9,23.4 121.1,23.5 121.2,23.5 
			121.4,23.6 121.5,23.7 121.6,23.8 121.7,23.9 121.8,24.1 121.9,24.2 122,24.4 122,24.5 122,24.7 122,24.9 121.5,27.5 		"/>
		<polyline class="st6" points="121.5,27.5 121.3,28.5 120.1,28.5 120.1,28.5 120.1,28.3 120.1,28.2 120.1,28 120.1,28 120.1,28 
			120.1,28 120,28.1 119.9,28.2 119.8,28.3 119.7,28.3 119.6,28.4 119.4,28.4 119.3,28.5 119.2,28.5 119,28.6 118.9,28.6 
			118.7,28.6 118.6,28.6 118.5,28.6 118.3,28.6 118.2,28.6 118.2,28.6 118,28.5 117.9,28.5 117.7,28.4 117.6,28.4 117.5,28.3 
			117.4,28.2 117.3,28.1 117.3,28 117.2,27.9 117.2,27.8 117.1,27.7 117.1,27.6 117.1,27.5 117.1,27.4 117,27.3 117,27.2 117,27.2 
			117.1,27 117.1,26.8 117.1,26.6 117.2,26.4 117.3,26.3 117.4,26.2 117.5,26 117.6,25.9 117.7,25.8 117.8,25.7 118,25.6 
			118.1,25.5 118.3,25.4 118.4,25.4 118.6,25.3 118.8,25.3 118.8,25.3 118.8,25.3 118.8,25.3 118.8,25.3 118.9,25.3 119,25.3 
			119,25.3 119.1,25.3 119.2,25.3 119.3,25.3 119.3,25.2 119.4,25.2 119.5,25.2 119.6,25.2 119.7,25.2 119.7,25.2 119.8,25.2 
			119.8,25.2 119.9,25.2 120,25.2 120.1,25.2 120.2,25.2 120.3,25.2 120.4,25.2 120.4,25.2 120.4,25.2 120.4,25.2 120.5,25.2 
			120.5,25.1 120.5,25 120.5,24.9 120.5,24.9 120.5,24.8 120.5,24.7 120.4,24.6 120.3,24.6 120.2,24.5 120.1,24.5 120,24.4 
			119.9,24.4 119.9,24.4 119.7,24.4 119.6,24.4 119.4,24.4 119.3,24.4 119.1,24.4 119,24.4 118.8,24.5 118.7,24.5 118.5,24.5 
			118.4,24.5 118.3,24.5 118.1,24.6 118,24.6 118,24.6 117.9,24.7 117.8,24.7 118.2,23.5 118.2,23.5 118.3,23.5 118.4,23.4 
			118.5,23.4 118.6,23.4 118.7,23.3 118.9,23.3 119,23.3 119.1,23.3 119.3,23.3 119.4,23.3 119.5,23.3 119.7,23.3 119.8,23.3 
			120,23.3 120.2,23.3 120.3,23.3 120.3,23.3 120.5,23.3 120.6,23.3 120.8,23.4 120.9,23.4 121.1,23.5 121.2,23.5 121.4,23.6 
			121.5,23.7 121.6,23.8 121.7,23.9 121.8,24.1 121.9,24.2 122,24.4 122,24.5 122,24.7 122,24.9 121.5,27.5 		"/>
		<polygon class="st4" points="120.3,26.2 120.3,26.2 120.3,26.2 120.2,26.1 120.2,26.1 120.1,26.1 120.1,26.1 120,26.1 119.9,26.1 
			119.9,26.1 119.8,26.1 119.7,26.1 119.6,26.1 119.5,26.2 119.5,26.2 119.4,26.2 119.4,26.2 119.3,26.2 119.3,26.2 119.2,26.2 
			119.2,26.3 119.1,26.3 119.1,26.3 119,26.4 118.9,26.4 118.9,26.5 118.8,26.5 118.7,26.6 118.7,26.6 118.6,26.7 118.6,26.7 
			118.6,26.8 118.6,26.9 118.6,27.1 118.6,27.2 118.6,27.3 118.7,27.4 118.8,27.4 118.8,27.4 118.9,27.5 119,27.5 119.1,27.5 
			119.3,27.4 119.4,27.4 119.5,27.4 119.6,27.4 119.7,27.3 119.8,27.3 119.9,27.2 119.9,27.2 120,27.1 120,27.1 120.1,27 
			120.1,26.9 120.1,26.9 120.2,26.8 120.2,26.8 120.2,26.6 120.2,26.5 120.3,26.3 120.3,26.2 		"/>
		<polygon class="st5" points="111.3,28.5 109.9,28.5 111,22.2 113.3,22.2 113.6,26 115.1,22.2 117.5,22.2 116.4,28.5 115.1,28.5 
			115.9,23.8 115.9,23.8 113.9,28.5 112.4,28.5 112.4,28.3 112.4,27.8 112.3,27.1 112.3,26.2 112.2,25.3 112.2,24.6 112.1,24 
			112.1,23.8 112.1,23.8 112.1,23.8 112.1,23.8 112.1,23.8 111.3,28.5 		"/>
		<polyline class="st6" points="111.3,28.5 109.9,28.5 111,22.2 113.3,22.2 113.6,26 115.1,22.2 117.5,22.2 116.4,28.5 115.1,28.5 
			115.9,23.8 115.9,23.8 113.9,28.5 112.4,28.5 112.4,28.5 112.4,28.3 112.4,27.8 112.3,27.1 112.3,26.2 112.2,25.3 112.2,24.6 
			112.1,24 112.1,23.8 112.1,23.8 112.1,23.8 112.1,23.8 112.1,23.8 112.1,23.8 111.3,28.5 		"/>
		<polygon class="st5" points="145.6,27.5 145.4,28.5 144.1,28.5 144.2,28.3 144.2,28.2 144.2,28 144.2,28 144.1,28.1 144,28.1 
			143.9,28.2 143.9,28.3 143.7,28.3 143.6,28.4 143.5,28.4 143.4,28.5 143.3,28.5 143.1,28.6 143,28.6 142.9,28.6 142.7,28.6 
			142.6,28.6 142.4,28.6 142.3,28.6 142.1,28.5 142,28.5 141.8,28.4 141.7,28.4 141.6,28.3 141.5,28.2 141.4,28.1 141.4,28 
			141.3,27.9 141.3,27.8 141.2,27.7 141.2,27.6 141.2,27.5 141.2,27.4 141.2,27.3 141.2,27.2 141.2,27 141.2,26.8 141.2,26.6 
			141.3,26.4 141.4,26.3 141.5,26.2 141.6,26 141.7,25.9 141.8,25.8 141.9,25.7 142.1,25.6 142.2,25.5 142.4,25.4 142.6,25.4 
			142.7,25.3 142.9,25.3 142.9,25.3 142.9,25.3 142.9,25.3 143,25.3 143.1,25.3 143.1,25.3 143.2,25.3 143.3,25.3 143.4,25.3 
			143.4,25.2 143.5,25.2 143.6,25.2 143.7,25.2 143.8,25.2 143.8,25.2 143.9,25.2 144,25.2 144.1,25.2 144.2,25.2 144.3,25.2 
			144.4,25.2 144.5,25.2 144.5,25.2 144.6,25.2 144.6,25.2 144.6,25.1 144.6,25 144.6,24.9 144.6,24.8 144.6,24.7 144.5,24.6 
			144.4,24.6 144.3,24.5 144.2,24.5 144.1,24.4 144,24.4 143.9,24.4 143.7,24.4 143.6,24.4 143.4,24.4 143.3,24.4 143.1,24.4 
			142.9,24.5 142.8,24.5 142.6,24.5 142.5,24.5 142.4,24.5 142.3,24.6 142.2,24.6 142.1,24.6 142,24.7 141.9,24.7 142.3,23.5 
			142.4,23.5 142.5,23.4 142.6,23.4 142.7,23.4 142.9,23.3 143,23.3 143.1,23.3 143.2,23.3 143.4,23.3 143.5,23.3 143.7,23.3 
			143.8,23.3 144,23.3 144.1,23.3 144.3,23.3 144.4,23.3 144.6,23.3 144.7,23.3 144.9,23.4 145,23.4 145.2,23.5 145.3,23.5 
			145.5,23.6 145.6,23.7 145.7,23.8 145.8,23.9 145.9,24.1 146,24.2 146.1,24.4 146.1,24.5 146.1,24.7 146.1,24.9 145.6,27.5 		"/>
		<polygon class="st5" points="145.4,28.6 145.4,28.5 145.6,27.5 145.5,27.5 145.3,28.5 145.4,28.5 145.4,28.6 145.4,28.6 
			145.4,28.5 145.4,28.6 		"/>
		<polygon class="st5" points="144.1,28.5 144.1,28.6 145.4,28.6 145.4,28.5 144.1,28.5 144.2,28.5 144.1,28.5 144.1,28.6 
			144.1,28.6 144.1,28.5 		"/>
		<polygon class="st5" points="144.2,28 144.2,28 144.1,28 144.1,28.2 144.1,28.3 144.1,28.5 144.2,28.5 144.2,28.3 144.2,28.2 
			144.2,28 144.2,28 144.1,28 144.2,28 		"/>
		<polygon class="st5" points="142.3,28.6 142.3,28.6 142.4,28.6 142.6,28.7 142.7,28.7 142.9,28.6 143,28.6 143.1,28.6 143.3,28.6 
			143.4,28.5 143.5,28.5 143.6,28.4 143.8,28.4 143.9,28.3 144,28.2 144.1,28.2 144.1,28.1 144.2,28 144.1,28 144.1,28 144,28.1 
			143.9,28.2 143.8,28.2 143.7,28.3 143.6,28.4 143.5,28.4 143.4,28.5 143.3,28.5 143.1,28.5 143,28.6 142.9,28.6 142.7,28.6 
			142.6,28.6 142.4,28.6 142.3,28.6 142.3,28.6 142.3,28.6 		"/>
		<polygon class="st5" points="141.1,27.2 141.1,27.2 141.1,27.3 141.1,27.4 141.2,27.5 141.2,27.6 141.2,27.7 141.2,27.8 
			141.3,27.9 141.4,28 141.4,28.1 141.5,28.2 141.6,28.3 141.7,28.4 141.8,28.5 142,28.5 142.1,28.6 142.3,28.6 142.3,28.6 
			142.1,28.5 142,28.5 141.9,28.4 141.7,28.3 141.6,28.3 141.5,28.2 141.5,28.1 141.4,28 141.3,27.9 141.3,27.8 141.3,27.7 
			141.2,27.6 141.2,27.5 141.2,27.4 141.2,27.3 141.2,27.2 141.2,27.2 141.1,27.2 		"/>
		<polygon class="st5" points="142.9,25.3 142.9,25.3 142.7,25.3 142.5,25.4 142.4,25.4 142.2,25.5 142.1,25.6 141.9,25.7 
			141.8,25.8 141.7,25.9 141.6,26 141.5,26.1 141.4,26.3 141.3,26.4 141.2,26.6 141.2,26.8 141.1,27 141.1,27.2 141.2,27.2 
			141.2,27 141.2,26.8 141.3,26.6 141.3,26.5 141.4,26.3 141.5,26.2 141.6,26 141.7,25.9 141.8,25.8 142,25.7 142.1,25.6 
			142.3,25.5 142.4,25.5 142.6,25.4 142.7,25.4 142.9,25.3 142.9,25.3 142.9,25.3 		"/>
		<polygon class="st5" points="143.9,25.2 143.9,25.2 143.8,25.2 143.8,25.2 143.7,25.2 143.6,25.2 143.5,25.2 143.4,25.2 
			143.4,25.2 143.3,25.2 143.2,25.2 143.1,25.3 143.1,25.3 143,25.3 142.9,25.3 142.9,25.3 142.9,25.3 142.9,25.3 142.9,25.3 
			142.9,25.3 142.9,25.3 142.9,25.3 143,25.3 143.1,25.3 143.1,25.3 143.2,25.3 143.3,25.3 143.4,25.3 143.4,25.3 143.5,25.3 
			143.6,25.3 143.7,25.3 143.8,25.3 143.8,25.3 143.9,25.3 143.9,25.3 143.9,25.2 		"/>
		<polygon class="st5" points="144.5,25.2 144.6,25.2 144.5,25.2 144.5,25.2 144.4,25.2 144.3,25.2 144.2,25.2 144.1,25.2 144,25.2 
			143.9,25.2 143.9,25.3 144,25.3 144.1,25.3 144.2,25.3 144.3,25.3 144.4,25.3 144.5,25.3 144.5,25.3 144.6,25.3 144.6,25.2 
			144.6,25.3 144.6,25.3 144.6,25.2 144.5,25.2 		"/>
		<polygon class="st5" points="144.6,24.9 144.6,24.9 144.6,25 144.6,25.1 144.5,25.2 144.5,25.2 144.6,25.2 144.6,25.2 144.6,25.1 
			144.6,25 144.6,24.9 144.6,24.9 144.6,24.9 		"/>
		<polygon class="st5" points="144,24.4 144,24.5 144.1,24.5 144.2,24.5 144.3,24.5 144.4,24.6 144.5,24.7 144.5,24.7 144.6,24.8 
			144.6,24.9 144.6,24.9 144.6,24.8 144.6,24.7 144.5,24.6 144.4,24.5 144.3,24.5 144.2,24.4 144.1,24.4 144,24.4 144,24.4 
			144,24.4 		"/>
		<polygon class="st5" points="141.9,24.7 142,24.7 142,24.7 142.1,24.7 142.2,24.6 142.3,24.6 142.4,24.6 142.5,24.5 142.7,24.5 
			142.8,24.5 142.9,24.5 143.1,24.5 143.3,24.5 143.4,24.4 143.6,24.4 143.7,24.4 143.9,24.4 144,24.4 144,24.4 143.9,24.4 
			143.7,24.4 143.6,24.4 143.4,24.4 143.3,24.4 143.1,24.4 142.9,24.4 142.8,24.4 142.6,24.5 142.5,24.5 142.4,24.5 142.3,24.5 
			142.2,24.6 142.1,24.6 142,24.6 141.9,24.7 142,24.7 141.9,24.7 		"/>
		<polygon class="st5" points="142.3,23.5 142.3,23.5 141.9,24.7 142,24.7 142.3,23.5 142.3,23.5 142.3,23.5 142.3,23.5 142.3,23.5 
			142.3,23.5 		"/>
		<polygon class="st5" points="144.4,23.3 144.4,23.3 144.3,23.3 144.1,23.2 144,23.2 143.8,23.2 143.7,23.2 143.5,23.3 143.4,23.3 
			143.2,23.3 143.1,23.3 143,23.3 142.9,23.3 142.7,23.3 142.6,23.4 142.5,23.4 142.4,23.4 142.3,23.5 142.3,23.5 142.4,23.5 
			142.5,23.5 142.6,23.4 142.7,23.4 142.9,23.4 143,23.4 143.1,23.3 143.2,23.3 143.4,23.3 143.5,23.3 143.7,23.3 143.8,23.3 
			144,23.3 144.1,23.3 144.3,23.3 144.4,23.3 144.4,23.3 144.4,23.3 		"/>
		<polygon class="st5" points="146.1,24.9 146.1,24.9 146.1,24.7 146.1,24.5 146.1,24.4 146,24.2 146,24 145.9,23.9 145.7,23.8 
			145.6,23.7 145.5,23.6 145.3,23.5 145.2,23.4 145,23.4 144.9,23.3 144.7,23.3 144.6,23.3 144.4,23.3 144.4,23.3 144.6,23.3 
			144.7,23.4 144.9,23.4 145,23.4 145.2,23.5 145.3,23.6 145.5,23.6 145.6,23.7 145.7,23.8 145.8,23.9 145.9,24.1 146,24.2 
			146,24.4 146.1,24.5 146.1,24.7 146,24.9 146,24.9 146.1,24.9 		"/>
		<polygon class="st5" points="145.6,27.5 145.6,27.5 146.1,24.9 146,24.9 145.5,27.5 145.5,27.5 145.6,27.5 		"/>
		<polygon class="st3" points="144.4,26.2 144.4,26.2 144.4,26.1 144.3,26.1 144.3,26.1 144.2,26.1 144.2,26.1 144.1,26.1 144,26.1 
			143.9,26.1 143.9,26.1 143.8,26.1 143.7,26.2 143.6,26.2 143.6,26.2 143.5,26.2 143.5,26.2 143.4,26.2 143.4,26.2 143.3,26.2 
			143.3,26.3 143.2,26.3 143.2,26.3 143.1,26.3 143,26.4 143,26.4 142.9,26.5 142.9,26.5 142.8,26.6 142.8,26.7 142.7,26.7 
			142.7,26.8 142.7,26.9 142.7,27.1 142.7,27.2 142.7,27.3 142.8,27.4 142.9,27.4 143,27.4 143,27.5 143.1,27.5 143.3,27.5 
			143.4,27.4 143.5,27.4 143.6,27.4 143.7,27.4 143.8,27.3 143.9,27.3 144,27.2 144.1,27.1 144.1,27.1 144.2,27 144.2,27 
			144.3,26.9 144.3,26.8 144.3,26.8 144.3,26.7 144.3,26.6 144.4,26.5 144.4,26.3 144.4,26.2 		"/>
		<polygon class="st5" points="154.4,27.9 154.4,27.8 154.4,27.6 154.5,27.5 154.6,27.4 154.7,27.3 154.8,27.3 154.9,27.2 
			155.1,27.2 155.2,27.2 155.3,27.3 155.5,27.3 155.6,27.4 155.6,27.5 155.7,27.6 155.7,27.8 155.8,27.9 155.6,27.9 155.6,27.8 
			155.6,27.7 155.5,27.6 155.5,27.5 155.4,27.4 155.3,27.4 155.2,27.4 155.1,27.3 155,27.4 154.9,27.4 154.8,27.4 154.7,27.5 
			154.6,27.6 154.6,27.7 154.5,27.8 154.5,27.9 154.4,27.9 		"/>
		<polygon class="st5" points="154.8,27.9 154.8,27.6 155.1,27.6 155.2,27.6 155.2,27.6 155.2,27.6 155.3,27.6 155.3,27.7 
			155.3,27.7 155.3,27.7 155.3,27.8 155.3,27.8 155.3,27.8 155.3,27.9 155.3,27.9 155.1,27.9 155.1,27.9 155.1,27.9 155.2,27.9 
			155.2,27.9 155.2,27.8 155.2,27.8 155.2,27.8 155.2,27.8 155.2,27.7 155.2,27.7 155.2,27.7 155.2,27.7 155.2,27.7 155.1,27.7 
			155.1,27.7 155.1,27.7 155,27.7 155,27.9 154.8,27.9 		"/>
		<polygon class="st5" points="154.4,27.9 154.4,27.9 154.4,28 154.4,28.2 154.5,28.3 154.6,28.4 154.7,28.5 154.8,28.5 154.9,28.6 
			155.1,28.6 155.2,28.6 155.3,28.5 155.5,28.5 155.6,28.4 155.6,28.3 155.7,28.2 155.7,28 155.8,27.9 155.8,27.9 155.6,27.9 
			155.6,27.9 155.6,28 155.6,28.1 155.5,28.2 155.5,28.3 155.4,28.4 155.3,28.4 155.2,28.5 155.1,28.5 155,28.5 154.9,28.4 
			154.8,28.4 154.7,28.3 154.6,28.2 154.6,28.1 154.5,28 154.5,27.9 154.5,27.9 154.4,27.9 		"/>
		<polygon class="st5" points="154.8,27.9 154.8,28.2 155,28.2 155,27.9 155.1,27.9 155.2,28.2 155.3,28.2 155.2,27.9 155.2,27.9 
			155.2,27.9 155.3,27.9 155.3,27.9 155.3,27.9 155.1,27.9 155.1,27.9 155,27.9 155,27.9 154.8,27.9 		"/>
		<path class="st6" d="M154.4,27.9L154.4,27.9v-0.1v-0.1l0.1-0.1l0.1-0.1l0.1-0.1l0.1-0.1h0.1h0.1l0,0h0.1h0.1l0.1,0.1l0.1,0.1
			l0.1,0.1l0.1,0.1v0.1v0.1l0,0V28v0.1l-0.1,0.1l-0.1,0.1l0.1,0.2l-0.1,0.1h-0.1h-0.1l0,0h-0.1H155l-0.1-0.1l-0.1-0.1l-0.3-0.1
			l-0.1-0.1v-0.1V27.9 M155,28.2h-0.1v-0.6h0.3l0,0h0.1h0.1l0,0l0,0l0,0l0,0l0,0l0,0l0,0l0,0l0,0l0,0l0,0l0,0l0,0l0,0l0,0l0.1,0.2
			h-0.1l-0.1-0.2h-0.1v0.6 M155.1,27.9L155.1,27.9L155.1,27.9L155.1,27.9h0.1l0,0l0,0l0,0l0,0l0,0l0,0l0,0l0,0l0,0l0,0l0,0l0,0l0,0
			l0,0H155.1v0.2l0,0 M155.1,28.5L155.1,28.5h0.1h0.1l0.1-0.1l0.1-0.1l0.1-0.1v-0.1V28v-0.1l0,0v-0.1v-0.1v-0.1l-0.1-0.1l-0.1-0.1
			h-0.1h-0.1h-0.1l0,0H155h-0.1h-0.1l-0.1,0.1l-0.1,0.1v0.1v0.1v0.1l0,0V28v0.1v0.1l0.1,0.1l0.1,0.1l0.1,0.1L155.1,28.5L155.1,28.5"
			/>
		<polygon class="st5" points="145.9,28.5 147.3,28.5 147.3,28.5 147.8,25.8 147.8,25.7 147.8,25.6 147.9,25.5 147.9,25.4 148,25.2 
			148,25.1 148.1,25 148.2,25 148.2,24.9 148.3,24.8 148.4,24.7 148.6,24.7 148.7,24.6 148.9,24.6 149,24.5 149.2,24.5 149.3,24.5 
			149.3,24.5 149.4,24.5 149.4,24.5 149.6,23.3 149.4,23.3 149.3,23.3 149.2,23.3 149.1,23.4 149,23.4 148.9,23.5 148.8,23.5 
			148.7,23.6 148.6,23.6 148.5,23.7 148.4,23.8 148.3,23.9 148.3,23.9 148.2,24 148.1,24.1 148.1,24.2 148.2,23.3 146.8,23.3 
			145.9,28.5 145.9,28.5 		"/>
		<polyline class="st6" points="145.9,28.5 147.3,28.5 147.3,28.5 147.8,25.8 147.8,25.8 147.8,25.7 147.8,25.6 147.9,25.5 
			147.9,25.4 148,25.2 148,25.1 148.1,25 148.2,25 148.2,24.9 148.3,24.8 148.4,24.7 148.6,24.7 148.7,24.6 148.9,24.6 149,24.5 
			149.2,24.5 149.2,24.5 149.3,24.5 149.3,24.5 149.4,24.5 149.4,24.5 149.6,23.3 149.6,23.3 149.4,23.3 149.3,23.3 149.2,23.3 
			149.1,23.4 149,23.4 148.9,23.5 148.8,23.5 148.7,23.6 148.6,23.6 148.5,23.7 148.4,23.8 148.3,23.9 148.3,23.9 148.2,24 
			148.1,24.1 148.1,24.2 148.2,23.3 146.8,23.3 145.9,28.5 145.9,28.5 		"/>
		<polygon class="st5" points="133.1,28.5 134.4,28.5 134.5,28.5 134.9,25.8 135,25.7 135,25.6 135,25.5 135,25.4 135.1,25.3 
			135.1,25.2 135.2,25.1 135.2,25 135.3,24.9 135.4,24.9 135.5,24.8 135.6,24.8 135.8,24.7 135.9,24.7 136.1,24.7 136.3,24.6 
			136.3,24.6 136.3,24.6 136.3,24.6 136.4,24.6 136.4,24.7 136.4,24.7 136.4,24.7 136.4,24.7 136.4,24.6 136.4,24.6 136.5,24.5 
			136.5,24.4 136.5,24.3 136.6,24.1 136.6,24 136.6,23.9 136.7,23.8 136.7,23.7 136.8,23.6 136.8,23.5 136.9,23.4 136.9,23.4 
			136.9,23.3 136.9,23.3 136.9,23.3 136.9,23.3 136.9,23.3 136.9,23.3 136.8,23.3 136.8,23.3 136.7,23.3 136.7,23.3 136.6,23.3 
			136.4,23.3 136.3,23.3 136.2,23.4 136.1,23.4 136,23.5 135.9,23.5 135.8,23.6 135.7,23.6 135.6,23.7 135.6,23.8 135.5,23.9 
			135.4,23.9 135.3,24 135.3,24.1 135.2,24.2 135.4,23.3 134,23.3 133.1,28.5 133.1,28.5 		"/>
		<polyline class="st6" points="133.1,28.5 134.4,28.5 134.5,28.5 134.9,25.8 134.9,25.8 135,25.7 135,25.6 135,25.5 135,25.4 
			135.1,25.3 135.1,25.2 135.2,25.1 135.2,25 135.3,24.9 135.4,24.9 135.5,24.8 135.6,24.8 135.8,24.7 135.9,24.7 136.1,24.7 
			136.3,24.6 136.3,24.6 136.3,24.6 136.3,24.6 136.3,24.6 136.4,24.6 136.4,24.7 136.4,24.7 136.4,24.7 136.4,24.7 136.4,24.7 
			136.4,24.6 136.4,24.6 136.5,24.5 136.5,24.4 136.5,24.3 136.6,24.1 136.6,24 136.6,23.9 136.6,23.9 136.7,23.8 136.7,23.7 
			136.8,23.6 136.8,23.5 136.9,23.4 136.9,23.4 136.9,23.3 136.9,23.3 136.9,23.3 136.9,23.3 136.9,23.3 136.9,23.3 136.9,23.3 
			136.8,23.3 136.8,23.3 136.7,23.3 136.7,23.3 136.7,23.3 136.6,23.3 136.4,23.3 136.3,23.3 136.2,23.4 136.1,23.4 136,23.5 
			135.9,23.5 135.8,23.6 135.7,23.6 135.6,23.7 135.6,23.8 135.5,23.9 135.4,23.9 135.3,24 135.3,24.1 135.2,24.2 135.4,23.3 
			134,23.3 133.1,28.5 133.1,28.5 		"/>
		<polygon class="st3" points="154.4,33.7 154.4,33.6 154.4,33.5 154.5,33.4 154.6,33.3 154.7,33.2 154.8,33.2 154.9,33.1 
			155.1,33.1 155.2,33.1 155.3,33.2 155.5,33.2 155.6,33.3 155.6,33.4 155.7,33.5 155.7,33.6 155.7,33.7 155.6,33.7 155.6,33.6 
			155.5,33.5 155.5,33.4 155.4,33.3 155.3,33.3 155.2,33.2 155.1,33.2 155,33.2 154.9,33.3 154.8,33.3 154.7,33.4 154.6,33.5 
			154.6,33.6 154.5,33.7 154.4,33.7 		"/>
		<polygon class="st3" points="154.8,33.7 154.8,33.5 155.1,33.5 155.2,33.5 155.2,33.5 155.2,33.5 155.3,33.5 155.3,33.5 
			155.3,33.6 155.3,33.6 155.3,33.7 155.2,33.7 155.2,33.6 155.2,33.6 155.2,33.6 155.2,33.6 155.2,33.6 155.2,33.6 155.1,33.6 
			155.1,33.6 155.1,33.6 155,33.6 155,33.7 154.8,33.7 		"/>
		<polygon class="st3" points="154.4,33.8 154.4,33.7 154.5,33.7 154.5,33.7 154.5,33.8 154.4,33.8 		"/>
		<polygon class="st3" points="154.8,33.8 154.8,33.7 155,33.7 155,33.7 155.1,33.7 155.1,33.7 155.1,33.7 155.2,33.7 155.2,33.7 
			155.2,33.7 155.2,33.7 155.2,33.7 155.2,33.7 155.3,33.7 155.3,33.7 155.3,33.7 155.3,33.7 155.3,33.7 155.3,33.8 154.8,33.8 		
			"/>
		<polygon class="st3" points="155.6,33.8 155.6,33.7 155.6,33.7 155.7,33.7 155.8,33.8 155.6,33.8 		"/>
		<polygon class="st3" points="154.4,33.8 154.4,33.8 154.4,33.9 154.4,34 154.5,34.2 154.6,34.3 154.7,34.3 154.8,34.4 154.9,34.4 
			155.1,34.5 155.2,34.4 155.3,34.4 155.5,34.3 155.6,34.3 155.6,34.2 155.7,34 155.7,33.9 155.8,33.8 155.8,33.8 155.6,33.8 
			155.6,33.8 155.6,33.9 155.6,34 155.5,34.1 155.5,34.2 155.4,34.2 155.3,34.3 155.2,34.3 155.1,34.3 155,34.3 154.9,34.3 
			154.8,34.2 154.7,34.2 154.6,34.1 154.6,34 154.5,33.9 154.5,33.8 154.5,33.8 154.4,33.8 		"/>
		<polygon class="st3" points="154.8,33.8 154.8,34 155,34 155,33.8 155.1,33.8 155.2,34 155.3,34 155.2,33.8 155.2,33.8 
			155.2,33.8 155.3,33.8 155.3,33.8 155.3,33.8 154.8,33.8 		"/>
		<path class="st5" d="M133.2,24.9v-0.3l-0.1-0.3l-0.1-0.2l-0.1-0.2l-0.1-0.2l-0.2-0.1l-0.2-0.1l-0.2-0.1l-0.2-0.1h-0.2h-0.2h-0.2
			h-0.2h-0.4l-0.3,0l-0.3,0.1l-0.3,0.1l-0.2,0.1l-0.2,0.2l-0.2,0.2l-0.2,0.2l-0.1,0.2l-0.1,0.2l-0.1,0.2l-0.1,0.2l-0.1,0.2v0.2v0.2
			v0.2v0.4v0.4l0.1,0.3l0.1,0.3l0.1,0.3l0.1,0.2l0.2,0.2l0.2,0.2l0.2,0.1l0.2,0.1l0.2,0.1l0.2,0.1l0.2,0.1h0.2h0.2h0.2h0.2h0.1h0.1
			h0.1h0.1h0.1h0.1h0.1h0.1h0.1h0.1h0.1h0.1h0.1h0.1h0.1l0.2-1.2l-0.1,0.1l-0.1,0.1l-0.2-0.3l-0.1,0.1h-0.1h-0.1h-0.1H132h-0.1h-0.1
			h-0.3h-0.1h-0.1h-0.1h-0.1H131h-0.1h-0.1h-0.1l-0.2-0.1l-0.1-0.1l-0.1-0.1l-0.1-0.1l-0.1,0l-0.1-0.1l-0.1-0.1v-0.1v-0.1v-0.1v-0.1
			v-0.1v-0.1h3.1v-0.3l0.1-0.4v-0.4L133.2,24.9z M131.9,25.3h-1.8l0,0l0,0v-0.1v-0.1V25v-0.1v-0.1v-0.1l0.1-0.1l0.1-0.1l0.1-0.1
			l0.1-0.1l0.1-0.1h0.1h0.1h0.1h0.1h0.1h0.1h0.1h0.1h0.1h0.1h0.1h0.1h0.1l0.1,0.1v0.1v0.1v0.1v0.1v0.1v0.1V25L131.9,25.3z"/>
	</g>
</g>
<g>
	<path class="st7" d="M80.2,47.5c0,1.5-1.2,2.7-2.7,2.7H2.7C1.2,50.2,0,49,0,47.5V2.7C0,1.2,1.2,0,2.7,0h74.9c1.5,0,2.7,1.2,2.7,2.7
		L80.2,47.5L80.2,47.5z"/>
	<g>
		<polygon class="st1" points="36.9,32.6 33,32.6 35.4,17.5 39.4,17.5 		"/>
		<path class="st1" d="M29.7,17.5L26,27.9l-0.4-2.2l0,0l-1.3-6.8c0,0-0.2-1.4-1.9-1.4h-6.2l-0.1,0.3c0,0,1.9,0.4,4.1,1.7l3.4,13.1
			h4.1l6.2-15.1C33.9,17.5,29.7,17.5,29.7,17.5z"/>
		<path class="st1" d="M60.5,32.6h3.6L61,17.5h-3.2c-1.5,0-1.8,1.1-1.8,1.1l-5.8,13.9h4.1l0.8-2.2h5L60.5,32.6z M56.2,27.3l2.1-5.6
			l1.2,5.6H56.2z"/>
		<path class="st1" d="M50.5,21.2l0.6-3.2c0,0-1.7-0.7-3.5-0.7c-1.9,0-6.6,0.9-6.6,5c0,3.9,5.4,3.9,5.4,6c0,2-4.9,1.7-6.5,0.4
			L39.3,32c0,0,1.8,0.9,4.4,0.9c2.7,0,6.7-1.4,6.7-5.2c0-3.9-5.5-4.3-5.5-6C45,20,48.8,20.2,50.5,21.2z"/>
	</g>
	<path class="st8" d="M25.5,25.7l-1.3-6.8c0,0-0.2-1.4-1.9-1.4h-6.2L16,17.8c0,0,3,0.6,5.8,2.9C24.6,22.9,25.5,25.7,25.5,25.7z"/>
</g>
<g>
	<path class="st9" d="M357.8,47.3c0,1.5-1.2,2.7-2.7,2.7h-74.8c-1.5,0-2.7-1.2-2.7-2.7V2.7c0-1.5,1.2-2.7,2.7-2.7h74.9
		c1.5,0,2.7,1.2,2.7,2.7v44.6H357.8z"/>
	<g>
		<path class="st1" d="M302.5,23.8V23l-0.4,0.8h-3.3l-0.4-0.8v0.9h-6.2l-0.7-1.7h-1.2l-0.8,1.7h-3.2v-5.2l2.4-5.3h4.5l0.6,1.5v-1.5
			h5.5l1.2,2.5l1.2-2.6h17.4c0,0,0.9,0,1.5,0.4v-0.4h4.4v0.6c0,0,0.8-0.6,2-0.6s7.7,0,7.7,0l0.7,1.5v-1.5h5l0.9,1.5v-1.5h4.7v10.6
			h-4.9l-1.2-1.9v1.8h-6l-0.9-1.9h-1.2l-0.8,1.9h-3.7c0,0-1.4,0-2.4-0.7c0,0.4,0,0.7,0,0.7h-7.3c0,0,0-2.1,0-2.5s-0.3-0.3-0.3-0.3
			H317v2.8H302.5z"/>
		<path class="st1" d="M298.9,26.1h9.6l1.4,1.6l1.4-1.6h7.3c0,0,0.7,0,1.3,0.4v-0.4c0,0,5.7,0,6.6,0c0.8,0,1.5,0.4,1.5,0.4v-0.4h8.4
			v0.4c0,0,0.6-0.4,1.4-0.4c0.8,0,5.5,0,5.5,0v0.4c0,0,0.7-0.4,1.4-0.4c0.7,0,4.3,0,4.3,0v10c0,0-0.6,0.6-1.7,0.6h-5.7v-0.3
			c0,0-0.5,0.3-1.4,0.3c-0.8,0-15.1,0-15.1,0s0-2.3,0-2.6s-0.1-0.3-0.3-0.3h-0.2v2.9h-4.7v-2.9c0,0-0.5,0.3-1.4,0.3s-1.7,0-1.7,0
			v2.6H311l-1.3-1.6l-1.4,1.6h-9.4C298.9,36.7,298.9,26.1,298.9,26.1z"/>
		<polygon class="st9" points="329.1,27.7 335.1,27.7 335.1,29.3 330.9,29.3 330.9,30.7 335,30.7 335,32.1 330.9,32.1 330.9,33.6 
			335.1,33.6 335.1,35.2 329.1,35.2 		"/>
		<path class="st9" d="M346.7,30.6c2.3,0.1,2.4,1.2,2.4,2.4c0,1.4-1.2,2.2-2.4,2.2h-3.9v-1.6h3c0.5,0,1.3,0,1.3-0.7
			c0-0.3-0.1-0.6-0.7-0.6c-0.2,0-1.1-0.1-1.3-0.1c-2-0.1-2.5-1.1-2.5-2.3c0-1.4,1-2.2,2.2-2.2h3.9v1.6h-2.8c-0.6,0-1.3-0.1-1.3,0.7
			c0,0.5,0.3,0.6,0.8,0.6C345.6,30.6,346.6,30.6,346.7,30.6z"/>
		<path class="st9" d="M339.8,30.6c2.3,0.1,2.4,1.2,2.4,2.4c0,1.4-1.2,2.2-2.4,2.2h-3.9v-1.6h3c0.5,0,1.3,0,1.3-0.7
			c0-0.3-0.1-0.6-0.7-0.6c-0.2,0-1.1-0.1-1.3-0.1c-2-0.1-2.5-1.1-2.5-2.3c0-1.4,1-2.2,2.2-2.2h3.9v1.6H339c-0.6,0-1.3-0.1-1.3,0.7
			c0,0.5,0.3,0.6,0.8,0.6C338.6,30.6,339.6,30.6,339.8,30.6z"/>
		<path class="st9" d="M318,27.7h-6.5l-2.1,2.3l-2-2.3h-7.2v7.5h7l2.2-2.5l2.2,2.5h3.5v-2.5h2.5c1,0,2.7,0,2.7-2.7
			C320.2,28.1,318.9,27.7,318,27.7z M306.2,33.6H302v-1.5h4.1v-1.4H302v-1.4h4.5l1.8,2L306.2,33.6z M313.2,34.5l-2.6-3.1l2.6-2.9
			V34.5z M317.4,31.1h-2.3v-1.8h2.3c0.8,0,1,0.5,1,0.9C318.4,30.7,318.1,31.1,317.4,31.1z"/>
		<path class="st9" d="M326.9,31.8c1-0.5,1.3-1.2,1.3-2.1c0-1.6-1.3-2-2.2-2h-4.8v7.5h1.8v-2.6h2.4c0.6,0,0.9,0.6,0.9,1.3v1.4h1.8
			l-0.1-1.5C328.1,32.5,327.7,31.9,326.9,31.8z M325.3,31H323v-1.7h2.3c0.8,0,1,0.5,1,0.9C326.3,30.7,326,31,325.3,31z"/>
		<rect x="321.9" y="14.8" class="st9" width="1.8" height="7.5"/>
		<polygon class="st9" points="306.8,14.8 312.8,14.8 312.8,16.4 308.7,16.4 308.7,17.8 312.7,17.8 312.7,19.2 308.7,19.2 
			308.7,20.7 312.8,20.7 312.8,22.3 306.8,22.3 		"/>
		<path class="st9" d="M319.7,18.9c1-0.5,1.3-1.2,1.3-2.1c0-1.6-1.3-2-2.2-2H314v7.5h1.8v-2.6h2.4c0.6,0,0.9,0.6,0.9,1.3v1.4h1.8
			l-0.1-1.5C320.9,19.5,320.5,19,319.7,18.9z M318.1,18.1h-2.3v-1.7h2.3c0.8,0,1,0.5,1,0.9C319.1,17.8,318.8,18.1,318.1,18.1z"/>
		<path class="st9" d="M302.6,14.8l-2.3,5l-2.2-5h-2.9V22l-3.2-7.2h-2.4l-3.3,7.5h1.9l0.7-1.7h3.7l0.7,1.7h3.7v-5.6l2.5,5.6h1.7
			l2.5-5.5v5.5h1.8v-7.5C305.5,14.8,302.6,14.8,302.6,14.8z M289.6,19l1.1-2.6l1.1,2.6H289.6z"/>
		<path class="st9" d="M342.7,14.8V20l-3.1-5.2h-2.7v7l-3.1-7h-2.4l-2.5,5.8c0,0-1.1,0-1.2,0c-0.4-0.1-1.1-0.4-1.1-1.7v-0.5
			c0-1.8,1-1.9,2.2-1.9h1.1v-1.6h-2.4c-0.8,0-2.7,0.6-2.7,3.7c0,2.1,0.9,3.8,2.9,3.8h2.4l0.7-1.7h3.7l0.7,1.7h3.6v-5.5l3.3,5.5h2.5
			v-7.5L342.7,14.8L342.7,14.8z M331.4,19l1.1-2.6l1.2,2.6H331.4z"/>
	</g>
</g>
</svg>
