<?xml version="1.0" encoding="utf-8"?>
<!-- Generator: Adobe Illustrator 24.0.1, SVG Export Plug-In . SVG Version: 6.00 Build 0)  -->
<svg version="1.1" id="Capa_1" xmlns="http://www.w3.org/2000/svg" xmlns:xlink="http://www.w3.org/1999/xlink" x="0px" y="0px"
	 viewBox="0 0 80.2 50" style="enable-background:new 0 0 80.2 50;" xml:space="preserve">
<style type="text/css">
	.st0{fill:#2056AA;}
	.st1{fill:#FFFFFF;}
	.st2{fill:#FFA61F;}
</style>
<g>
	<path class="st0" d="M80.2,47.5c0,1.5-1.2,2.7-2.7,2.7H2.7c-1.5,0-2.7-1.2-2.7-2.7V2.7C0,1.2,1.2,0,2.7,0h74.9
		c1.5,0,2.7,1.2,2.7,2.7V47.5z"/>
	<g>
		<polygon class="st1" points="36.9,32.6 33,32.6 35.4,17.5 39.4,17.5 		"/>
		<path class="st1" d="M29.7,17.5L26,27.9l-0.4-2.2v0l-1.3-6.8c0,0-0.2-1.4-1.9-1.4h-6.2l-0.1,0.3c0,0,1.9,0.4,4.1,1.7l3.4,13.1h4.1
			l6.2-15.1H29.7z"/>
		<path class="st1" d="M60.5,32.6h3.6L61,17.5h-3.2c-1.5,0-1.8,1.1-1.8,1.1l-5.8,13.9h4.1l0.8-2.2h5L60.5,32.6z M56.2,27.3l2.1-5.6
			l1.2,5.6H56.2z"/>
		<path class="st1" d="M50.5,21.2l0.6-3.2c0,0-1.7-0.7-3.5-0.7c-1.9,0-6.6,0.9-6.6,5c0,3.9,5.4,3.9,5.4,6c0,2-4.9,1.7-6.5,0.4
			L39.3,32c0,0,1.8,0.9,4.4,0.9c2.7,0,6.7-1.4,6.7-5.2c0-3.9-5.5-4.3-5.5-6C45,20,48.8,20.2,50.5,21.2z"/>
	</g>
	<path class="st2" d="M25.5,25.7l-1.3-6.8c0,0-0.2-1.4-1.9-1.4h-6.2l-0.1,0.3c0,0,3,0.6,5.8,2.9C24.6,22.9,25.5,25.7,25.5,25.7z"/>
</g>
</svg>
