<?xml version="1.0" encoding="utf-8"?>
<!-- Generator: Adobe Illustrator 24.0.1, SVG Export Plug-In . SVG Version: 6.00 Build 0)  -->
<svg version="1.1" id="Capa_1" xmlns="http://www.w3.org/2000/svg" xmlns:xlink="http://www.w3.org/1999/xlink" x="0px" y="0px"
	 viewBox="0 0 50 50" style="enable-background:new 0 0 50 50;" xml:space="preserve">
<style type="text/css">
	.st0{fill:url(#SVGID_1_);}
	.st1{clip-path:url(#SVGID_3_);fill:url(#SVGID_4_);}
	.st2{clip-path:url(#SVGID_3_);}
	.st3{fill:#FCB618;}
	.st4{fill:#FFFFFF;}
	.st5{fill:none;stroke:#FFFFFF;stroke-width:0.35;stroke-miterlimit:10;}
</style>
<image style="overflow:visible;" width="147" height="147" xlink:href="C:\Users\Diceñador-01\Desktop\logo-pse.png"  transform="matrix(8.4994 0 0 8.4994 107.5882 -599.7059)">
</image>
<g>
	<radialGradient id="SVGID_1_" cx="25" cy="25.0489" r="25" gradientUnits="userSpaceOnUse">
		<stop  offset="0" style="stop-color:#285BA9"/>
		<stop  offset="1" style="stop-color:#093050"/>
	</radialGradient>
	<circle class="st0" cx="25" cy="25" r="25"/>
	<g>
		<g>
			<defs>
				<circle id="SVGID_2_" cx="25" cy="25" r="25"/>
			</defs>
			<clipPath id="SVGID_3_">
				<use xlink:href="#SVGID_2_"  style="overflow:visible;"/>
			</clipPath>
			<radialGradient id="SVGID_4_" cx="25" cy="15.2624" r="29.0905" gradientUnits="userSpaceOnUse">
				<stop  offset="0" style="stop-color:#285BA9"/>
				<stop  offset="0.1972" style="stop-color:#2659A4;stop-opacity:0.8028"/>
				<stop  offset="0.4174" style="stop-color:#225297;stop-opacity:0.5826"/>
				<stop  offset="0.6488" style="stop-color:#1A4781;stop-opacity:0.3512"/>
				<stop  offset="0.8863" style="stop-color:#0F3962;stop-opacity:0.1137"/>
				<stop  offset="1" style="stop-color:#093050;stop-opacity:0"/>
			</radialGradient>
			<circle class="st1" cx="25" cy="15.3" r="29.1"/>
			<g class="st2">
				<path class="st3" d="M5.2,18.7c0.7,0,1.3-0.6,1.3-1.3s-0.6-1.3-1.3-1.3c-0.7,0-1.3,0.6-1.3,1.3S4.5,18.7,5.2,18.7z"/>
				<circle class="st3" cx="2.8" cy="13.9" r="1.3"/>
				<path class="st3" d="M0.4,18.7c0.7,0,1.3-0.6,1.3-1.3s-0.6-1.3-1.3-1.3c-0.7,0-1.3,0.6-1.3,1.3S-0.3,18.7,0.4,18.7z"/>
				<path class="st3" d="M5.1,30.5c-0.7,0-1.3,0.6-1.3,1.3c0,0.7,0.6,1.3,1.3,1.3c0.7,0,1.3-0.6,1.3-1.3C6.3,31.1,5.7,30.5,5.1,30.5
					z"/>
				<circle class="st3" cx="-1.8" cy="28.4" r="1.1"/>
				<path class="st3" d="M0.5,30.7c-0.6,0-1.1,0.5-1.1,1.1s0.5,1.1,1.1,1.1c0.6,0,1.1-0.5,1.1-1.1S1.1,30.7,0.5,30.7z"/>
				<path class="st3" d="M-1.9,34.4c-0.6,0-1.1,0.5-1.1,1.1s0.5,1.1,1.1,1.1c0.6,0,1.1-0.5,1.1-1.1S-1.3,34.4-1.9,34.4z"/>
				<circle class="st3" cx="-4.2" cy="31.8" r="0.9"/>
				<circle class="st3" cx="-12.4" cy="24.8" r="0.9"/>
				<circle class="st3" cx="-11.2" cy="21.2" r="0.9"/>
				<circle class="st3" cx="-9" cy="17.5" r="0.9"/>
				<circle class="st3" cx="-6.6" cy="14" r="0.9"/>
				<circle class="st3" cx="-6.6" cy="35.5" r="0.9"/>
				<circle class="st3" cx="-8.9" cy="31.8" r="0.9"/>
				<circle class="st3" cx="-11.3" cy="28.4" r="0.9"/>
				<path class="st3" d="M-12.5,31.3c-0.3,0-0.5,0.2-0.5,0.5s0.2,0.5,0.5,0.5s0.5-0.2,0.5-0.5S-12.2,31.3-12.5,31.3z"/>
				<circle class="st3" cx="-14.7" cy="28.4" r="0.5"/>
				<circle class="st3" cx="-16" cy="24.7" r="0.5"/>
				<path class="st3" d="M-14.8,21.7c0.3,0,0.5-0.2,0.5-0.5s-0.2-0.5-0.5-0.5s-0.5,0.2-0.5,0.5S-15.1,21.7-14.8,21.7z"/>
				<circle class="st3" cx="-12.5" cy="17.5" r="0.5"/>
				<circle class="st3" cx="-6.6" cy="28.4" r="1.1"/>
				<path class="st3" d="M-9.1,23.7c-0.6,0-1.1,0.5-1.1,1.1s0.5,1.1,1.1,1.1c0.6,0,1.1-0.5,1.1-1.1S-8.5,23.7-9.1,23.7z"/>
				<circle class="st3" cx="-6.6" cy="21.2" r="1.1"/>
				<path class="st3" d="M-4.2,18.6c0.6,0,1.1-0.5,1.1-1.1s-0.5-1.1-1.1-1.1c-0.6,0-1.1,0.5-1.1,1.1S-4.8,18.6-4.2,18.6z"/>
				<circle class="st3" cx="-1.9" cy="13.9" r="1.1"/>
				<path class="st3" d="M2.8,34.2c-0.7,0-1.3,0.6-1.3,1.3s0.6,1.3,1.3,1.3c0.7,0,1.3-0.6,1.3-1.3S3.5,34.2,2.8,34.2z"/>
				<path class="st3" d="M11.8,25.2v-1H6.3L4,20.6H3.9H2.8h-3.6c-0.2-0.4-0.6-0.7-1.1-0.7c-0.7,0-1.3,0.6-1.3,1.3
					c0,0.7,0.6,1.3,1.3,1.3c0.5,0,0.9-0.3,1.1-0.7h4.3l1.6,2.5h-8.3c-0.2-0.4-0.6-0.7-1.1-0.7c-0.7,0-1.3,0.6-1.3,1.3
					c0,0.7,0.6,1.3,1.3,1.3c0.5,0,1-0.3,1.2-0.8H7.4l-1.6,2.7H3.9c-0.2-0.4-0.6-0.7-1.1-0.7c-0.7,0-1.3,0.6-1.3,1.3s0.6,1.3,1.3,1.3
					c0.5,0,0.9-0.3,1.1-0.7h1.2h1.1h0v-0.1l2.2-3.7H11.8z"/>
			</g>
		</g>
		<g>
			<g>
				<path class="st4" d="M26,20.1h5.9c0.3,0,0.6-0.3,0.6-0.6c0-0.3-0.3-0.6-0.6-0.6H26l-0.1,0c-1,0.2-2.9,1.2-2.9,3.4
					c-0.1,0.8,0.3,2.5,2.2,2.8l4.2,0c0.2,0,1.2,0.2,1.1,2c-0.1,1.8-1.6,2.3-1.9,2.3h-6.5c-0.3,0-0.6,0.3-0.6,0.6s0.3,0.6,0.6,0.6
					h6.6l0.1,0c1-0.2,2.8-1.1,2.9-3.4c0.1-3-2.1-3.2-2.2-3.2l0,0c-0.2,0-0.5,0-1.1,0l-3,0c-1.2-0.2-1.2-1.5-1.2-1.7
					C24.1,20.7,25.7,20.1,26,20.1z"/>
				<path class="st4" d="M40.8,19.1c-0.1,0-0.1,0-0.2,0h-4.4c-2.1,0-3.1,2.5-3.1,2.7c-0.2,0.8-1.1,5.1-1.1,6.7
					c0,1.6,1.7,2.2,2.6,2.3h6.1c0.3,0,0.6-0.3,0.6-0.6s-0.3-0.6-0.6-0.6l-6,0c-0.2,0-1.5-0.2-1.5-1.2c0-0.5,0.1-1.5,0.3-2.8l8.3-0.1
					c0.3,0,0.5-0.2,0.6-0.5c0,0,0.4-2.3,0.4-3.6C42.8,19.7,40.9,19.1,40.8,19.1z M33.8,24.4c0.2-1.2,0.4-2.2,0.5-2.4
					c0.1-0.2,0.8-1.8,2-1.8l4.2,0c0.2,0.1,1.1,0.4,1.1,1.2c0,0.9-0.2,2.2-0.3,2.9L33.8,24.4z"/>
				<path class="st4" d="M21.8,20c-0.6-0.6-1.5-1-1.8-1c-1,0-2.2,0-3.1,0c-0.5,0-0.9,0-1,0l0,0.2L15.7,19c-1,0.2-2.4,1.4-2.9,2.7
					l-0.1,0.2l0,0c0,0.1-0.1,0.3-0.1,0.5l-0.3,1.5l-0.8,4.5l-1.2,6.6c0,0.2,0,0.3,0.1,0.4s0.2,0.2,0.4,0.2l0.1,0
					c0.3,0,0.5-0.2,0.6-0.5l1-5.5c0.9,1,2,1.1,2.2,1.1l3.8-0.1l0.1,0l0,0c1.9-0.6,2.5-2.6,2.5-2.7l1-6.4C22.4,21,22.2,20.5,21.8,20z
					 M14.8,29.6c-0.1,0-1.2-0.2-1.9-1.5c0.7-3.7,1.1-5.8,1.1-6c0.3-0.8,1.4-1.8,1.9-1.9c0.1,0,0.3,0,0.6,0l3.5,0
					c0.2,0,0.6,0.2,1,0.6c0.1,0.2,0.3,0.4,0.3,0.6l-1,6.3c0,0.1-0.5,1.4-1.7,1.8L14.8,29.6z"/>
			</g>
			<g>
				<path class="st5" d="M14.3,15.9c0,0,1.1,0,1.2,0s0.2,0.1,0.2,0.3c0,0.2-0.2,1.2-0.2,1.4c0,0.2-0.1,0.2-0.3,0.2s-0.8,0-0.9,0
					c-0.1,0-0.3-0.1-0.3-0.3s0-0.3,0-0.5c0-0.3,0.3-0.5,0.6-0.5c0.4,0,0.9,0,0.9,0"/>
				<path class="st5" d="M17.7,15.9c0,0-0.7,0-1,0s-0.4,0.2-0.4,0.4c0,0.2-0.1,0.6-0.1,1c0,0.3,0.2,0.6,0.5,0.6s1.2,0,1.2,0l0.6-3.2
					"/>
				<path class="st5" d="M18.2,15.9c0,0,0.4,0,0.9,0c0.4,0,0.5,0.2,0.5,0.5c0,0.3-0.2,1.4-0.2,1.4"/>
			</g>
		</g>
	</g>
</g>
</svg>
