<?xml version="1.0" encoding="utf-8"?>
<!-- Generator: Adobe Illustrator 24.0.1, SVG Export Plug-In . SVG Version: 6.00 Build 0)  -->
<svg version="1.1" id="Capa_1" xmlns="http://www.w3.org/2000/svg" xmlns:xlink="http://www.w3.org/1999/xlink" x="0px" y="0px"
	 viewBox="0 0 50.8 40.7" style="enable-background:new 0 0 50.8 40.7;" xml:space="preserve">
<style type="text/css">
	.st0{fill:#79CBE1;}
	.st1{fill:#565656;}
	.st2{fill:#FFFFFF;stroke:#FF0000;stroke-miterlimit:10;}
	.st3{opacity:0.1;enable-background:new    ;}
	.st4{fill:#2479BA;}
	.st5{fill:#FFFFFF;}
	.st6{font-family:'Montserrat-SemiBold';}
	.st7{font-size:2.6934px;}
	.st8{font-size:1.4094px;}
	.st9{font-size:0.6254px;}
</style>
<path class="st0" d="M0.7,20.1c0,0-1-1.8,0.8-2.8l29-16.8c0,0,1.7-0.7,2.5,0.8l10,17.2c0,0,0.9,1.3-0.4,2.5L13.5,37.8
	c0,0-1.8,1.1-3.1-1.1L0.7,20.1z"/>
<polygon class="st1" points="37,8.2 4.6,26.8 1.6,21.8 34.1,3.3 "/>
<polygon class="st2" points="27,19.3 8.7,29.8 7.4,27.6 25.8,17.2 "/>
<polygon class="st2" points="37.4,13.4 29.9,17.6 28.6,15.4 36.1,11.1 "/>
<path class="st3" d="M12.1,17.8c0,0,0.1-2.1,2.1-2.1h27.2c0,0,0.6,1.3,1.1,2.1l7,19.8c0,0,0.1,1.6-1.6,2l-33-3.1
	c0,0-2.8,3.1-2.8,0.6C12.1,37.1,12.1,17.8,12.1,17.8z"/>
<path class="st4" d="M13,18.6c0,0,0.1-2.1,2.1-2.1h33.5c0,0,1.8,0.3,1.8,2v19.9c0,0,0.1,1.6-1.6,2H15.2c0,0-2.2,0-2.2-2.5V18.6z"/>
<g>
	<text transform="matrix(1 0 0 1 16.3275 32.3146)" class="st5 st6 st7">1234  5678  9000  0000</text>
</g>
<text transform="matrix(1 0 0 1 16.0931 37.4181)" class="st5 st6 st8">TU NOMBRE</text>
<g>
	<text transform="matrix(1 0 0 1 36.1786 34.6974)" class="st5 st6 st8">00/00</text>
</g>
<g>
	<text transform="matrix(1 0 0 1 33.6786 34.1496)" class="st5 st6 st9">VALID</text>
</g>
<g>
	<text transform="matrix(1 0 0 1 33.6786 34.8586)" class="st5 st6 st9">THRU</text>
</g>
</svg>
