<?xml version="1.0" encoding="utf-8"?>
<!-- Generator: Adobe Illustrator 24.0.1, SVG Export Plug-In . SVG Version: 6.00 Build 0)  -->
<svg version="1.1" id="Capa_1" xmlns="http://www.w3.org/2000/svg" xmlns:xlink="http://www.w3.org/1999/xlink" x="0px" y="0px"
	 viewBox="0 0 229.8 50" style="enable-background:new 0 0 229.8 50;" xml:space="preserve">
<style type="text/css">
	.st0{fill:#333333;}
</style>
<g>
	<g>
		<path class="st0" d="M28.2,50c-8.2,0-16-4.1-20.6-10.9c-0.2-0.2-0.1-0.5,0.1-0.7c0.2-0.2,0.5-0.1,0.7,0.1
			C12.8,45.1,20.2,49,28.2,49c13.2,0,24-10.8,24-24c0-13.2-10.8-24-24-24C15.3,1,4.7,11.1,4.2,24c0,0.3-0.2,0.5-0.5,0.5
			c-0.3,0-0.5-0.2-0.5-0.5C3.8,10.5,14.7,0,28.2,0c13.8,0,25,11.2,25,25S41.9,50,28.2,50z"/>
	</g>
	<g>
		<g>
			<path class="st0" d="M8,21l-0.7-0.7l-3.2,2.9c-0.2,0.2-0.5,0.2-0.7-0.1l-2.7-3.4L0,20.4l3.1,4c0.3,0.4,0.8,0.4,1.1,0.1L8,21z"/>
		</g>
	</g>
</g>
<g>
	<g>
		<path class="st0" d="M42.8,39.3H13.5c-0.3,0-0.5-0.2-0.5-0.5V15.4c0-0.1,0-0.2,0.1-0.3l3.6-4.2c0.1-0.1,0.2-0.2,0.4-0.2h22.2
			c0.1,0,0.3,0.1,0.4,0.2l3.6,4.2c0.1,0.1,0.1,0.2,0.1,0.3v23.4C43.3,39.1,43.1,39.3,42.8,39.3z M14,38.3h28.4V15.6L39,11.7H17.3
			L14,15.6V38.3z"/>
	</g>
	<g>
		<path class="st0" d="M26.1,34.8H15.6c-0.3,0-0.5-0.2-0.5-0.5c0-0.3,0.2-0.5,0.5-0.5h10.5c0.3,0,0.5,0.2,0.5,0.5
			C26.5,34.6,26.3,34.8,26.1,34.8z"/>
	</g>
	<g>
		<path class="st0" d="M21.1,36.9h-5.5c-0.3,0-0.5-0.2-0.5-0.5c0-0.3,0.2-0.5,0.5-0.5h5.5c0.3,0,0.5,0.2,0.5,0.5
			C21.6,36.7,21.4,36.9,21.1,36.9z"/>
	</g>
	<g>
		<path class="st0" d="M36.5,36.9h-2.1c-0.3,0-0.5-0.2-0.5-0.5v-2.1c0-0.3,0.2-0.5,0.5-0.5h2.1c0.3,0,0.5,0.2,0.5,0.5v2.1
			C37,36.7,36.8,36.9,36.5,36.9z M34.9,35.9h1.1v-1.1h-1.1V35.9z"/>
	</g>
	<g>
		<path class="st0" d="M40.7,36.9h-2.1c-0.3,0-0.5-0.2-0.5-0.5v-2.1c0-0.3,0.2-0.5,0.5-0.5h2.1c0.3,0,0.5,0.2,0.5,0.5v2.1
			C41.2,36.7,41,36.9,40.7,36.9z M39.1,35.9h1.1v-1.1h-1.1V35.9z"/>
	</g>
	<g>
		<path class="st0" d="M31.9,20.1h-7.6v-5.2h7.6V20.1z M25.4,19.1H31v-3.2h-5.6V19.1z"/>
	</g>
	<g>
		<path class="st0" d="M32.2,15.9h-8l1.8-5.2h4.3L32.2,15.9z M25.6,14.9h5.2l-1.1-3.2h-2.9L25.6,14.9z"/>
	</g>
	<g>
		<path class="st0" d="M42.8,15.9H13.5c-0.3,0-0.5-0.2-0.5-0.5c0-0.3,0.2-0.5,0.5-0.5h29.4c0.3,0,0.5,0.2,0.5,0.5
			C43.3,15.7,43.1,15.9,42.8,15.9z"/>
	</g>
</g>
<g>
	<g>
		<path class="st0" d="M170.6,42.6h-5c-0.3,0-0.5-0.2-0.5-0.5c0-0.3,0.2-0.5,0.5-0.5h5c0.3,0,0.5,0.2,0.5,0.5
			C171.1,42.4,170.9,42.6,170.6,42.6z"/>
	</g>
	<g>
		<path class="st0" d="M202.2,42.6h-8.9c-0.3,0-0.5-0.2-0.5-0.5c0-0.3,0.2-0.5,0.5-0.5h8.9c0.3,0,0.5,0.2,0.5,0.5
			C202.7,42.4,202.5,42.6,202.2,42.6z"/>
	</g>
	<g>
		<path class="st0" d="M226.5,42.6h-1.6c-0.3,0-0.5-0.2-0.5-0.5c0-0.3,0.2-0.5,0.5-0.5h1.6c1.3,0,2.3-1,2.3-2.3V28.7
			c0-1.6-0.6-3-1.7-4.1l-3.2-3.2c-0.2-0.2-0.2-0.5,0-0.7s0.5-0.2,0.7,0l3.2,3.2c1.3,1.3,2,3,2,4.8v10.6
			C229.8,41.1,228.3,42.6,226.5,42.6z"/>
	</g>
	<g>
		<path class="st0" d="M224.2,21.5h-14.9c-0.3,0-0.5-0.2-0.5-0.5s0.2-0.5,0.5-0.5h14.1l-5.2-10.7c-0.7-1.5-2.2-2.4-3.8-2.4h-8.9
			c-0.3,0-0.5-0.2-0.5-0.5V3.3c0-1.3-1-2.3-2.3-2.3h-35.4c-0.3,0-0.5-0.2-0.5-0.5s0.2-0.5,0.5-0.5h35.4c1.8,0,3.3,1.5,3.3,3.3v3.1
			h8.4c2,0,3.8,1.2,4.7,3l5.5,11.4c0.1,0.2,0.1,0.3,0,0.5C224.6,21.4,224.4,21.5,224.2,21.5z"/>
	</g>
	<g>
		<g>
			<path class="st0" d="M185.8,12.4h-23.5c-0.3,0-0.5-0.2-0.5-0.5s0.2-0.5,0.5-0.5h23.5c0.3,0,0.5,0.2,0.5,0.5S186,12.4,185.8,12.4z
				"/>
		</g>
		<g>
			<path class="st0" d="M182.3,21.6h-28c-0.3,0-0.5-0.2-0.5-0.5c0-0.3,0.2-0.5,0.5-0.5h28c0.3,0,0.5,0.2,0.5,0.5
				C182.8,21.4,182.6,21.6,182.3,21.6z"/>
		</g>
		<g>
			<path class="st0" d="M177.7,30.8h-18.5c-0.3,0-0.5-0.2-0.5-0.5s0.2-0.5,0.5-0.5h18.5c0.3,0,0.5,0.2,0.5,0.5S178,30.8,177.7,30.8z
				"/>
		</g>
	</g>
	<g>
		<path class="st0" d="M182,49.9c-4.3,0-7.8-3.5-7.8-7.8s3.5-7.8,7.8-7.8c4.3,0,7.8,3.5,7.8,7.8S186.3,49.9,182,49.9z M182,35.2
			c-3.8,0-6.9,3.1-6.9,6.9c0,3.8,3.1,6.9,6.9,6.9c3.8,0,6.9-3.1,6.9-6.9C188.8,38.3,185.8,35.2,182,35.2z"/>
	</g>
	<g>
		<path class="st0" d="M213.6,49.9c-4.3,0-7.8-3.5-7.8-7.8s3.5-7.8,7.8-7.8c4.3,0,7.8,3.5,7.8,7.8S217.9,49.9,213.6,49.9z
			 M213.6,35.2c-3.8,0-6.9,3.1-6.9,6.9c0,3.8,3.1,6.9,6.9,6.9c3.8,0,6.9-3.1,6.9-6.9C220.4,38.3,217.4,35.2,213.6,35.2z"/>
	</g>
</g>
<g>
	<g>
		<path class="st0" d="M114.1,20.6c-0.3,0-0.5-0.2-0.5-0.5v-9C113.6,5.5,109,1,103.5,1S93.4,5.5,93.4,11.1v9c0,0.3-0.2,0.5-0.5,0.5
			c-0.3,0-0.5-0.2-0.5-0.5v-9C92.4,5,97.4,0,103.5,0s11.1,5,11.1,11.1v9C114.5,20.4,114.3,20.6,114.1,20.6z"/>
	</g>
	<g>
		<path class="st0" d="M117.6,50H89.3c-1.6,0-3-1.5-3-3.3v-20c0-1.8,1.3-3.3,3-3.3h28.2c1.6,0,3,1.5,3,3.3v20
			C120.6,48.5,119.2,50,117.6,50z M89.3,24.4c-1.1,0-2,1-2,2.3v20c0,1.3,0.9,2.3,2,2.3h28.2c1.1,0,2-1,2-2.3v-20
			c0-1.3-0.9-2.3-2-2.3H89.3z"/>
	</g>
	<g>
		<path class="st0" d="M103.5,42.7c-1.1,0-2-0.9-2-2v-4.4c-0.8-0.6-1.2-1.5-1.2-2.5c0-1.8,1.4-3.2,3.2-3.2s3.2,1.4,3.2,3.2
			c0,1-0.4,1.9-1.2,2.5v4.4C105.4,41.9,104.6,42.7,103.5,42.7z M103.5,31.7c-1.2,0-2.2,1-2.2,2.2c0,0.7,0.4,1.4,1,1.8
			c0.1,0.1,0.2,0.2,0.2,0.4v4.7c0,0.5,0.4,1,1,1s1-0.4,1-1v-4.7c0-0.2,0.1-0.3,0.2-0.4c0.6-0.4,1-1.1,1-1.8
			C105.7,32.6,104.7,31.7,103.5,31.7z"/>
	</g>
</g>
</svg>
