<?xml version="1.0" encoding="utf-8"?>
<!-- Generator: Adobe Illustrator 24.0.1, SVG Export Plug-In . SVG Version: 6.00 Build 0)  -->
<svg version="1.1" id="Capa_1" xmlns="http://www.w3.org/2000/svg" xmlns:xlink="http://www.w3.org/1999/xlink" x="0px" y="0px"
	 viewBox="0 0 228 50" style="enable-background:new 0 0 228 50;" xml:space="preserve">
<style type="text/css">
	.st0{fill:#333333;}
</style>
<path class="st0" d="M28.2,50c-8.3,0-16-4.1-20.6-10.9c-0.1-0.1-0.2-0.2-0.2-0.4c0-0.2,0.1-0.4,0.3-0.6C7.8,38,8,37.9,8.1,37.9
	c0.2,0,0.4,0.1,0.6,0.3c4.3,6.5,11.6,10.3,19.4,10.3c13,0,23.5-10.5,23.5-23.5S41.1,1.5,28.2,1.5c-12.7,0-23,9.9-23.5,22.5
	c0,0.4-0.3,0.7-0.7,0.7c-0.4,0-0.7-0.3-0.7-0.7c0.6-13.5,11.6-24,25-24c13.8,0,25,11.2,25,25S42,50,28.2,50z"/>
<path class="st0" d="M3.9,25c-0.3,0-0.6-0.1-0.8-0.4l-3.2-4.1l1-1L3.8,23c0,0.1,0.1,0.1,0.2,0.1c0,0,0.1,0,0.1-0.1l3.4-3l1,1l-4,3.6
	C4.4,24.9,4.2,25,3.9,25z"/>
<path class="st0" d="M13.6,39.4c-0.4,0-0.7-0.3-0.7-0.7V15.5c0-0.1,0-0.3,0.2-0.5l3.6-4.1c0.1-0.1,0.3-0.3,0.6-0.3h22
	c0.2,0,0.4,0.1,0.6,0.3l3.6,4.2c0.2,0.2,0.2,0.3,0.2,0.5v23.2c-0.2,0.5-0.5,0.7-0.8,0.7H13.6z M42,37.9V15.8l-3.2-3.7H17.5l-3.1,3.7
	v22.1H42z"/>
<path class="st0" d="M15.7,35c-0.4,0-0.7-0.3-0.7-0.7c0-0.4,0.3-0.7,0.7-0.7h10.4c0.4,0,0.7,0.3,0.7,0.7c-0.1,0.5-0.4,0.7-0.7,0.7
	H15.7z"/>
<path class="st0" d="M15.7,37c-0.4,0-0.7-0.3-0.7-0.7c0-0.4,0.3-0.7,0.7-0.7h5.4c0.4,0,0.7,0.3,0.7,0.7c0,0.4-0.3,0.7-0.7,0.7H15.7z
	"/>
<path class="st0" d="M34.3,37c-0.4,0-0.7-0.3-0.7-0.7v-2.1c0-0.4,0.3-0.7,0.7-0.7h2.1c0.4,0,0.7,0.3,0.7,0.7v2.1
	c0,0.4-0.3,0.7-0.7,0.7H34.3z M35.6,35.5V35H35v0.6H35.6z"/>
<path class="st0" d="M38.5,37c-0.4,0-0.7-0.3-0.7-0.7v-2.1c0-0.4,0.3-0.7,0.7-0.7h2.1c0.4,0,0.7,0.3,0.7,0.7v2.1
	c0,0.4-0.3,0.7-0.7,0.7H38.5z M39.8,35.5V35h-0.6v0.6H39.8z"/>
<path class="st0" d="M24.1,20.4v-5.6h8v5.6H24.1z M30.7,18.9v-2.7h-5v2.7H30.7z"/>
<path class="st0" d="M23.9,16.2l2-5.6h4.6l2.1,5.6H23.9z M30.4,14.8l-0.9-2.7H27l-1,2.7H30.4z"/>
<path class="st0" d="M13.6,16.2c-0.4,0-0.7-0.3-0.7-0.7c0-0.4,0.3-0.7,0.7-0.7h29.1c0.4,0,0.7,0.3,0.7,0.7c-0.2,0.5-0.5,0.7-0.8,0.7
	H13.6z"/>
<path class="st0" d="M164.2,42.7c-0.4,0-0.7-0.3-0.7-0.7c0-0.4,0.3-0.7,0.7-0.7h5c0.4,0,0.7,0.3,0.7,0.7c0,0.4-0.3,0.7-0.7,0.7
	H164.2z"/>
<path class="st0" d="M191.6,42.7c-0.4,0-0.7-0.3-0.7-0.7c0-0.4,0.3-0.7,0.7-0.7h8.8c0.4,0,0.7,0.3,0.7,0.7c0,0.4-0.3,0.7-0.7,0.7
	H191.6z"/>
<path class="st0" d="M222.9,42.7c-0.4,0-0.7-0.3-0.7-0.7c0-0.4,0.3-0.7,0.7-0.7h1.6c1.2,0,2-0.9,2-2V28.7c0-1.5-0.6-2.8-1.6-3.9
	l-3.2-3.2c-0.1-0.1-0.2-0.3-0.2-0.5c0-0.2,0.1-0.4,0.2-0.5c0.1-0.1,0.3-0.2,0.5-0.2c0.2,0,0.4,0.1,0.5,0.2l3.2,3.2
	c1.3,1.3,2.1,3.1,2.1,4.9v10.5c0,1.9-1.6,3.5-3.5,3.5H222.9z"/>
<path class="st0" d="M207.5,21.8c-0.4,0-0.7-0.3-0.7-0.7s0.3-0.7,0.7-0.7H221l-5-10.2c-0.6-1.4-2-2.2-3.5-2.2h-8.8
	c-0.4,0-0.7-0.3-0.7-0.7V3.5c0-1.2-0.9-2-2-2h-35c-0.4,0-0.7-0.3-0.7-0.7s0.3-0.7,0.7-0.7h35c1.9,0,3.5,1.6,3.5,3.5v2.8h8.1
	c2,0,3.9,1.2,4.9,3.1l5.4,11.3c0.1,0.3,0.1,0.4,0,0.7c-0.1,0.2-0.4,0.4-0.6,0.4H207.5z"/>
<path class="st0" d="M160.9,12.8c-0.4,0-0.7-0.3-0.7-0.7c0-0.4,0.3-0.7,0.7-0.7h23.3c0.4,0,0.7,0.3,0.7,0.7c0,0.4-0.4,0.7-0.7,0.7
	H160.9z"/>
<path class="st0" d="M153,21.9c-0.4,0-0.7-0.3-0.7-0.7c0-0.4,0.3-0.7,0.7-0.7h27.7c0.4,0,0.7,0.3,0.7,0.7c0,0.4-0.3,0.7-0.7,0.7H153
	z"/>
<path class="st0" d="M157.9,31c-0.4,0-0.7-0.3-0.7-0.7s0.3-0.7,0.7-0.7h18.3c0.4,0,0.7,0.3,0.7,0.7s-0.3,0.7-0.7,0.7H157.9z"/>
<path class="st0" d="M180.4,49.9c-4.4,0-8-3.6-8-8c0-4.4,3.6-8,8-8s8,3.6,8,8C188.4,46.3,184.8,49.9,180.4,49.9z M180.4,35.3
	c-3.6,0-6.6,3-6.6,6.6c0,3.6,3,6.6,6.6,6.6c3.6,0,6.6-3,6.6-6.6C186.9,38.2,184,35.3,180.4,35.3z"/>
<path class="st0" d="M211.7,49.9c-4.4,0-8-3.6-8-8c0-4.4,3.6-8,8-8c4.4,0,8,3.6,8,8C219.7,46.3,216.1,49.9,211.7,49.9z M211.7,35.3
	c-3.6,0-6.6,3-6.6,6.6c0,3.6,3,6.6,6.6,6.6c3.6,0,6.6-3,6.6-6.6C218.2,38.2,215.3,35.3,211.7,35.3z"/>
<path class="st0" d="M113.2,20.9c-0.4,0-0.7-0.3-0.7-0.7v-8.9c0-5.4-4.4-9.8-9.8-9.8S93,5.9,93,11.2v8.9c0,0.4-0.3,0.7-0.7,0.7
	c-0.4,0-0.7-0.3-0.7-0.7v-8.9C91.5,5,96.5,0,102.7,0S114,5,114,11.2v8.9C113.8,20.6,113.5,20.9,113.2,20.9z"/>
<path class="st0" d="M88.7,50c-1.7,0-3.2-1.6-3.2-3.5V26.7c0-1.9,1.4-3.5,3.2-3.5h27.9c1.7,0,3.2,1.6,3.2,3.5v19.8
	c0.1,0.9-0.3,1.9-0.9,2.5c-0.6,0.6-1.4,1-2.2,1H88.7z M88.7,24.7c-1,0-1.7,0.9-1.7,2v19.8c0,1.1,0.8,2,1.7,2h27.9c1,0,1.7-0.9,1.7-2
	V26.7c0-1.1-0.8-2-1.7-2H88.7z"/>
<path class="st0" d="M102.7,42.8c-1.2,0-2.2-1-2.2-2.2v-4.2c-0.8-0.6-1.2-1.5-1.2-2.6c0-1.9,1.5-3.4,3.4-3.4c1.9,0,3.4,1.5,3.4,3.4
	c0,1.1-0.4,2-1.2,2.6v4.2C104.8,41.9,103.9,42.8,102.7,42.8z M102.7,31.9c-1,0-1.9,0.9-1.9,1.9c0,0.6,0.3,1.2,0.9,1.6
	c0.1,0.1,0.3,0.3,0.3,0.6v4.7c0,0.4,0.3,0.7,0.7,0.7c0.5,0,0.7-0.3,0.7-0.7V36c0-0.3,0.2-0.5,0.3-0.6c0.6-0.4,0.9-1,0.9-1.6
	C104.7,32.7,103.8,31.9,102.7,31.9z"/>
</svg>
