<?xml version="1.0" encoding="utf-8"?>
<!-- Generator: Adobe Illustrator 24.0.1, SVG Export Plug-In . SVG Version: 6.00 Build 0)  -->
<svg version="1.1" id="Capa_1" xmlns="http://www.w3.org/2000/svg" xmlns:xlink="http://www.w3.org/1999/xlink" x="0px" y="0px"
	 viewBox="0 0 226.6 50" style="enable-background:new 0 0 226.6 50;" xml:space="preserve">
<style type="text/css">
	.st0{fill:#333333;}
</style>
<g>
	<path class="st0" d="M163,42.7c-0.6,0-1-0.4-1-1c0-0.6,0.4-1,1-1h4.9c0.6,0,1,0.4,1,1c0,0.6-0.4,1-1,1H163z"/>
	<path class="st0" d="M190.2,42.7c-0.6,0-1-0.4-1-1c0-0.6,0.4-1,1-1h8.7c0.6,0,1,0.4,1,1c0,0.6-0.4,1-1,1H190.2z"/>
	<path class="st0" d="M221.1,42.7c-0.6,0-1-0.4-1-1c0-0.6,0.4-1,1-1h1.6c1,0,1.8-0.8,1.8-1.8V28.6c0-1.4-0.5-2.7-1.5-3.7l-3.1-3.1
		c-0.2-0.2-0.3-0.4-0.3-0.7c0-0.3,0.1-0.5,0.3-0.7c0.2-0.2,0.4-0.3,0.7-0.3c0.3,0,0.5,0.1,0.7,0.3l3.1,3.1c1.4,1.4,2.1,3.2,2.1,5.1
		V39c0,2-1.7,3.7-3.7,3.7H221.1z"/>
	<path class="st0" d="M205.8,22.1c-0.6,0-1-0.4-1-1c0-0.6,0.4-1,1-1h13l-4.8-9.8c-0.6-1.3-1.9-2.1-3.3-2.1h-8.7c-0.6,0-1-0.4-1-1
		V3.7c0-1-0.8-1.8-1.8-1.8h-34.7c-0.6,0-1-0.4-1-1s0.4-1,1-1h34.7c2,0,3.7,1.7,3.7,3.7v2.5h7.7c2.1,0,4.1,1.2,5,3.2l5.4,11.2
		c0.2,0.3,0.2,0.6,0,0.9c-0.1,0.3-0.5,0.5-0.9,0.5H205.8z"/>
	<path class="st0" d="M159.8,13.1c-0.6,0-1-0.4-1-1c0-0.6,0.4-1,1-1h23c0.6,0,1,0.4,1,1c0,0.6-0.5,1-1,1H159.8z"/>
	<path class="st0" d="M151.9,22.2c-0.6,0-1-0.4-1-1c0-0.6,0.4-1,1-1h27.5c0.6,0,1,0.4,1,1c0,0.6-0.4,1-1,1H151.9z"/>
	<path class="st0" d="M156.7,31.2c-0.6,0-1-0.4-1-1s0.4-1,1-1h18.1c0.6,0,1,0.4,1,1s-0.4,1-1,1H156.7z"/>
	<path class="st0" d="M179.1,49.9c-4.5,0-8.1-3.7-8.1-8.1c0-4.5,3.7-8.1,8.1-8.1c4.5,0,8.1,3.7,8.1,8.1
		C187.2,46.3,183.6,49.9,179.1,49.9z M179.1,35.5c-3.5,0-6.3,2.8-6.3,6.3c0,3.5,2.8,6.3,6.3,6.3s6.3-2.8,6.3-6.3
		C185.3,38.3,182.5,35.5,179.1,35.5z"/>
	<path class="st0" d="M210.1,49.9c-4.5,0-8.1-3.7-8.1-8.1c0-4.5,3.7-8.1,8.1-8.1c4.5,0,8.1,3.7,8.1,8.1
		C218.2,46.3,214.6,49.9,210.1,49.9z M210.1,35.5c-3.5,0-6.3,2.8-6.3,6.3c0,3.5,2.8,6.3,6.3,6.3c3.5,0,6.3-2.8,6.3-6.3
		C216.2,38.3,213.5,35.5,210.1,35.5z"/>
</g>
<g>
	<path class="st0" d="M112.5,21.2c-0.6,0-1-0.4-1-1v-8.8c0-5.2-4.2-9.4-9.4-9.4c-5.2,0-9.4,4.2-9.4,9.4v8.8c0,0.6-0.4,1-1,1
		c-0.6,0-1-0.4-1-1v-8.8C90.7,5.1,95.9,0,102.1,0s11.4,5.1,11.4,11.4v8.9l0,0.1C113.3,20.9,112.9,21.2,112.5,21.2z"/>
	<path class="st0" d="M88.2,50c-1.9,0-3.4-1.7-3.4-3.7V26.7c0-2.1,1.5-3.7,3.4-3.7h27.6c1.9,0,3.4,1.7,3.4,3.7v19.6
		c0.1,1-0.3,2-1,2.7c-0.6,0.7-1.5,1-2.3,1H88.2z M88.2,24.9c-0.8,0-1.5,0.8-1.5,1.8v19.6c0,1,0.6,1.8,1.5,1.8h27.6
		c0.8,0,1.5-0.8,1.5-1.8V26.7c0-1-0.6-1.8-1.5-1.8H88.2z"/>
	<path class="st0" d="M102.1,42.8c-1.4,0-2.5-1.1-2.5-2.5v-4.1c-0.8-0.7-1.2-1.6-1.2-2.7c0-2,1.6-3.6,3.6-3.6s3.6,1.6,3.6,3.6
		c0,1.1-0.4,2-1.2,2.7v4.1C104.5,41.9,103.5,42.8,102.1,42.8z M102.1,32.1c-0.9,0-1.7,0.8-1.7,1.7c0,0.5,0.3,1,0.8,1.4
		c0.2,0.2,0.4,0.4,0.4,0.8v4.6c0,0.2,0.2,0.5,0.5,0.5c0.3,0,0.5-0.2,0.5-0.5v-4.6c0-0.4,0.2-0.6,0.3-0.7c0.5-0.4,0.8-0.9,0.8-1.4
		C103.8,32.8,103.1,32.1,102.1,32.1z"/>
</g>
<g>
	<path class="st0" d="M28.3,50c-8.3,0-16-4.1-20.6-10.9c-0.1-0.1-0.2-0.3-0.2-0.5c0-0.3,0.1-0.6,0.3-0.8c0.2-0.2,0.4-0.2,0.6-0.2
		c0.3,0,0.6,0.1,0.8,0.3C13.5,44.3,20.6,48,28.3,48c12.7,0,23-10.3,23-23S41,2,28.3,2C15.9,2,5.7,11.7,5.3,24c0,0.5-0.4,1-1,1
		s-1-0.4-1-1c0.6-13.5,11.6-24,25-24c13.8,0,25,11.2,25,25S42.1,50,28.3,50z"/>
	<path class="st0" d="M4.3,25.2c-0.4,0-0.7-0.2-1-0.5L0,20.4l1.4-1.4l3,3.8l3.5-3.1l1.4,1.4l-4.1,3.8C4.9,25.1,4.6,25.2,4.3,25.2z"
		/>
	<path class="st0" d="M13.9,39.5c-0.6,0-1-0.4-1-1V15.6c0-0.1,0-0.4,0.2-0.6l3.5-4.1c0.1-0.1,0.4-0.4,0.8-0.4h21.8
		c0.3,0,0.6,0.2,0.7,0.3l3.6,4.1c0.2,0.2,0.2,0.5,0.2,0.6v23l0,0.1c-0.2,0.5-0.6,0.8-1.1,0.8H13.9z M41.7,37.5V16l-3.1-3.5H17.8
		l-3,3.5v21.6H41.7z"/>
	<path class="st0" d="M24,20.7v-6.1h8.4v6.1H24z M30.6,18.7v-2.2H26v2.2H30.6z"/>
	<path class="st0" d="M23.7,16.6l2.1-6.1h4.9l2.2,6.1H23.7z M30.2,14.6l-0.7-2.2h-2.2l-0.8,2.2H30.2z"/>
	<path class="st0" d="M13.9,16.6c-0.6,0-1-0.4-1-1s0.4-1,1-1h28.8c0.6,0,1,0.4,1,1v0.1l0,0.1c-0.2,0.5-0.6,0.8-1.1,0.8H13.9z"/>
	<g>
		<path class="st0" d="M26.4,34.6H15.9c-0.3,0-0.5-0.2-0.5-0.5s0.2-0.5,0.5-0.5h10.5c0.3,0,0.5,0.2,0.5,0.5
			C26.9,34.4,26.6,34.6,26.4,34.6z"/>
	</g>
	<g>
		<path class="st0" d="M21.4,36.7h-5.5c-0.3,0-0.5-0.2-0.5-0.5s0.2-0.5,0.5-0.5h5.5c0.3,0,0.5,0.2,0.5,0.5S21.7,36.7,21.4,36.7z"/>
	</g>
	<g>
		<path class="st0" d="M36.5,36.7h-2.1c-0.3,0-0.5-0.2-0.5-0.5v-2.1c0-0.3,0.2-0.5,0.5-0.5h2.1c0.3,0,0.5,0.2,0.5,0.5v2.1
			C37,36.5,36.8,36.7,36.5,36.7z M34.9,35.7H36v-1.1h-1.1V35.7z"/>
	</g>
	<g>
		<path class="st0" d="M40.7,36.7h-2.1c-0.3,0-0.5-0.2-0.5-0.5v-2.1c0-0.3,0.2-0.5,0.5-0.5h2.1c0.3,0,0.5,0.2,0.5,0.5v2.1
			C41.2,36.5,41,36.7,40.7,36.7z M39.1,35.7h1.1v-1.1h-1.1V35.7z"/>
	</g>
</g>
</svg>
