<?xml version="1.0" encoding="utf-8"?>
<!-- Generator: Adobe Illustrator 24.0.1, SVG Export Plug-In . SVG Version: 6.00 Build 0)  -->
<svg version="1.1" id="Capa_1" xmlns="http://www.w3.org/2000/svg" xmlns:xlink="http://www.w3.org/1999/xlink" x="0px" y="0px"
	 viewBox="0 0 228 37.7" style="enable-background:new 0 0 228 37.7;" xml:space="preserve">
<style type="text/css">
	.st0{fill:#333333;}
</style>
<g>
	<path class="st0" d="M117.2,37.7c-6.3,0-12.1-3.1-15.6-8.2c-0.1-0.1-0.2-0.2-0.2-0.3s0.1-0.3,0.2-0.5c0.1-0.1,0.2-0.2,0.3-0.2
		c0.2,0,0.3,0.1,0.5,0.2c3.2,4.9,8.8,7.8,14.6,7.8c9.8,0,17.7-7.9,17.7-17.7s-7.9-17.7-17.7-17.7c-9.6,0-17.4,7.5-17.7,17
		c0,0.3-0.2,0.5-0.5,0.5c-0.3,0-0.5-0.2-0.5-0.5C98.8,7.9,107.2,0,117.3,0c10.4,0,18.9,8.5,18.9,18.9S127.6,37.7,117.2,37.7z"/>
	<path class="st0" d="M98.8,18.9c-0.2,0-0.5-0.1-0.6-0.3l-2.4-3.1l0.8-0.8l2.2,2.6c0,0.1,0.1,0.1,0.2,0.1c0,0,0.1,0,0.1-0.1l2.6-2.3
		l0.8,0.8l-3,2.7C99.2,18.8,99.1,18.9,98.8,18.9z"/>
	<path class="st0" d="M106.2,29.7c-0.3,0-0.5-0.2-0.5-0.5V11.7c0-0.1,0-0.2,0.2-0.4l2.7-3.1c0.1-0.1,0.2-0.2,0.5-0.2h16.6
		c0.2,0,0.3,0.1,0.5,0.2l2.7,3.2c0.2,0.2,0.2,0.2,0.2,0.4v17.5c-0.2,0.4-0.4,0.5-0.6,0.5L106.2,29.7L106.2,29.7z M127.6,28.6V11.9
		l-2.4-2.8h-16.1l-2.3,2.8v16.7H127.6z"/>
	<path class="st0" d="M107.8,26.4c-0.3,0-0.5-0.2-0.5-0.5c0-0.3,0.2-0.5,0.5-0.5h7.9c0.3,0,0.5,0.2,0.5,0.5
		c-0.1,0.4-0.3,0.5-0.5,0.5H107.8z"/>
	<path class="st0" d="M107.8,27.9c-0.3,0-0.5-0.2-0.5-0.5c0-0.3,0.2-0.5,0.5-0.5h4.1c0.3,0,0.5,0.2,0.5,0.5c0,0.3-0.2,0.5-0.5,0.5
		H107.8z"/>
	<path class="st0" d="M121.8,27.9c-0.3,0-0.5-0.2-0.5-0.5v-1.6c0-0.3,0.2-0.5,0.5-0.5h1.6c0.3,0,0.5,0.2,0.5,0.5v1.6
		c0,0.3-0.2,0.5-0.5,0.5H121.8z M122.8,26.8v-0.4h-0.5v0.5L122.8,26.8L122.8,26.8z"/>
	<path class="st0" d="M125,27.9c-0.3,0-0.5-0.2-0.5-0.5v-1.6c0-0.3,0.2-0.5,0.5-0.5h1.6c0.3,0,0.5,0.2,0.5,0.5v1.6
		c0,0.3-0.2,0.5-0.5,0.5H125z M126,26.8v-0.4h-0.5v0.5L126,26.8L126,26.8z"/>
	<path class="st0" d="M114.1,15.4v-4.2h6v4.2H114.1z M119.1,14.3v-2h-3.8v2H119.1z"/>
	<path class="st0" d="M113.9,12.2l1.5-4.2h3.5l1.6,4.2H113.9z M118.9,11.2l-0.7-2h-1.9l-0.8,2H118.9z"/>
	<path class="st0" d="M106.2,12.2c-0.3,0-0.5-0.2-0.5-0.5s0.2-0.5,0.5-0.5h22c0.3,0,0.5,0.2,0.5,0.5c-0.2,0.4-0.4,0.5-0.6,0.5H106.2
		z"/>
</g>
<g>
	<path class="st0" d="M46,15.8c-0.3,0-0.5-0.2-0.5-0.5V8.5c0-4.1-3.3-7.4-7.4-7.4s-7.3,3.3-7.3,7.3v6.7c0,0.3-0.2,0.5-0.5,0.5
		c-0.3,0-0.5-0.2-0.5-0.5V8.5C29.6,3.8,33.4,0,38,0s8.5,3.8,8.5,8.5v6.7C46.4,15.6,46.2,15.8,46,15.8z"/>
	<path class="st0" d="M27.5,37.7c-1.3,0-2.4-1.2-2.4-2.6V20.2c0-1.4,1.1-2.6,2.4-2.6h21.1c1.3,0,2.4,1.2,2.4,2.6v14.9
		c0.1,0.7-0.2,1.4-0.7,1.9c-0.5,0.5-1.1,0.8-1.7,0.8H27.5z M27.5,18.6c-0.8,0-1.3,0.7-1.3,1.5v14.9c0,0.8,0.6,1.5,1.3,1.5h21.1
		c0.8,0,1.3-0.7,1.3-1.5V20.2c0-0.8-0.6-1.5-1.3-1.5H27.5z"/>
	<path class="st0" d="M38,32.3c-0.9,0-1.7-0.8-1.7-1.7v-3.2c-0.6-0.5-0.9-1.1-0.9-2c0-1.4,1.1-2.6,2.6-2.6c1.4,0,2.6,1.1,2.6,2.6
		c0,0.8-0.3,1.5-0.9,2v3.2C39.6,31.6,38.9,32.3,38,32.3z M38,24.1c-0.8,0-1.4,0.7-1.4,1.4c0,0.5,0.2,0.9,0.7,1.2
		c0.1,0.1,0.2,0.2,0.2,0.5v3.5c0,0.3,0.2,0.5,0.5,0.5c0.4,0,0.5-0.2,0.5-0.5v-3.5c0-0.2,0.2-0.4,0.2-0.5c0.5-0.3,0.7-0.8,0.7-1.2
		C39.5,24.7,38.9,24.1,38,24.1z"/>
</g>
<g>
	<path class="st0" d="M172.2,31c-0.3,0-0.5-0.2-0.5-0.5c0-0.3,0.2-0.5,0.5-0.5h2.7c0.3,0,0.5,0.2,0.5,0.5c0,0.3-0.2,0.5-0.5,0.5
		H172.2z"/>
	<path class="st0" d="M190.3,31c-0.3,0-0.5-0.2-0.5-0.5c0-0.3,0.2-0.5,0.5-0.5h6c0.3,0,0.5,0.2,0.5,0.5c0,0.3-0.2,0.5-0.5,0.5H190.3
		z"/>
	<path class="st0" d="M211.6,31c-0.3,0-0.5-0.2-0.5-0.5c0-0.3,0.2-0.5,0.5-0.5h1.1c0.8,0,1.4-0.6,1.4-1.4v-7.2
		c0-1.1-0.4-1.9-1.1-2.6l-2.2-2.2c-0.1-0.1-0.2-0.2-0.2-0.4s0.1-0.3,0.2-0.4c0.1-0.1,0.2-0.2,0.4-0.2s0.3,0.1,0.4,0.2l2.2,2.2
		c0.9,0.9,1.4,2.1,1.4,3.3v7.2c0,1.3-1.1,2.4-2.4,2.4C212.8,31,211.6,31,211.6,31z"/>
	<path class="st0" d="M201.1,16.7c-0.3,0-0.5-0.2-0.5-0.5c0-0.3,0.2-0.5,0.5-0.5h9.3l-3.4-6.9c-0.4-1-1.4-1.5-2.4-1.5h-6
		c-0.3,0-0.5-0.2-0.5-0.5V4.2c0-0.8-0.6-1.4-1.4-1.4h-22.5c-0.3,0-0.5-0.2-0.5-0.5c0-0.2,0.2-0.5,0.5-0.5h22.5
		c1.3,0,2.4,1.1,2.4,2.4v1.9h5.5c1.4,0,2.6,0.8,3.3,2.1l3.7,7.7c0.1,0.2,0.1,0.3,0,0.5c-0.1,0.2-0.3,0.3-0.4,0.3L201.1,16.7
		L201.1,16.7z"/>
	<path class="st0" d="M170.7,10.6c-0.3,0-0.5-0.2-0.5-0.5c0-0.3,0.2-0.5,0.5-0.5h14.5c0.3,0,0.5,0.2,0.5,0.5c0,0.3-0.3,0.5-0.5,0.5
		H170.7z"/>
	<path class="st0" d="M165.3,16.8c-0.3,0-0.5-0.2-0.5-0.5c0-0.2,0.2-0.5,0.5-0.5h17.5c0.3,0,0.5,0.2,0.5,0.5c0,0.3-0.2,0.5-0.5,0.5
		H165.3z"/>
	<path class="st0" d="M167.9,23c-0.3,0-0.5-0.2-0.5-0.5c0-0.3,0.2-0.5,0.5-0.5h11.8c0.3,0,0.5,0.2,0.5,0.5c0,0.3-0.2,0.5-0.5,0.5
		H167.9z"/>
	<path class="st0" d="M182.6,35.9c-3,0-5.4-2.5-5.4-5.4s2.5-5.4,5.4-5.4c3,0,5.4,2.5,5.4,5.4S185.6,35.9,182.6,35.9z M182.6,25.9
		c-2.5,0-4.5,2-4.5,4.5s2,4.5,4.5,4.5s4.5-2,4.5-4.5C187,27.9,185.1,25.9,182.6,25.9z"/>
	<path class="st0" d="M203.9,35.9c-3,0-5.4-2.5-5.4-5.4s2.5-5.4,5.4-5.4c3,0,5.4,2.5,5.4,5.4S206.9,35.9,203.9,35.9z M203.9,25.9
		c-2.5,0-4.5,2-4.5,4.5s2,4.5,4.5,4.5c2.5,0,4.5-2,4.5-4.5C208.4,27.9,206.4,25.9,203.9,25.9z"/>
</g>
</svg>
