<?xml version="1.0" encoding="utf-8"?>
<!-- Generator: Adobe Illustrator 24.0.1, SVG Export Plug-In . SVG Version: 6.00 Build 0)  -->
<svg version="1.1" id="Capa_1" xmlns="http://www.w3.org/2000/svg" xmlns:xlink="http://www.w3.org/1999/xlink" x="0px" y="0px"
	 viewBox="0 0 80.2 50" style="enable-background:new 0 0 80.2 50;" xml:space="preserve">
<style type="text/css">
	.st0{fill:#0073A5;}
	.st1{fill:#FFFFFF;}
</style>
<path class="st0" d="M80.2,47.3c0,1.5-1.2,2.7-2.7,2.7H2.7C1.2,50,0,48.8,0,47.3V2.7C0,1.2,1.2,0,2.7,0h74.9c1.5,0,2.7,1.2,2.7,2.7
	V47.3z"/>
<g>
	<path class="st1" d="M24.9,23.8V23l-0.4,0.8h-3.3L20.8,23v0.9h-6.2l-0.7-1.7h-1.2l-0.8,1.7H8.7v-5.2l2.4-5.3h4.5l0.6,1.5v-1.5h5.5
		l1.2,2.5l1.2-2.6h17.4c0,0,0.9,0,1.5,0.4l0-0.4h4.4v0.6c0,0,0.8-0.6,2-0.6c1.2,0,7.7,0,7.7,0l0.7,1.5v-1.5h5l0.9,1.5v-1.5h4.7v10.6
		h-4.9L62.3,22v1.8h-6l-0.9-1.9h-1.2l-0.8,1.9h-3.7c0,0-1.4,0-2.4-0.7c0,0.4,0,0.7,0,0.7h-7.3c0,0,0-2.1,0-2.5
		c0-0.4-0.3-0.3-0.3-0.3h-0.3v2.8H24.9z"/>
	<path class="st1" d="M21.3,26.1h9.6l1.4,1.6l1.4-1.6H41c0,0,0.7,0,1.3,0.4v-0.4c0,0,5.7,0,6.6,0c0.8,0,1.5,0.4,1.5,0.4v-0.4h8.4
		v0.4c0,0,0.6-0.4,1.4-0.4c0.8,0,5.5,0,5.5,0v0.4c0,0,0.7-0.4,1.4-0.4c0.7,0,4.3,0,4.3,0v10c0,0-0.6,0.6-1.7,0.6h-5.7v-0.3
		c0,0-0.5,0.3-1.4,0.3c-0.8,0-15.1,0-15.1,0s0-2.3,0-2.6c0-0.3-0.1-0.3-0.3-0.3h-0.2v2.9h-4.7v-2.9c0,0-0.5,0.3-1.4,0.3
		c-0.9,0-1.7,0-1.7,0v2.6h-5.8l-1.3-1.6l-1.4,1.6h-9.4V26.1z"/>
	<polygon class="st0" points="51.5,27.7 57.5,27.7 57.5,29.3 53.3,29.3 53.3,30.7 57.4,30.7 57.4,32.1 53.3,32.1 53.3,33.6 
		57.5,33.6 57.5,35.2 51.5,35.2 	"/>
	<path class="st0" d="M69.1,30.6c2.3,0.1,2.4,1.2,2.4,2.4c0,1.4-1.2,2.2-2.4,2.2h-3.9v-1.6h3c0.5,0,1.3,0,1.3-0.7
		c0-0.3-0.1-0.6-0.7-0.6c-0.2,0-1.1-0.1-1.3-0.1c-2-0.1-2.5-1.1-2.5-2.3c0-1.4,1-2.2,2.2-2.2h3.9v1.6h-2.8c-0.6,0-1.3-0.1-1.3,0.7
		c0,0.5,0.3,0.6,0.8,0.6C68,30.6,69,30.6,69.1,30.6z"/>
	<path class="st0" d="M62.2,30.6c2.3,0.1,2.4,1.2,2.4,2.4c0,1.4-1.2,2.2-2.4,2.2h-3.9v-1.6h3c0.5,0,1.3,0,1.3-0.7
		c0-0.3-0.1-0.6-0.7-0.6c-0.2,0-1.1-0.1-1.3-0.1c-2-0.1-2.5-1.1-2.5-2.3c0-1.4,1-2.2,2.2-2.2h3.9v1.6h-2.8c-0.6,0-1.3-0.1-1.3,0.7
		c0,0.5,0.3,0.6,0.8,0.6C61,30.6,62,30.6,62.2,30.6z"/>
	<path class="st0" d="M40.4,27.7h-6.5l-2.1,2.3l-2-2.3h-7.2v7.5h7l2.2-2.5l2.2,2.5h3.5v-2.5h2.5c1,0,2.7,0,2.7-2.7
		C42.6,28.1,41.3,27.7,40.4,27.7z M28.6,33.6h-4.2v-1.5h4.1v-1.4h-4.1v-1.4l4.5,0l1.8,2L28.6,33.6z M35.6,34.5L33,31.4l2.6-2.9V34.5
		z M39.8,31.1h-2.3v-1.8h2.3c0.8,0,1,0.5,1,0.9C40.8,30.7,40.5,31.1,39.8,31.1z"/>
	<path class="st0" d="M49.3,31.8c1-0.5,1.3-1.2,1.3-2.1c0-1.6-1.3-2-2.2-2h-4.8v7.5h1.8v-2.6h2.4c0.6,0,0.9,0.6,0.9,1.3l0,1.4h1.8
		l-0.1-1.5C50.5,32.5,50.1,31.9,49.3,31.8z M47.7,31h-2.3v-1.7h2.3c0.8,0,1,0.5,1,0.9C48.7,30.7,48.4,31,47.7,31z"/>
	<rect x="44.3" y="14.8" class="st0" width="1.8" height="7.5"/>
	<polygon class="st0" points="29.2,14.8 35.2,14.8 35.2,16.4 31.1,16.4 31.1,17.8 35.1,17.8 35.1,19.2 31.1,19.2 31.1,20.7 
		35.2,20.7 35.2,22.3 29.2,22.3 	"/>
	<path class="st0" d="M42.1,18.9c1-0.5,1.3-1.2,1.3-2.1c0-1.6-1.3-2-2.2-2h-4.8v7.5h1.8v-2.6h2.4c0.6,0,0.9,0.6,0.9,1.3l0,1.4h1.8
		l-0.1-1.5C43.3,19.5,42.9,19,42.1,18.9z M40.5,18.1h-2.3v-1.7h2.3c0.8,0,1,0.5,1,0.9C41.5,17.8,41.2,18.1,40.5,18.1z"/>
	<path class="st0" d="M25,14.8l-2.3,5l-2.2-5h-2.9V22l-3.2-7.2H12l-3.3,7.5h1.9l0.7-1.7H15l0.7,1.7h3.7v-5.6l2.5,5.6h1.7l2.5-5.5
		v5.5h1.8v-7.5H25z M12,19l1.1-2.6l1.1,2.6H12z"/>
	<path class="st0" d="M65.1,14.8V20L62,14.8h-2.7v7l-3.1-7h-2.4l-2.5,5.8c0,0-1.1,0-1.2,0c-0.4-0.1-1.1-0.4-1.1-1.7v-0.5
		c0-1.8,1-1.9,2.2-1.9h1.1v-1.6h-2.4c-0.8,0-2.7,0.6-2.7,3.7c0,2.1,0.9,3.8,2.9,3.8h2.4l0.7-1.7h3.7l0.7,1.7h3.6v-5.5l3.3,5.5h2.5
		v-7.5H65.1z M53.8,19l1.1-2.6l1.2,2.6H53.8z"/>
</g>
</svg>
