<?xml version="1.0" encoding="utf-8"?>
<!-- Generator: Adobe Illustrator 24.0.1, SVG Export Plug-In . SVG Version: 6.00 Build 0)  -->
<svg version="1.1" id="Capa_1" xmlns="http://www.w3.org/2000/svg" xmlns:xlink="http://www.w3.org/1999/xlink" x="0px" y="0px"
	 viewBox="0 0 80.2 50" style="enable-background:new 0 0 80.2 50;" xml:space="preserve">
<style type="text/css">
	.st0{fill:#00437F;}
	.st1{fill:#FF152B;}
	.st2{fill:#0084C7;}
	.st3{fill:#FFFFFF;}
	.st4{fill:none;stroke:#FFFFFF;stroke-width:0.215;}
</style>
<path class="st0" d="M80.2,47.3c0,1.5-1.2,2.7-2.7,2.7H2.7C1.2,50,0,48.8,0,47.3V2.7C0,1.2,1.2,0,2.7,0h74.9c1.5,0,2.7,1.2,2.7,2.7
	V47.3z"/>
<g>
	<polygon class="st1" points="49.6,39.4 50.4,39.3 51.1,39.3 51.8,39.2 52.5,39.1 53.2,38.9 53.9,38.7 54.6,38.5 55.2,38.2 
		55.9,37.9 56.5,37.6 57.1,37.3 57.7,36.9 58.2,36.5 58.8,36.1 59.3,35.6 59.8,35.1 60.3,34.6 60.7,34.1 61.2,33.6 61.6,33 
		61.9,32.4 62.3,31.8 62.6,31.2 62.9,30.6 63.1,29.9 63.4,29.3 63.6,28.6 63.7,27.9 63.8,27.2 63.9,26.4 64,25.7 64,25 64,24.2 
		63.9,23.5 63.8,22.8 63.7,22.1 63.6,21.4 63.4,20.7 63.1,20.1 62.9,19.4 62.6,18.8 62.3,18.2 61.9,17.6 61.6,17 61.2,16.4 
		60.7,15.9 60.3,15.3 59.8,14.8 59.3,14.4 58.8,13.9 58.2,13.5 57.7,13.1 57.1,12.7 56.5,12.4 55.9,12.1 55.2,11.8 54.6,11.5 
		53.9,11.3 53.2,11.1 52.5,10.9 51.8,10.8 51.1,10.7 50.4,10.7 49.6,10.6 48.9,10.7 48.2,10.7 47.4,10.8 46.7,10.9 46,11.1 
		45.4,11.3 44.7,11.5 44,11.8 43.4,12.1 42.8,12.4 42.2,12.7 41.6,13.1 41,13.5 40.5,13.9 40,14.4 39.5,14.8 39,15.3 38.6,15.9 
		38.1,16.4 37.7,17 37.4,17.6 37,18.2 36.7,18.8 36.4,19.4 36.2,20.1 35.9,20.7 35.7,21.4 35.6,22.1 35.4,22.8 35.4,23.5 35.3,24.2 
		35.3,25 35.3,25.7 35.4,26.4 35.4,27.2 35.6,27.9 35.7,28.6 35.9,29.3 36.2,29.9 36.4,30.6 36.7,31.2 37,31.8 37.4,32.4 37.7,33 
		38.1,33.6 38.6,34.1 39,34.6 39.5,35.1 40,35.6 40.5,36.1 41,36.5 41.6,36.9 42.2,37.3 42.8,37.6 43.4,37.9 44,38.2 44.7,38.5 
		45.4,38.7 46,38.9 46.7,39.1 47.4,39.2 48.2,39.3 48.9,39.3 	"/>
	<polygon class="st2" points="30.6,39.4 31.3,39.3 32.1,39.3 32.8,39.2 33.5,39.1 34.2,38.9 34.9,38.7 35.5,38.5 36.2,38.2 
		36.8,37.9 37.4,37.6 38,37.3 38.6,36.9 39.2,36.5 39.7,36.1 40.2,35.6 40.7,35.1 41.2,34.6 41.7,34.1 42.1,33.6 42.5,33 42.9,32.4 
		43.2,31.8 43.5,31.2 43.8,30.6 44.1,29.9 44.3,29.3 44.5,28.6 44.7,27.9 44.8,27.2 44.9,26.4 44.9,25.7 44.9,25 44.9,24.2 
		44.9,23.5 44.8,22.8 44.7,22.1 44.5,21.4 44.3,20.7 44.1,20.1 43.8,19.4 43.5,18.8 43.2,18.2 42.9,17.6 42.5,17 42.1,16.4 
		41.7,15.9 41.2,15.3 40.7,14.8 40.2,14.4 39.7,13.9 39.2,13.5 38.6,13.1 38,12.7 37.4,12.4 36.8,12.1 36.2,11.8 35.5,11.5 
		34.9,11.3 34.2,11.1 33.5,10.9 32.8,10.8 32.1,10.7 31.3,10.7 30.6,10.6 29.9,10.7 29.1,10.7 28.4,10.8 27.7,10.9 27,11.1 
		26.3,11.3 25.7,11.5 25,11.8 24.4,12.1 23.7,12.4 23.1,12.7 22.6,13.1 22,13.5 21.4,13.9 20.9,14.4 20.4,14.8 20,15.3 19.5,15.9 
		19.1,16.4 18.7,17 18.3,17.6 18,18.2 17.6,18.8 17.3,19.4 17.1,20.1 16.9,20.7 16.7,21.4 16.5,22.1 16.4,22.8 16.3,23.5 16.2,24.2 
		16.2,25 16.2,25.7 16.3,26.4 16.4,27.2 16.5,27.9 16.7,28.6 16.9,29.3 17.1,29.9 17.3,30.6 17.6,31.2 18,31.8 18.3,32.4 18.7,33 
		19.1,33.6 19.5,34.1 20,34.6 20.4,35.1 20.9,35.6 21.4,36.1 22,36.5 22.6,36.9 23.1,37.3 23.7,37.6 24.4,37.9 25,38.2 25.7,38.5 
		26.3,38.7 27,38.9 27.7,39.1 28.4,39.2 29.1,39.3 29.9,39.3 	"/>
	<polygon class="st1" points="38.3,16.1 45.6,16.1 45.6,15.3 39,15.3 	"/>
	<polygon class="st1" points="37.2,17.8 45.6,17.8 45.6,17 37.7,17 	"/>
	<polygon class="st1" points="36.3,19.5 45.6,19.5 45.6,18.7 36.7,18.7 	"/>
	<polygon class="st1" points="35.8,21.2 45.6,21.2 45.6,20.4 36,20.4 	"/>
	<polygon class="st1" points="35.4,22.9 45.6,22.9 45.6,22.1 35.6,22.1 	"/>
	<polygon class="st1" points="35.4,26.2 45.6,26.2 45.6,25.4 35.3,25.4 	"/>
	<polygon class="st1" points="35.6,28 45.6,28 45.6,27.2 35.5,27.2 	"/>
	<polygon class="st1" points="36.1,29.5 45.6,29.5 45.6,28.7 35.8,28.7 	"/>
	<polygon class="st1" points="36.8,31.3 45.6,31.3 45.6,30.5 36.4,30.5 	"/>
	<polygon class="st1" points="37.8,33.1 45.6,33.1 45.6,32.3 37.3,32.3 	"/>
	<polygon class="st1" points="39.1,34.8 45.6,34.8 45.6,34 38.4,34 	"/>
	<g>
		<g>
			<polygon class="st1" points="61.6,33.8 61.7,33.7 61.8,33.5 61.8,33.4 62,33.4 62.1,33.3 62.2,33.2 62.3,33.2 62.5,33.2 
				62.6,33.3 62.7,33.4 62.8,33.4 62.9,33.5 63,33.7 63,33.8 62.9,33.8 62.8,33.7 62.8,33.6 62.7,33.5 62.6,33.4 62.6,33.4 
				62.4,33.4 62.3,33.4 62.2,33.4 62.1,33.4 62,33.4 61.9,33.5 61.9,33.6 61.8,33.7 61.8,33.8 			"/>
			<polygon class="st1" points="62.1,33.8 62.1,33.6 62.4,33.6 62.4,33.6 62.5,33.6 62.5,33.6 62.6,33.7 62.6,33.7 62.6,33.7 
				62.6,33.7 62.6,33.8 62.5,33.8 62.5,33.8 62.5,33.8 62.5,33.7 62.5,33.7 62.5,33.7 62.4,33.7 62.4,33.7 62.4,33.7 62.4,33.7 
				62.2,33.7 62.2,33.8 			"/>
			<polygon class="st1" points="61.6,33.9 61.6,33.8 61.6,33.8 61.8,33.8 61.8,33.8 61.8,33.9 			"/>
			<polygon class="st1" points="62.1,33.9 62.1,33.8 62.2,33.8 62.2,33.9 62.3,33.9 62.4,33.9 62.4,33.9 62.4,33.9 62.5,33.9 
				62.5,33.9 62.5,33.8 62.5,33.8 62.5,33.8 62.6,33.8 62.6,33.8 62.6,33.8 62.6,33.9 62.6,33.9 62.6,33.9 			"/>
			<polygon class="st1" points="62.9,33.9 62.9,33.8 62.9,33.8 63,33.8 63,33.8 63,33.9 			"/>
			<polygon class="st1" points="61.6,33.9 61.6,33.9 61.6,34.1 61.7,34.2 61.8,34.3 61.8,34.4 62,34.5 62.1,34.6 62.2,34.6 
				62.3,34.6 62.5,34.6 62.6,34.6 62.7,34.5 62.8,34.4 62.9,34.3 63,34.2 63,34.1 63,33.9 63,33.9 62.9,33.9 62.9,33.9 62.9,34.1 
				62.8,34.2 62.8,34.3 62.7,34.4 62.6,34.4 62.6,34.5 62.4,34.5 62.3,34.5 62.2,34.5 62.1,34.5 62,34.4 61.9,34.4 61.9,34.3 
				61.8,34.2 61.8,34.1 61.8,33.9 61.8,33.9 			"/>
			<polygon class="st1" points="62.1,33.9 62.1,34.2 62.2,34.2 62.2,34 62.3,34 62.5,34.2 62.6,34.2 62.4,34 62.5,34 62.5,34 
				62.5,33.9 62.6,33.9 62.6,33.9 			"/>
		</g>
	</g>
	<polygon class="st3" points="46.5,23.8 46.4,23.8 46.3,23.8 46.2,23.7 46.2,23.7 46.1,23.7 46,23.7 45.9,23.7 45.8,23.7 45.7,23.7 
		45.6,23.7 45.5,23.6 45.4,23.6 45.2,23.6 45.1,23.6 44.9,23.7 44.7,23.7 44.6,23.7 44.4,23.7 44.3,23.8 44.2,23.8 44.1,23.8 
		44,23.9 44,24 43.9,24 43.9,24.1 43.8,24.2 43.8,24.3 43.8,24.4 43.8,24.4 43.9,24.5 43.9,24.6 44,24.7 44.1,24.8 44.3,24.9 
		44.5,25 44.7,25.1 44.9,25.2 45.1,25.2 45.3,25.3 45.6,25.4 45.8,25.5 46,25.7 46.1,25.8 46.3,26 46.4,26.3 46.4,26.6 46.5,27 
		46.4,27.4 46.4,27.7 46.3,28 46.2,28.2 46.1,28.5 45.9,28.7 45.7,28.8 45.5,29 45.3,29.1 45.1,29.2 44.9,29.3 44.7,29.4 44.4,29.4 
		44.2,29.4 44,29.5 43.7,29.5 43.5,29.5 43.2,29.5 43,29.5 42.7,29.5 42.5,29.5 42.3,29.5 42.1,29.5 42,29.4 41.8,29.4 41.7,29.4 
		41.5,29.4 41.4,29.4 41.3,29.3 41.2,29.3 41.1,29.3 41,29.2 40.8,29.2 41.1,27.7 41.2,27.7 41.3,27.7 41.4,27.8 41.5,27.8 
		41.6,27.8 41.8,27.8 41.9,27.9 42.1,27.9 42.2,27.9 42.4,27.9 42.6,28 42.8,28 43,28 43.2,28 43.4,28 43.6,28 43.8,28 43.9,27.9 
		44,27.8 44.1,27.7 44.2,27.6 44.3,27.5 44.3,27.4 44.3,27.3 44.3,27.2 44.3,27.1 44.3,27 44.3,27 44.2,26.9 44.2,26.8 44.1,26.8 
		44,26.7 43.9,26.7 43.8,26.6 43.7,26.5 43.5,26.5 43.4,26.5 43.3,26.4 43.2,26.3 43,26.3 42.9,26.2 42.8,26.2 42.6,26.1 42.5,26 
		42.4,25.9 42.3,25.9 42.2,25.8 42.1,25.6 42,25.5 41.9,25.4 41.8,25.2 41.8,25.1 41.7,24.9 41.7,24.7 41.7,24.5 41.7,24.3 
		41.7,24.2 41.7,24 41.8,23.9 41.8,23.8 41.8,23.7 41.9,23.5 41.9,23.4 41.9,23.3 42,23.2 42,23.1 42.1,23 42.2,22.9 42.2,22.9 
		42.3,22.8 42.4,22.7 42.5,22.6 42.6,22.6 42.7,22.5 42.8,22.5 42.9,22.4 43,22.3 43.1,22.3 43.3,22.3 43.4,22.2 43.6,22.2 
		43.7,22.2 43.9,22.1 44.1,22.1 44.2,22.1 44.4,22.1 44.6,22.1 44.8,22.1 45.1,22.1 45.3,22.1 45.5,22.1 45.7,22.1 45.9,22.1 
		46,22.1 46.1,22.1 46.3,22.2 46.4,22.2 46.5,22.2 46.6,22.2 46.6,22.2 46.7,22.2 46.8,22.2 46.8,22.2 46.9,22.2 	"/>
	<g>
		<g>
			<polyline class="st4" points="46.5,23.8 46.5,23.8 46.4,23.8 46.3,23.8 46.2,23.7 46.2,23.7 46.1,23.7 46,23.7 45.9,23.7 
				45.8,23.7 45.7,23.7 45.6,23.7 45.5,23.6 45.4,23.6 45.2,23.6 45.1,23.6 44.9,23.7 44.7,23.7 44.7,23.7 44.6,23.7 44.4,23.7 
				44.3,23.8 44.2,23.8 44.1,23.8 44,23.9 44,24 43.9,24 43.9,24.1 43.8,24.2 43.8,24.3 43.8,24.4 43.8,24.4 43.9,24.5 43.9,24.6 
				44,24.7 44,24.7 44.1,24.8 44.3,24.9 44.5,25 44.7,25.1 44.9,25.2 45.1,25.2 45.3,25.3 45.6,25.4 45.8,25.5 46,25.7 46.1,25.8 
				46.3,26 46.4,26.3 46.4,26.6 46.5,27 46.4,27.4 46.4,27.4 46.4,27.7 46.3,28 46.2,28.2 46.1,28.5 45.9,28.7 45.7,28.8 45.5,29 
				45.3,29.1 45.1,29.2 44.9,29.3 44.7,29.4 44.4,29.4 44.2,29.4 44,29.5 43.7,29.5 43.5,29.5 43.5,29.5 43.2,29.5 43,29.5 
				42.7,29.5 42.5,29.5 42.3,29.5 42.1,29.5 42,29.4 41.8,29.4 41.7,29.4 41.5,29.4 41.4,29.4 41.3,29.3 41.2,29.3 41.1,29.3 
				41,29.2 40.8,29.2 41.1,27.7 41.1,27.7 41.2,27.7 41.3,27.7 41.4,27.8 41.5,27.8 41.6,27.8 41.8,27.8 41.9,27.9 42.1,27.9 
				42.2,27.9 42.4,27.9 42.6,28 42.8,28 43,28 43.2,28 43.4,28 43.6,28 43.6,28 43.8,28 43.9,27.9 44,27.8 44.1,27.7 44.2,27.6 
				44.3,27.5 44.3,27.4 44.3,27.3 44.3,27.3 44.3,27.2 44.3,27.1 44.3,27 44.3,27 44.2,26.9 44.2,26.8 44.1,26.8 44,26.7 43.9,26.7 
				43.8,26.6 43.7,26.5 43.5,26.5 43.4,26.5 43.3,26.4 43.2,26.3 43,26.3 42.9,26.2 42.8,26.2 42.6,26.1 42.5,26 42.4,25.9 
				42.3,25.9 42.2,25.8 42.1,25.6 42,25.5 41.9,25.4 41.8,25.2 41.8,25.1 41.7,24.9 41.7,24.7 41.7,24.5 41.7,24.3 41.7,24.3 
				41.7,24.2 41.7,24 41.8,23.9 41.8,23.8 41.8,23.7 41.9,23.5 41.9,23.4 41.9,23.3 42,23.2 42,23.1 42.1,23 42.2,22.9 42.2,22.9 
				42.3,22.8 42.4,22.7 42.5,22.6 42.6,22.6 42.7,22.5 42.8,22.5 42.9,22.4 43,22.3 43.1,22.3 43.3,22.3 43.4,22.2 43.6,22.2 
				43.7,22.2 43.9,22.1 44.1,22.1 44.2,22.1 44.4,22.1 44.6,22.1 44.8,22.1 44.8,22.1 45.1,22.1 45.3,22.1 45.5,22.1 45.7,22.1 
				45.9,22.1 46,22.1 46.1,22.1 46.3,22.2 46.4,22.2 46.5,22.2 46.6,22.2 46.6,22.2 46.7,22.2 46.8,22.2 46.8,22.2 46.9,22.2 
				46.5,23.8 			"/>
		</g>
	</g>
	<polygon class="st3" points="48.1,20.6 50,20.6 49.7,22.3 50.8,22.3 50.6,23.8 49.4,23.7 48.8,27.5 48.7,27.6 48.7,27.7 48.8,27.7 
		48.8,27.8 48.8,27.8 48.8,27.9 48.9,27.9 48.9,27.9 49,28 49,28 49.1,28 49.2,28 49.2,28 49.3,28 49.4,28 49.5,28 49.6,28 49.8,28 
		49.9,28 50,28 50.1,28 50.1,27.9 50.2,27.9 50.2,27.9 50,29.2 49.9,29.2 49.9,29.3 49.8,29.3 49.8,29.3 49.7,29.3 49.7,29.3 
		49.6,29.4 49.6,29.4 49.5,29.4 49.4,29.4 49.3,29.4 49.3,29.4 49.2,29.4 49.1,29.5 49,29.5 48.9,29.5 48.3,29.5 48.1,29.5 
		47.8,29.4 47.6,29.4 47.4,29.4 47.3,29.3 47.2,29.2 47,29.1 47,29.1 46.9,29 46.8,28.8 46.8,28.7 46.8,28.6 46.8,28.5 46.8,28.3 
		46.8,28.2 46.8,28 	"/>
	<g>
		<g>
			<polyline class="st4" points="48.1,20.6 50,20.6 49.7,22.3 50.8,22.3 50.6,23.8 49.4,23.7 48.8,27.5 48.8,27.5 48.7,27.6 
				48.7,27.7 48.8,27.7 48.8,27.8 48.8,27.8 48.8,27.9 48.9,27.9 48.9,27.9 49,28 49,28 49.1,28 49.2,28 49.2,28 49.3,28 49.4,28 
				49.5,28 49.5,28 49.6,28 49.8,28 49.9,28 50,28 50.1,28 50.1,27.9 50.2,27.9 50.2,27.9 50,29.2 50,29.2 49.9,29.2 49.9,29.3 
				49.8,29.3 49.8,29.3 49.7,29.3 49.7,29.3 49.6,29.4 49.6,29.4 49.5,29.4 49.4,29.4 49.3,29.4 49.3,29.4 49.2,29.4 49.1,29.5 
				49,29.5 48.9,29.5 48.3,29.5 48.3,29.5 48.1,29.5 47.8,29.4 47.6,29.4 47.4,29.4 47.3,29.3 47.2,29.2 47,29.1 47,29.1 46.9,29 
				46.8,28.8 46.8,28.7 46.8,28.6 46.8,28.5 46.8,28.3 46.8,28.2 46.8,28 48.1,20.6 			"/>
		</g>
	</g>
	<polygon class="st3" points="36.5,26.3 36.5,26.5 36.5,26.6 36.5,26.7 36.6,26.8 36.6,26.9 36.7,27.1 36.7,27.2 36.8,27.3 
		36.9,27.4 37,27.5 37.1,27.6 37.2,27.7 37.3,27.8 37.5,27.9 37.6,27.9 37.8,27.9 37.9,28 38.1,28 38.3,28 38.4,28 38.6,28 38.8,28 
		39,28 39.2,28 39.3,28 39.5,27.9 39.7,27.9 39.9,27.8 40.1,27.8 40.3,27.7 40.5,27.6 40.7,27.5 40.4,29.1 40.3,29.2 40.2,29.2 
		40.1,29.3 40,29.3 39.9,29.4 39.8,29.4 39.7,29.4 39.5,29.4 39.4,29.4 39.3,29.5 39.1,29.5 39,29.5 38.8,29.5 38.6,29.5 38.4,29.5 
		38.2,29.5 38,29.5 37.9,29.5 37.7,29.5 37.5,29.5 37.4,29.4 37.2,29.4 37,29.4 36.8,29.3 36.7,29.3 36.5,29.2 36.4,29.2 36.2,29.1 
		36,29 35.9,28.9 35.7,28.8 35.6,28.7 35.5,28.6 35.3,28.5 35.2,28.4 35.1,28.2 35,28.1 34.9,27.9 34.8,27.7 34.8,27.5 34.7,27.3 
		34.6,27.1 34.6,26.9 34.6,26.7 34.5,26.4 34.5,26.2 34.6,25.9 34.6,25.6 34.6,25.5 34.6,25.4 34.6,25.3 34.7,25.2 34.7,25.1 
		34.7,24.9 34.7,24.8 34.8,24.6 34.8,24.5 34.9,24.4 34.9,24.2 35,24.1 35.1,23.9 35.2,23.8 35.3,23.6 35.3,23.5 35.5,23.3 
		35.6,23.2 35.7,23.1 35.8,23 36,22.8 36.1,22.7 36.3,22.6 36.5,22.5 36.7,22.4 36.9,22.3 37.1,22.3 37.3,22.2 37.5,22.2 37.8,22.1 
		38.1,22.1 38.3,22.1 38.5,22.1 38.6,22.1 38.7,22.1 38.9,22.1 39,22.2 39.2,22.2 39.3,22.2 39.4,22.3 39.6,22.3 39.7,22.4 
		39.8,22.4 40,22.5 40.1,22.6 40.2,22.6 40.3,22.7 40.4,22.8 40.5,22.9 40.6,23.1 40.7,23.2 40.8,23.3 40.9,23.5 41,23.6 41,23.8 
		41.1,24 41.1,24.2 41.1,24.4 41.1,24.6 41.1,24.9 41.1,25.1 41.1,25.4 41,25.7 41,25.9 40.9,26.4 36,26.4 36.3,25 39.2,25 
		39.3,24.9 39.3,24.7 39.2,24.5 39.2,24.4 39.2,24.3 39.1,24.2 39.1,24.1 39,24 38.9,23.9 38.8,23.8 38.7,23.8 38.6,23.7 38.5,23.7 
		38.4,23.6 38.3,23.6 38.2,23.6 38,23.6 37.9,23.6 37.8,23.7 37.7,23.7 37.6,23.8 37.5,23.8 37.4,23.9 37.3,24 37.2,24.1 37.1,24.2 
		37.1,24.3 37,24.4 36.9,24.5 36.9,24.6 36.8,24.8 36.8,24.9 	"/>
	<g>
		<g>
			<polyline class="st4" points="36.5,26.3 36.5,26.3 36.5,26.5 36.5,26.6 36.5,26.7 36.6,26.8 36.6,26.9 36.7,27.1 36.7,27.2 
				36.8,27.3 36.9,27.4 37,27.5 37.1,27.6 37.2,27.7 37.3,27.8 37.5,27.9 37.6,27.9 37.8,27.9 37.8,27.9 37.9,28 38.1,28 38.3,28 
				38.4,28 38.6,28 38.8,28 39,28 39.2,28 39.3,28 39.5,27.9 39.7,27.9 39.9,27.8 40.1,27.8 40.3,27.7 40.5,27.6 40.7,27.5 
				40.4,29.1 40.4,29.1 40.3,29.2 40.2,29.2 40.1,29.3 40,29.3 39.9,29.4 39.8,29.4 39.7,29.4 39.5,29.4 39.4,29.4 39.3,29.5 
				39.1,29.5 39,29.5 38.8,29.5 38.6,29.5 38.4,29.5 38.2,29.5 38.2,29.5 38,29.5 37.9,29.5 37.7,29.5 37.5,29.5 37.4,29.4 
				37.2,29.4 37,29.4 36.8,29.3 36.7,29.3 36.5,29.2 36.4,29.2 36.2,29.1 36,29 35.9,28.9 35.7,28.8 35.6,28.7 35.5,28.6 35.3,28.5 
				35.2,28.4 35.1,28.2 35,28.1 34.9,27.9 34.8,27.7 34.8,27.5 34.7,27.3 34.6,27.1 34.6,26.9 34.6,26.7 34.5,26.4 34.5,26.2 
				34.6,25.9 34.6,25.6 34.6,25.6 34.6,25.5 34.6,25.4 34.6,25.3 34.7,25.2 34.7,25.1 34.7,24.9 34.7,24.8 34.8,24.6 34.8,24.5 
				34.9,24.4 34.9,24.2 35,24.1 35.1,23.9 35.2,23.8 35.3,23.6 35.3,23.5 35.5,23.3 35.6,23.2 35.7,23.1 35.8,23 36,22.8 36.1,22.7 
				36.3,22.6 36.5,22.5 36.7,22.4 36.9,22.3 37.1,22.3 37.3,22.2 37.5,22.2 37.8,22.1 38.1,22.1 38.3,22.1 38.3,22.1 38.5,22.1 
				38.6,22.1 38.7,22.1 38.9,22.1 39,22.2 39.2,22.2 39.3,22.2 39.4,22.3 39.6,22.3 39.7,22.4 39.8,22.4 40,22.5 40.1,22.6 
				40.2,22.6 40.3,22.7 40.4,22.8 40.5,22.9 40.6,23.1 40.7,23.2 40.8,23.3 40.9,23.5 41,23.6 41,23.8 41.1,24 41.1,24.2 41.1,24.4 
				41.1,24.6 41.1,24.9 41.1,25.1 41.1,25.4 41,25.7 41,25.9 40.9,26.4 36,26.4 36.3,25 39.2,25 39.2,25 39.3,24.9 39.3,24.7 
				39.2,24.5 39.2,24.4 39.2,24.3 39.1,24.2 39.1,24.1 39,24 38.9,23.9 38.8,23.8 38.7,23.8 38.6,23.7 38.5,23.7 38.4,23.6 
				38.3,23.6 38.2,23.6 38.2,23.6 38,23.6 37.9,23.6 37.8,23.7 37.7,23.7 37.6,23.8 37.5,23.8 37.4,23.9 37.3,24 37.2,24.1 
				37.1,24.2 37.1,24.3 37,24.4 36.9,24.5 36.9,24.6 36.8,24.8 36.8,24.9 36.5,26.3 			"/>
		</g>
	</g>
	<polygon class="st3" points="33.9,28 33.7,29.5 32,29.5 32,29.3 32,29.2 32,29.1 32,29 32,28.9 32.1,28.8 32.1,28.7 32.1,28.7 
		32,28.8 31.9,28.9 31.8,29 31.6,29.1 31.5,29.2 31.3,29.3 31.1,29.3 30.9,29.4 30.7,29.5 30.5,29.5 30.3,29.6 30.1,29.6 29.9,29.6 
		29.8,29.6 29.6,29.6 29.4,29.6 29.1,29.5 28.9,29.4 28.7,29.3 28.6,29.2 28.4,29.1 28.3,29 28.2,28.9 28.1,28.7 28,28.6 27.9,28.5 
		27.9,28.3 27.8,28.2 27.8,28 27.8,27.8 27.8,27.7 27.8,27.5 27.8,27.3 27.8,27 27.9,26.8 28,26.6 28.1,26.4 28.2,26.2 28.4,26 
		28.5,25.8 28.7,25.6 28.9,25.5 29.1,25.4 29.3,25.3 29.5,25.2 29.7,25.1 30,25 30.2,25 30.2,25 30.2,25 30.3,25 30.3,25 30.4,25 
		30.5,25 30.6,24.9 30.7,24.9 30.9,24.9 31,24.9 31.1,24.9 31.2,24.9 31.3,24.9 31.4,24.9 31.5,24.9 31.6,24.9 31.6,24.9 31.7,24.9 
		31.8,24.9 31.9,24.9 32,24.9 32,24.9 32.1,24.9 32.2,24.9 32.3,24.9 32.3,24.9 32.4,24.9 32.4,24.9 32.5,24.9 32.5,24.9 32.5,24.9 
		32.5,24.9 32.5,24.9 32.6,24.7 32.6,24.6 32.6,24.5 32.6,24.4 32.6,24.3 32.5,24.2 32.5,24.2 32.5,24.1 32.4,24.1 32.4,24 
		32.3,23.9 32.3,23.9 32.2,23.9 32.1,23.8 32.1,23.8 32,23.8 31.9,23.7 31.8,23.7 31.7,23.7 31.5,23.7 31.3,23.7 31.1,23.7 
		30.9,23.7 30.7,23.8 30.5,23.8 30.3,23.8 30,23.8 29.8,23.8 29.7,23.9 29.5,23.9 29.3,23.9 29.2,24 29,24 28.9,24.1 28.9,24.1 
		29.4,22.5 29.5,22.4 29.7,22.4 29.8,22.3 30,22.3 30.1,22.2 30.3,22.2 30.5,22.2 30.7,22.2 30.8,22.2 31,22.2 31.2,22.2 31.4,22.2 
		31.7,22.2 31.9,22.2 32.1,22.2 32.3,22.2 32.5,22.2 32.7,22.2 33,22.3 33.2,22.3 33.4,22.4 33.6,22.5 33.8,22.6 34,22.7 34.2,22.9 
		34.3,23.1 34.4,23.2 34.5,23.4 34.6,23.7 34.7,23.9 34.7,24.2 34.6,24.4 	"/>
	<g>
		<g>
			<polyline class="st4" points="33.9,28 33.7,29.5 32,29.5 32,29.5 32,29.3 32,29.2 32,29.1 32,29 32,28.9 32.1,28.8 32.1,28.7 
				32.1,28.7 32.1,28.7 32,28.8 31.9,28.9 31.8,29 31.6,29.1 31.5,29.2 31.3,29.3 31.1,29.3 30.9,29.4 30.7,29.5 30.5,29.5 
				30.3,29.6 30.1,29.6 29.9,29.6 29.8,29.6 29.6,29.6 29.4,29.6 29.4,29.6 29.1,29.5 28.9,29.4 28.7,29.3 28.6,29.2 28.4,29.1 
				28.3,29 28.2,28.9 28.1,28.7 28,28.6 27.9,28.5 27.9,28.3 27.8,28.2 27.8,28 27.8,27.8 27.8,27.7 27.8,27.5 27.8,27.5 27.8,27.3 
				27.8,27 27.9,26.8 28,26.6 28.1,26.4 28.2,26.2 28.4,26 28.5,25.8 28.7,25.6 28.9,25.5 29.1,25.4 29.3,25.3 29.5,25.2 29.7,25.1 
				30,25 30.2,25 30.2,25 30.2,25 30.2,25 30.3,25 30.3,25 30.4,25 30.5,25 30.6,24.9 30.7,24.9 30.9,24.9 31,24.9 31.1,24.9 
				31.2,24.9 31.3,24.9 31.4,24.9 31.5,24.9 31.6,24.9 31.6,24.9 31.6,24.9 31.7,24.9 31.8,24.9 31.9,24.9 32,24.9 32,24.9 
				32.1,24.9 32.2,24.9 32.3,24.9 32.3,24.9 32.4,24.9 32.4,24.9 32.5,24.9 32.5,24.9 32.5,24.9 32.5,24.9 32.5,24.9 32.5,24.9 
				32.6,24.7 32.6,24.6 32.6,24.5 32.6,24.5 32.6,24.4 32.6,24.3 32.5,24.2 32.5,24.2 32.5,24.1 32.4,24.1 32.4,24 32.3,23.9 
				32.3,23.9 32.2,23.9 32.1,23.8 32.1,23.8 32,23.8 31.9,23.7 31.8,23.7 31.7,23.7 31.7,23.7 31.5,23.7 31.3,23.7 31.1,23.7 
				30.9,23.7 30.7,23.8 30.5,23.8 30.3,23.8 30,23.8 29.8,23.8 29.7,23.9 29.5,23.9 29.3,23.9 29.2,24 29,24 28.9,24.1 28.9,24.1 
				29.4,22.5 29.4,22.5 29.5,22.4 29.7,22.4 29.8,22.3 30,22.3 30.1,22.2 30.3,22.2 30.5,22.2 30.7,22.2 30.8,22.2 31,22.2 
				31.2,22.2 31.4,22.2 31.7,22.2 31.9,22.2 32.1,22.2 32.3,22.2 32.3,22.2 32.5,22.2 32.7,22.2 33,22.3 33.2,22.3 33.4,22.4 
				33.6,22.5 33.8,22.6 34,22.7 34.2,22.9 34.3,23.1 34.4,23.2 34.5,23.4 34.6,23.7 34.7,23.9 34.7,24.2 34.6,24.4 33.9,28 			"/>
		</g>
	</g>
	<polygon class="st2" points="32.3,26.2 32.3,26.2 32.3,26.1 32.2,26.1 32.2,26.1 32.1,26.1 32,26.1 31.9,26.1 31.8,26.1 31.7,26.1 
		31.6,26.1 31.5,26.1 31.3,26.2 31.2,26.2 31.1,26.2 31.1,26.2 31,26.2 30.9,26.2 30.9,26.3 30.8,26.3 30.7,26.3 30.7,26.4 
		30.6,26.4 30.5,26.4 30.4,26.5 30.3,26.6 30.2,26.6 30.1,26.7 30.1,26.8 30,26.9 30,27 29.9,27.1 29.9,27.2 29.9,27.4 29.9,27.6 
		30,27.8 30.1,27.9 30.2,27.9 30.3,28 30.4,28 30.5,28 30.7,28 30.9,28 31.1,28 31.2,27.9 31.4,27.9 31.5,27.8 31.6,27.7 31.7,27.7 
		31.8,27.6 31.9,27.5 31.9,27.4 32,27.4 32,27.3 32.1,27.2 32.1,27.1 32.1,27.1 32.2,27 32.2,26.8 32.2,26.7 32.2,26.6 32.2,26.5 
		32.3,26.4 32.3,26.3 	"/>
	<polygon class="st3" points="19.7,29.5 17.8,29.5 19.4,20.6 22.6,20.6 22.9,25.9 25.1,20.6 28.4,20.6 26.9,29.5 25,29.5 26.2,22.8 
		26.1,22.8 23.4,29.5 21.3,29.5 21.3,29.2 21.3,28.5 21.2,27.4 21.1,26.2 21.1,25 21,23.9 20.9,23.2 20.9,22.8 20.9,22.8 20.9,22.8 
		20.9,22.8 20.9,22.8 20.8,22.8 20.8,22.8 20.8,22.8 20.9,22.8 	"/>
	<g>
		<g>
			<polyline class="st4" points="19.7,29.5 17.8,29.5 19.4,20.6 22.6,20.6 22.9,25.9 25.1,20.6 28.4,20.6 26.9,29.5 25,29.5 
				26.2,22.8 26.1,22.8 23.4,29.5 21.3,29.5 21.3,29.5 21.3,29.2 21.3,28.5 21.2,27.4 21.1,26.2 21.1,25 21,23.9 20.9,23.2 
				20.9,22.8 20.9,22.8 20.9,22.8 20.9,22.8 20.9,22.8 20.9,22.8 20.8,22.8 20.8,22.8 20.8,22.8 20.9,22.8 19.7,29.5 			"/>
		</g>
	</g>
	<polygon class="st3" points="50.5,29.5 52.4,29.5 52.4,29.5 53.1,25.7 53.1,25.5 53.1,25.4 53.2,25.2 53.2,25.1 53.3,24.9 
		53.3,24.8 53.4,24.7 53.5,24.6 53.6,24.5 53.7,24.4 53.9,24.3 54.1,24.2 54.2,24.2 54.5,24.1 54.7,24.1 55,24.1 55,24.1 55,24.1 
		55,24.1 55.1,24.1 55.1,24.1 55.1,24.1 55.2,24.1 55.2,24.1 55.2,24.1 55.2,24 55.2,23.8 55.3,23.7 55.3,23.5 55.4,23.3 55.4,23.1 
		55.5,23 55.5,22.8 55.6,22.7 55.7,22.6 55.7,22.5 55.8,22.4 55.8,22.3 55.9,22.2 55.9,22.2 55.9,22.2 55.8,22.2 55.8,22.2 
		55.8,22.2 55.7,22.2 55.7,22.2 55.6,22.2 55.6,22.2 55.3,22.2 55.2,22.2 55,22.2 54.8,22.3 54.7,22.3 54.5,22.4 54.4,22.5 
		54.3,22.6 54.2,22.6 54.1,22.7 54,22.8 53.9,23 53.8,23.1 53.7,23.2 53.6,23.3 53.5,23.5 53.7,22.3 51.8,22.2 50.5,29.5 	"/>
	<g>
		<g>
			<polyline class="st4" points="50.5,29.5 52.4,29.5 52.4,29.5 53.1,25.7 53.1,25.7 53.1,25.5 53.1,25.4 53.2,25.2 53.2,25.1 
				53.3,24.9 53.3,24.8 53.4,24.7 53.5,24.6 53.6,24.5 53.7,24.4 53.9,24.3 54.1,24.2 54.2,24.2 54.5,24.1 54.7,24.1 55,24.1 
				55,24.1 55,24.1 55,24.1 55,24.1 55.1,24.1 55.1,24.1 55.1,24.1 55.2,24.1 55.2,24.1 55.2,24.1 55.2,24.1 55.2,24 55.2,23.8 
				55.3,23.7 55.3,23.5 55.4,23.3 55.4,23.1 55.5,23 55.5,23 55.5,22.8 55.6,22.7 55.7,22.6 55.7,22.5 55.8,22.4 55.8,22.3 
				55.9,22.2 55.9,22.2 55.9,22.2 55.9,22.2 55.8,22.2 55.8,22.2 55.8,22.2 55.7,22.2 55.7,22.2 55.6,22.2 55.6,22.2 55.6,22.2 
				55.3,22.2 55.2,22.2 55,22.2 54.8,22.3 54.7,22.3 54.5,22.4 54.4,22.5 54.3,22.6 54.2,22.6 54.1,22.7 54,22.8 53.9,23 53.8,23.1 
				53.7,23.2 53.6,23.3 53.5,23.5 53.7,22.3 51.8,22.2 50.5,29.5 50.5,29.5 			"/>
		</g>
	</g>
	<polygon class="st3" points="58.8,22.2 59,22.2 59.2,22.2 59.4,22.2 59.6,22.2 59.8,22.3 60,22.3 60.2,22.4 60.4,22.4 60.5,22.5 
		60.7,22.6 60.8,22.7 61,22.7 61.1,22.8 61.2,22.9 61.4,23.1 61.5,23.2 61.6,23.3 61.7,23.4 61.8,23.6 61.9,23.7 62,23.8 62,24 
		62.1,24.2 62.2,24.3 62.2,24.5 62.3,24.7 62.3,24.8 62.3,25 62.3,25.2 62.4,25.4 62.4,25.6 62.4,25.8 62.3,26 62.3,26.3 62.3,26.5 
		62.2,26.7 62.2,26.9 62.1,27.1 62.1,27.3 62,27.5 61.9,27.7 61.8,27.8 61.7,28 61.6,28.1 61.5,28.3 61.4,28.4 61.3,28.6 61.1,28.7 
		61,28.8 60.9,28.9 60.7,29 60.6,29.1 60.4,29.2 60.3,29.3 60.1,29.3 59.9,29.4 59.8,29.4 59.6,29.5 59.4,29.5 59.2,29.6 59,29.6 
		58.9,29.6 58.7,29.6 58.5,29.6 58.3,29.6 58.1,29.6 57.9,29.6 57.7,29.6 57.5,29.5 57.4,29.5 57.2,29.4 57,29.4 56.9,29.3 
		56.7,29.2 56.6,29.2 56.4,29.1 56.3,29 56.1,28.9 56,28.8 55.9,28.7 55.8,28.6 55.7,28.4 55.6,28.3 55.5,28.2 55.4,28 55.3,27.9 
		55.2,27.7 55.1,27.5 55.1,27.4 55,27.2 55,27 55,26.8 54.9,26.6 54.9,26.4 54.9,26.2 54.9,25.9 54.9,25.7 55,25.5 55,25.3 55,25.1 
		55.1,24.9 55.1,24.7 55.2,24.5 55.3,24.3 55.3,24.2 55.4,24 55.5,23.8 55.6,23.7 55.7,23.5 55.8,23.4 56,23.3 56.1,23.1 56.2,23 
		56.4,22.9 56.5,22.8 56.6,22.7 56.8,22.6 57,22.5 57.1,22.5 57.3,22.4 57.5,22.4 57.6,22.3 57.8,22.3 58,22.2 58.2,22.2 58.4,22.2 
		58.6,22.2 	"/>
	<g>
		<g>
			<polyline class="st4" points="58.8,22.2 58.8,22.2 59,22.2 59.2,22.2 59.4,22.2 59.6,22.2 59.8,22.3 60,22.3 60.2,22.4 
				60.4,22.4 60.5,22.5 60.7,22.6 60.8,22.7 61,22.7 61.1,22.8 61.2,22.9 61.4,23.1 61.5,23.2 61.6,23.3 61.7,23.4 61.8,23.6 
				61.9,23.7 62,23.8 62,24 62.1,24.2 62.2,24.3 62.2,24.5 62.3,24.7 62.3,24.8 62.3,25 62.3,25.2 62.4,25.4 62.4,25.6 62.4,25.8 
				62.4,25.8 62.3,26 62.3,26.3 62.3,26.5 62.2,26.7 62.2,26.9 62.1,27.1 62.1,27.3 62,27.5 61.9,27.7 61.8,27.8 61.7,28 61.6,28.1 
				61.5,28.3 61.4,28.4 61.3,28.6 61.1,28.7 61,28.8 60.9,28.9 60.7,29 60.6,29.1 60.4,29.2 60.3,29.3 60.1,29.3 59.9,29.4 
				59.8,29.4 59.6,29.5 59.4,29.5 59.2,29.6 59,29.6 58.9,29.6 58.7,29.6 58.5,29.6 58.5,29.6 58.3,29.6 58.1,29.6 57.9,29.6 
				57.7,29.6 57.5,29.5 57.4,29.5 57.2,29.4 57,29.4 56.9,29.3 56.7,29.2 56.6,29.2 56.4,29.1 56.3,29 56.1,28.9 56,28.8 55.9,28.7 
				55.8,28.6 55.7,28.4 55.6,28.3 55.5,28.2 55.4,28 55.3,27.9 55.2,27.7 55.1,27.5 55.1,27.4 55,27.2 55,27 55,26.8 54.9,26.6 
				54.9,26.4 54.9,26.2 54.9,25.9 54.9,25.9 54.9,25.7 55,25.5 55,25.3 55,25.1 55.1,24.9 55.1,24.7 55.2,24.5 55.3,24.3 55.3,24.2 
				55.4,24 55.5,23.8 55.6,23.7 55.7,23.5 55.8,23.4 56,23.3 56.1,23.1 56.2,23 56.4,22.9 56.5,22.8 56.6,22.7 56.8,22.6 57,22.5 
				57.1,22.5 57.3,22.4 57.5,22.4 57.6,22.3 57.8,22.3 58,22.2 58.2,22.2 58.4,22.2 58.6,22.2 58.8,22.2 			"/>
		</g>
	</g>
	<polygon class="st3" points="61.6,29.1 62.2,29.1 62.2,29.2 62,29.2 62,29.7 61.8,29.7 61.8,29.2 61.6,29.2 	"/>
	<g>
		<g>
			<polyline class="st4" points="61.6,29.1 62.2,29.1 62.2,29.2 62,29.2 62,29.7 61.8,29.7 61.8,29.2 61.6,29.2 61.6,29.1 			"/>
		</g>
	</g>
	<polygon class="st3" points="62.3,29.1 62.4,29.1 62.6,29.5 62.6,29.5 62.8,29.1 63,29.1 63,29.7 62.9,29.7 62.9,29.3 62.9,29.3 
		62.7,29.7 62.6,29.7 62.4,29.3 62.4,29.3 62.4,29.7 62.3,29.7 	"/>
	<g>
		<g>
			<polyline class="st4" points="62.3,29.1 62.4,29.1 62.6,29.5 62.6,29.5 62.8,29.1 63,29.1 63,29.7 62.9,29.7 62.9,29.3 
				62.9,29.3 62.7,29.7 62.6,29.7 62.4,29.3 62.4,29.3 62.4,29.7 62.3,29.7 62.3,29.1 			"/>
		</g>
	</g>
	<polygon class="st1" points="57.3,25.6 57.3,25.9 57.3,26.1 57.3,26.4 57.3,26.6 57.3,26.8 57.3,26.9 57.4,27.1 57.5,27.2 
		57.5,27.3 57.6,27.4 57.7,27.5 57.8,27.6 58,27.6 58.1,27.7 58.2,27.7 58.4,27.7 58.5,27.7 58.7,27.7 58.8,27.6 59,27.6 59.1,27.5 
		59.2,27.4 59.4,27.3 59.5,27.2 59.6,27.1 59.7,26.9 59.8,26.8 59.8,26.6 59.9,26.4 60,26.2 60,25.9 60.1,25.7 60.1,25.5 60.1,25.3 
		60.1,25.1 60.1,24.9 60.1,24.7 60,24.6 60,24.4 59.9,24.3 59.8,24.2 59.7,24.1 59.6,24 59.5,23.9 59.4,23.8 59.3,23.8 59.1,23.8 
		59,23.8 58.8,23.8 58.6,23.8 58.4,23.9 58.3,23.9 58.1,24 58,24.1 57.9,24.3 57.8,24.4 57.7,24.5 57.6,24.7 57.5,24.8 57.5,25 
		57.4,25.2 57.4,25.3 57.3,25.5 	"/>
</g>
</svg>
