<?xml version="1.0" encoding="utf-8"?>
<!-- Generator: Adobe Illustrator 24.0.1, SVG Export Plug-In . SVG Version: 6.00 Build 0)  -->
<svg version="1.1" id="Capa_1" xmlns="http://www.w3.org/2000/svg" xmlns:xlink="http://www.w3.org/1999/xlink" x="0px" y="0px"
	 viewBox="0 0 80.2 50" style="enable-background:new 0 0 80.2 50;" xml:space="preserve">
<style type="text/css">
	.st0{fill:#00437F;}
	.st1{fill-rule:evenodd;clip-rule:evenodd;fill:#FFB216;}
	.st2{fill-rule:evenodd;clip-rule:evenodd;fill:#FF152B;}
	.st3{fill-rule:evenodd;clip-rule:evenodd;fill:#FFFFFF;}
	.st4{fill:none;stroke:#FFFFFF;stroke-width:0.216;stroke-miterlimit:2.6131;}
</style>
<g>
	<path class="st0" d="M80.2,47.3c0,1.5-1.2,2.7-2.7,2.7H2.7C1.2,50,0,48.8,0,47.3V2.7C0,1.2,1.2,0,2.7,0h74.9c1.5,0,2.7,1.2,2.7,2.7
		V47.3z"/>
	<g>
		<polygon class="st1" points="49.7,39.3 50.5,39.3 51.2,39.3 51.9,39.2 52.6,39 53.3,38.9 54,38.7 54.7,38.4 55.4,38.2 56,37.9 
			56.6,37.6 57.2,37.2 57.8,36.9 58.4,36.5 58.9,36 59.4,35.6 59.9,35.1 60.4,34.6 60.9,34.1 61.3,33.5 61.7,33 62.1,32.4 
			62.4,31.8 62.7,31.2 63,30.5 63.3,29.9 63.5,29.2 63.7,28.5 63.9,27.8 64,27.1 64.1,26.4 64.1,25.6 64.2,24.9 64.1,24.2 
			64.1,23.4 64,22.7 63.9,22 63.7,21.3 63.5,20.6 63.3,20 63,19.3 62.7,18.7 62.4,18.1 62.1,17.5 61.7,16.9 61.3,16.3 60.9,15.8 
			60.4,15.3 59.9,14.8 59.4,14.3 58.9,13.8 58.4,13.4 57.8,13 57.2,12.6 56.6,12.3 56,12 55.4,11.7 54.7,11.4 54,11.2 53.3,11 
			52.6,10.8 51.9,10.7 51.2,10.6 50.5,10.6 49.7,10.5 49,10.6 48.3,10.6 47.6,10.7 46.8,10.8 46.1,11 45.5,11.2 44.8,11.4 
			44.1,11.7 43.5,12 42.9,12.3 42.3,12.6 41.7,13 41.1,13.4 40.6,13.8 40.1,14.3 39.6,14.8 39.1,15.3 38.7,15.8 38.2,16.3 
			37.8,16.9 37.5,17.5 37.1,18.1 36.8,18.7 36.5,19.3 36.2,20 36,20.6 35.8,21.3 35.7,22 35.5,22.7 35.4,23.4 35.4,24.2 35.4,24.9 
			35.4,25.6 35.4,26.4 35.5,27.1 35.7,27.8 35.8,28.5 36,29.2 36.2,29.9 36.5,30.5 36.8,31.2 37.1,31.8 37.5,32.4 37.8,33 
			38.2,33.5 38.7,34.1 39.1,34.6 39.6,35.1 40.1,35.6 40.6,36 41.1,36.5 41.7,36.9 42.3,37.2 42.9,37.6 43.5,37.9 44.1,38.2 
			44.8,38.4 45.5,38.7 46.1,38.9 46.8,39 47.6,39.2 48.3,39.3 49,39.3 49.7,39.3 49.7,39.3 		"/>
		<polygon class="st2" points="30.5,39.3 31.2,39.3 32,39.3 32.7,39.2 33.4,39 34.1,38.9 34.8,38.7 35.4,38.4 36.1,38.2 36.7,37.9 
			37.3,37.6 37.9,37.2 38.5,36.9 39.1,36.5 39.6,36 40.1,35.6 40.6,35.1 41.1,34.6 41.6,34.1 42,33.5 42.4,33 42.8,32.4 43.1,31.8 
			43.4,31.2 43.7,30.5 44,29.9 44.2,29.2 44.4,28.5 44.6,27.8 44.7,27.1 44.8,26.4 44.8,25.6 44.8,24.9 44.8,24.2 44.8,23.4 
			44.7,22.7 44.6,22 44.4,21.3 44.2,20.6 44,20 43.7,19.3 43.4,18.7 43.1,18.1 42.8,17.5 42.4,16.9 42,16.3 41.6,15.8 41.1,15.3 
			40.6,14.8 40.1,14.3 39.6,13.8 39.1,13.4 38.5,13 37.9,12.6 37.3,12.3 36.7,12 36.1,11.7 35.4,11.4 34.8,11.2 34.1,11 33.4,10.8 
			32.7,10.7 32,10.6 31.2,10.6 30.5,10.5 29.7,10.6 29,10.6 28.3,10.7 27.6,10.8 26.9,11 26.2,11.2 25.5,11.4 24.9,11.7 24.2,12 
			23.6,12.3 23,12.6 22.4,13 21.9,13.4 21.3,13.8 20.8,14.3 20.3,14.8 19.8,15.3 19.4,15.8 18.9,16.3 18.5,16.9 18.2,17.5 
			17.8,18.1 17.5,18.7 17.2,19.3 16.9,20 16.7,20.6 16.5,21.3 16.4,22 16.2,22.7 16.1,23.4 16.1,24.2 16.1,24.9 16.1,25.6 
			16.1,26.4 16.2,27.1 16.4,27.8 16.5,28.5 16.7,29.2 16.9,29.9 17.2,30.5 17.5,31.2 17.8,31.8 18.2,32.4 18.5,33 18.9,33.5 
			19.4,34.1 19.8,34.6 20.3,35.1 20.8,35.6 21.3,36 21.9,36.5 22.4,36.9 23,37.2 23.6,37.6 24.2,37.9 24.9,38.2 25.5,38.4 
			26.2,38.7 26.9,38.9 27.6,39 28.3,39.2 29,39.3 29.7,39.3 30.5,39.3 30.5,39.3 		"/>
		<polygon class="st1" points="38.4,16.1 46.1,16.1 46.1,15.3 39.1,15.3 38.4,16.1 38.4,16.1 		"/>
		<polygon class="st1" points="37.3,17.8 46.1,17.8 46.1,17 37.7,17 37.3,17.8 37.3,17.8 		"/>
		<polygon class="st1" points="36.4,19.5 46.1,19.5 46.1,18.7 36.8,18.7 36.4,19.5 36.4,19.5 		"/>
		<polygon class="st1" points="35.8,21.3 46.1,21.3 46.1,20.5 36.1,20.5 35.8,21.3 35.8,21.3 		"/>
		<polygon class="st1" points="36.2,29.7 46.1,29.7 46.1,28.9 35.9,28.9 36.2,29.7 36.2,29.7 		"/>
		<polygon class="st1" points="36.9,31.4 46.1,31.4 46.1,30.6 36.5,30.6 36.9,31.4 36.9,31.4 		"/>
		<polygon class="st1" points="37.9,33.1 46.1,33.1 46.1,32.4 37.5,32.4 37.9,33.1 37.9,33.1 		"/>
		<polygon class="st1" points="39.4,34.9 46.1,34.9 46.1,34.1 38.7,34.1 39.4,34.9 39.4,34.9 		"/>
		<polygon class="st1" points="35.5,23 46.1,23 46.1,22.2 35.6,22.2 35.5,23 35.5,23 		"/>
		<polygon class="st1" points="41.9,27.9 46,27.9 46,27.2 42.1,27.2 41.9,27.9 41.9,27.9 		"/>
		<polygon class="st1" points="42.3,26.2 46,26.2 46,25.4 42.4,25.4 42.3,26.2 42.3,26.2 		"/>
		<polygon class="st1" points="35.2,25.4 36.3,25.4 36.3,26.2 35.3,26.2 35.2,25.4 35.2,25.4 		"/>
		<polygon class="st3" points="33.3,24.5 33.2,24.5 33.1,24.5 33.1,24.4 33,24.4 33,24.4 32.9,24.4 32.8,24.4 32.8,24.4 32.7,24.4 
			32.6,24.4 32.5,24.4 32.4,24.4 32.3,24.4 32.2,24.4 32.1,24.4 32,24.4 31.9,24.4 31.8,24.4 31.7,24.5 31.6,24.5 31.5,24.5 
			31.5,24.6 31.4,24.6 31.4,24.6 31.4,24.7 31.3,24.8 31.3,24.8 31.3,24.9 31.3,24.9 31.4,25 31.4,25.1 31.4,25.1 31.5,25.2 
			31.7,25.3 31.8,25.3 31.9,25.4 32.1,25.5 32.3,25.5 32.4,25.6 32.6,25.6 32.7,25.7 32.8,25.8 33,25.9 33.1,26.1 33.1,26.3 
			33.2,26.5 33.2,26.7 33.2,27.1 33.2,27.3 33.1,27.5 33,27.7 32.9,27.8 32.8,28 32.7,28.1 32.6,28.2 32.4,28.3 32.3,28.4 
			32.1,28.4 31.9,28.5 31.8,28.5 31.6,28.5 31.4,28.6 31.3,28.6 31.1,28.6 30.9,28.6 30.7,28.6 30.5,28.6 30.4,28.6 30.2,28.6 
			30.1,28.5 30,28.5 29.9,28.5 29.8,28.5 29.7,28.5 29.6,28.5 29.5,28.5 29.4,28.4 29.4,28.4 29.3,28.4 29.2,28.3 29.4,27.3 
			29.5,27.3 29.5,27.3 29.6,27.3 29.7,27.3 29.7,27.4 29.8,27.4 30,27.4 30.1,27.4 30.2,27.4 30.3,27.5 30.4,27.5 30.6,27.5 
			30.7,27.5 30.9,27.5 31,27.5 31.1,27.5 31.3,27.5 31.4,27.4 31.5,27.4 31.6,27.3 31.6,27.2 31.6,27.2 31.7,27.1 31.7,27 
			31.7,26.9 31.6,26.7 31.6,26.6 31.4,26.6 31.3,26.5 31.1,26.4 30.9,26.3 30.8,26.3 30.6,26.2 30.4,26.1 30.2,26 30,25.8 
			29.9,25.6 29.8,25.4 29.8,25.1 29.8,24.8 29.8,24.6 29.9,24.5 29.9,24.3 30,24.1 30,24 30.1,23.9 30.2,23.7 30.4,23.6 30.5,23.5 
			30.6,23.5 30.8,23.4 31,23.3 31.2,23.3 31.5,23.3 31.7,23.2 32,23.2 32.2,23.2 32.4,23.2 32.5,23.3 32.7,23.3 32.8,23.3 
			32.9,23.3 33,23.3 33.1,23.3 33.2,23.3 33.2,23.3 33.3,23.3 33.3,23.3 33.4,23.3 33.4,23.4 33.5,23.4 33.5,23.4 33.3,24.5 
			33.3,24.5 		"/>
		<polyline class="st4" points="33.3,24.5 33.3,24.5 33.2,24.5 33.1,24.5 33.1,24.4 33,24.4 33,24.4 32.9,24.4 32.8,24.4 32.8,24.4 
			32.7,24.4 32.6,24.4 32.5,24.4 32.4,24.4 32.3,24.4 32.2,24.4 32.1,24.4 32,24.4 32,24.4 31.9,24.4 31.8,24.4 31.7,24.5 
			31.6,24.5 31.5,24.5 31.5,24.6 31.4,24.6 31.4,24.6 31.4,24.7 31.3,24.8 31.3,24.8 31.3,24.9 31.3,24.9 31.4,25 31.4,25.1 
			31.4,25.1 31.4,25.1 31.5,25.2 31.7,25.3 31.8,25.3 31.9,25.4 32.1,25.5 32.3,25.5 32.4,25.6 32.6,25.6 32.7,25.7 32.8,25.8 
			33,25.9 33.1,26.1 33.1,26.3 33.2,26.5 33.2,26.7 33.2,27.1 33.2,27.1 33.2,27.3 33.1,27.5 33,27.7 32.9,27.8 32.8,28 32.7,28.1 
			32.6,28.2 32.4,28.3 32.3,28.4 32.1,28.4 31.9,28.5 31.8,28.5 31.6,28.5 31.4,28.6 31.3,28.6 31.1,28.6 31.1,28.6 30.9,28.6 
			30.7,28.6 30.5,28.6 30.4,28.6 30.2,28.6 30.1,28.5 30,28.5 29.9,28.5 29.8,28.5 29.7,28.5 29.6,28.5 29.5,28.5 29.4,28.4 
			29.4,28.4 29.3,28.4 29.2,28.3 29.4,27.3 29.4,27.3 29.5,27.3 29.5,27.3 29.6,27.3 29.7,27.3 29.7,27.4 29.8,27.4 30,27.4 
			30.1,27.4 30.2,27.4 30.3,27.5 30.4,27.5 30.6,27.5 30.7,27.5 30.9,27.5 31,27.5 31.1,27.5 31.1,27.5 31.3,27.5 31.4,27.4 
			31.5,27.4 31.6,27.3 31.6,27.2 31.6,27.2 31.7,27.1 31.7,27 31.7,27 31.7,26.9 31.6,26.7 31.6,26.6 31.4,26.6 31.3,26.5 
			31.1,26.4 30.9,26.3 30.8,26.3 30.6,26.2 30.4,26.1 30.2,26 30,25.8 29.9,25.6 29.8,25.4 29.8,25.1 29.8,24.8 29.8,24.8 
			29.8,24.6 29.9,24.5 29.9,24.3 30,24.1 30,24 30.1,23.9 30.2,23.7 30.4,23.6 30.5,23.5 30.6,23.5 30.8,23.4 31,23.3 31.2,23.3 
			31.5,23.3 31.7,23.2 32,23.2 32,23.2 32.2,23.2 32.4,23.2 32.5,23.3 32.7,23.3 32.8,23.3 32.9,23.3 33,23.3 33.1,23.3 33.2,23.3 
			33.2,23.3 33.3,23.3 33.3,23.3 33.4,23.3 33.4,23.4 33.5,23.4 33.5,23.4 33.3,24.5 		"/>
		<polygon class="st3" points="34.4,22.2 35.8,22.2 35.6,23.3 36.4,23.3 36.2,24.4 35.3,24.4 34.9,27.1 34.9,27.2 34.9,27.3 
			35,27.4 35,27.4 35.1,27.5 35.2,27.5 35.3,27.5 35.4,27.5 35.5,27.5 35.6,27.5 35.7,27.5 35.8,27.5 35.9,27.4 35.9,27.4 
			35.9,27.4 35.9,27.4 35.8,28.3 35.7,28.3 35.7,28.4 35.7,28.4 35.6,28.4 35.6,28.4 35.6,28.4 35.5,28.4 35.5,28.5 35.4,28.5 
			35.4,28.5 35.3,28.5 35.3,28.5 35.2,28.5 35.1,28.5 35,28.5 35,28.5 34.6,28.5 34.4,28.5 34.2,28.5 34.1,28.5 33.9,28.4 
			33.8,28.4 33.7,28.4 33.7,28.3 33.6,28.2 33.5,28.2 33.5,28.1 33.5,28 33.5,27.9 33.5,27.8 33.5,27.7 33.5,27.6 33.5,27.5 
			34.4,22.2 34.4,22.2 		"/>
		<polyline class="st4" points="34.4,22.2 35.8,22.2 35.6,23.3 36.4,23.3 36.2,24.4 35.3,24.4 34.9,27.1 34.9,27.1 34.9,27.2 
			34.9,27.3 35,27.4 35,27.4 35.1,27.5 35.2,27.5 35.3,27.5 35.4,27.5 35.4,27.5 35.5,27.5 35.6,27.5 35.7,27.5 35.8,27.5 
			35.9,27.4 35.9,27.4 35.9,27.4 35.9,27.4 35.8,28.3 35.8,28.3 35.7,28.3 35.7,28.4 35.7,28.4 35.6,28.4 35.6,28.4 35.6,28.4 
			35.5,28.4 35.5,28.5 35.4,28.5 35.4,28.5 35.3,28.5 35.3,28.5 35.2,28.5 35.1,28.5 35,28.5 35,28.5 34.6,28.5 34.6,28.5 
			34.4,28.5 34.2,28.5 34.1,28.5 33.9,28.4 33.8,28.4 33.7,28.4 33.7,28.3 33.6,28.2 33.5,28.2 33.5,28.1 33.5,28 33.5,27.9 
			33.5,27.8 33.5,27.7 33.5,27.6 33.5,27.5 34.4,22.2 		"/>
		<polyline class="st4" points="37.5,26.3 37.5,26.3 37.4,26.4 37.4,26.4 37.4,26.5 37.5,26.6 37.5,26.7 37.5,26.8 37.6,26.9 
			37.6,27 37.7,27.1 37.8,27.1 37.9,27.2 38,27.3 38,27.3 38.1,27.4 38.2,27.4 38.3,27.4 38.3,27.4 38.5,27.4 38.6,27.5 38.7,27.5 
			38.8,27.5 39,27.5 39.1,27.5 39.2,27.5 39.3,27.5 39.5,27.4 39.6,27.4 39.7,27.4 39.9,27.4 40,27.3 40.2,27.2 40.3,27.2 
			40.4,27.1 40.2,28.3 40.2,28.3 40.2,28.3 40.1,28.4 40,28.4 39.9,28.4 39.9,28.4 39.8,28.5 39.7,28.5 39.6,28.5 39.5,28.5 
			39.4,28.5 39.3,28.5 39.2,28.5 39.1,28.5 39,28.5 38.8,28.5 38.7,28.5 38.7,28.5 38.4,28.5 38.2,28.5 37.9,28.5 37.7,28.4 
			37.4,28.4 37.2,28.3 37,28.1 36.8,28 36.6,27.8 36.4,27.6 36.3,27.4 36.2,27.2 36.1,26.9 36,26.5 36,26.2 36.1,25.8 36.1,25.8 
			36.1,25.6 36.1,25.4 36.1,25.3 36.2,25.1 36.3,24.8 36.4,24.6 36.5,24.4 36.6,24.2 36.8,24 37,23.8 37.2,23.7 37.4,23.5 
			37.7,23.4 38,23.3 38.4,23.3 38.7,23.2 38.7,23.2 38.9,23.2 39.1,23.3 39.3,23.3 39.5,23.3 39.7,23.4 39.9,23.5 40.1,23.6 
			40.3,23.8 40.4,23.9 40.5,24.1 40.6,24.3 40.7,24.6 40.7,24.9 40.7,25.2 40.7,25.6 40.6,26 40.6,26.3 37.1,26.3 37.3,25.3 
			39.4,25.3 39.4,25.3 39.4,25.2 39.4,25.1 39.4,25 39.4,24.9 39.3,24.8 39.3,24.7 39.3,24.7 39.2,24.6 39.2,24.5 39.1,24.5 
			39,24.4 39,24.4 38.9,24.4 38.8,24.3 38.7,24.3 38.6,24.3 38.6,24.3 38.5,24.3 38.4,24.3 38.4,24.4 38.3,24.4 38.2,24.4 
			38.1,24.5 38.1,24.5 38,24.6 37.9,24.7 37.9,24.7 37.8,24.8 37.8,24.9 37.7,25 37.7,25.1 37.7,25.2 37.6,25.3 37.5,26.3 		"/>
		<polygon class="st3" points="49,23.6 49,23.6 48.9,23.6 48.8,23.5 48.8,23.5 48.7,23.5 48.6,23.4 48.5,23.4 48.4,23.4 48.3,23.4 
			48.3,23.3 48.2,23.3 48.1,23.3 47.9,23.3 47.8,23.3 47.7,23.3 47.6,23.3 47.5,23.3 47.3,23.3 47.2,23.3 47.1,23.3 46.9,23.4 
			46.8,23.4 46.7,23.5 46.5,23.6 46.4,23.7 46.3,23.8 46.2,24 46,24.2 45.9,24.4 45.8,24.6 45.7,24.9 45.7,25.2 45.6,25.4 
			45.6,25.5 45.6,25.7 45.6,25.9 45.6,26 45.7,26.2 45.7,26.3 45.7,26.5 45.8,26.6 45.9,26.7 46,26.9 46.1,27 46.3,27 46.4,27.1 
			46.6,27.2 46.8,27.2 46.8,27.2 46.9,27.3 47,27.3 47.1,27.3 47.2,27.3 47.3,27.3 47.4,27.3 47.5,27.3 47.7,27.3 47.8,27.2 
			47.9,27.2 48,27.2 48.2,27.1 48.3,27 48.4,27 48.5,26.9 48.2,28.2 48.2,28.2 48.2,28.2 48.2,28.3 48.1,28.3 48.1,28.3 48,28.4 
			47.9,28.4 47.8,28.4 47.7,28.5 47.6,28.5 47.4,28.5 47.3,28.5 47.1,28.5 46.9,28.5 46.6,28.5 46.3,28.5 46.1,28.5 45.9,28.4 
			45.7,28.4 45.4,28.3 45.2,28.2 45,28 44.8,27.8 44.7,27.7 44.5,27.4 44.4,27.2 44.2,26.9 44.2,26.6 44.1,26.3 44.1,26 44.1,25.6 
			44.1,25.2 44.2,25 44.2,24.8 44.3,24.6 44.3,24.4 44.4,24.2 44.4,24.1 44.5,23.9 44.6,23.8 44.6,23.6 44.7,23.5 44.8,23.3 
			44.9,23.2 45,23.1 45.1,23 45.2,22.9 45.3,22.8 45.4,22.7 45.5,22.6 45.6,22.5 45.7,22.4 45.9,22.3 46,22.3 46.1,22.2 46.3,22.2 
			46.4,22.1 46.6,22.1 46.7,22 46.9,22 47.1,22 47.2,22 47.4,22 47.6,22 47.7,22 47.9,22 48,22 48.2,22 48.3,22 48.5,22 48.6,22.1 
			48.7,22.1 48.8,22.1 48.9,22.2 49,22.2 49.1,22.2 49.1,22.2 49.2,22.3 49.2,22.3 49.3,22.3 49,23.6 49,23.6 		"/>
		<polyline class="st4" points="49,23.6 49,23.6 49,23.6 48.9,23.6 48.8,23.5 48.8,23.5 48.7,23.5 48.6,23.4 48.5,23.4 48.4,23.4 
			48.3,23.4 48.3,23.3 48.2,23.3 48.1,23.3 47.9,23.3 47.8,23.3 47.7,23.3 47.6,23.3 47.6,23.3 47.5,23.3 47.3,23.3 47.2,23.3 
			47.1,23.3 46.9,23.4 46.8,23.4 46.7,23.5 46.5,23.6 46.4,23.7 46.3,23.8 46.2,24 46,24.2 45.9,24.4 45.8,24.6 45.7,24.9 
			45.7,25.2 45.7,25.2 45.6,25.4 45.6,25.5 45.6,25.7 45.6,25.9 45.6,26 45.7,26.2 45.7,26.3 45.7,26.5 45.8,26.6 45.9,26.7 
			46,26.9 46.1,27 46.3,27 46.4,27.1 46.6,27.2 46.8,27.2 46.8,27.2 46.8,27.2 46.9,27.3 47,27.3 47.1,27.3 47.2,27.3 47.3,27.3 
			47.4,27.3 47.5,27.3 47.7,27.3 47.8,27.2 47.9,27.2 48,27.2 48.2,27.1 48.3,27 48.4,27 48.5,26.9 48.2,28.2 48.2,28.2 48.2,28.2 
			48.2,28.2 48.2,28.3 48.1,28.3 48.1,28.3 48,28.4 47.9,28.4 47.8,28.4 47.7,28.5 47.6,28.5 47.4,28.5 47.3,28.5 47.1,28.5 
			46.9,28.5 46.6,28.5 46.3,28.5 46.3,28.5 46.1,28.5 45.9,28.4 45.7,28.4 45.4,28.3 45.2,28.2 45,28 44.8,27.8 44.7,27.7 
			44.5,27.4 44.4,27.2 44.2,26.9 44.2,26.6 44.1,26.3 44.1,26 44.1,25.6 44.1,25.2 44.1,25.2 44.2,25 44.2,24.8 44.3,24.6 
			44.3,24.4 44.4,24.2 44.4,24.1 44.5,23.9 44.6,23.8 44.6,23.6 44.7,23.5 44.8,23.3 44.9,23.2 45,23.1 45.1,23 45.2,22.9 
			45.3,22.8 45.4,22.7 45.5,22.6 45.6,22.5 45.7,22.4 45.9,22.3 46,22.3 46.1,22.2 46.3,22.2 46.4,22.1 46.6,22.1 46.7,22 46.9,22 
			47.1,22 47.2,22 47.4,22 47.6,22 47.6,22 47.7,22 47.9,22 48,22 48.2,22 48.3,22 48.5,22 48.6,22.1 48.7,22.1 48.8,22.1 
			48.9,22.2 49,22.2 49.1,22.2 49.1,22.2 49.2,22.3 49.2,22.3 49.3,22.3 49,23.6 		"/>
		<polygon class="st3" points="61,28.5 59.6,28.5 59.7,28 59.7,28 59.7,28.1 59.6,28.1 59.5,28.2 59.4,28.3 59.3,28.4 59.2,28.4 
			59.1,28.4 59.1,28.5 59,28.5 58.9,28.5 58.8,28.6 58.7,28.6 58.6,28.6 58.5,28.6 58.4,28.6 58.3,28.6 58,28.6 57.8,28.5 
			57.6,28.5 57.4,28.4 57.2,28.2 57.1,28 56.9,27.9 56.8,27.7 56.7,27.4 56.6,27.2 56.6,27 56.6,26.7 56.5,26.5 56.5,26.2 56.6,26 
			56.6,25.7 56.7,25.4 56.8,25.2 56.9,24.9 57,24.7 57.1,24.5 57.3,24.3 57.4,24.1 57.6,23.9 57.7,23.8 57.9,23.7 58.1,23.6 
			58.3,23.5 58.5,23.4 58.7,23.4 58.9,23.4 59.1,23.3 59.2,23.3 59.4,23.4 59.5,23.4 59.6,23.4 59.7,23.5 59.8,23.5 59.9,23.6 
			60,23.6 60.1,23.7 60.1,23.7 60.2,23.8 60.3,23.9 60.3,23.9 60.4,24 60.4,24 60.4,24.1 60.4,24.1 60.8,22.2 62.1,22.2 61,28.5 
			61,28.5 		"/>
		<polyline class="st4" points="61,28.5 59.6,28.5 59.7,28 59.7,28 59.7,28 59.7,28.1 59.6,28.1 59.5,28.2 59.4,28.3 59.3,28.4 
			59.2,28.4 59.1,28.4 59.1,28.5 59,28.5 58.9,28.5 58.8,28.6 58.7,28.6 58.6,28.6 58.5,28.6 58.4,28.6 58.3,28.6 58.3,28.6 
			58,28.6 57.8,28.5 57.6,28.5 57.4,28.4 57.2,28.2 57.1,28 56.9,27.9 56.8,27.7 56.7,27.4 56.6,27.2 56.6,27 56.6,26.7 56.5,26.5 
			56.5,26.2 56.6,26 56.6,25.7 56.6,25.7 56.7,25.4 56.8,25.2 56.9,24.9 57,24.7 57.1,24.5 57.3,24.3 57.4,24.1 57.6,23.9 
			57.7,23.8 57.9,23.7 58.1,23.6 58.3,23.5 58.5,23.4 58.7,23.4 58.9,23.4 59.1,23.3 59.1,23.3 59.2,23.3 59.4,23.4 59.5,23.4 
			59.6,23.4 59.7,23.5 59.8,23.5 59.9,23.6 60,23.6 60.1,23.7 60.1,23.7 60.2,23.8 60.3,23.9 60.3,23.9 60.4,24 60.4,24 60.4,24.1 
			60.4,24.1 60.8,22.2 62.1,22.2 61,28.5 		"/>
		<polygon class="st1" points="58.8,27.4 58.9,27.4 59,27.3 59.2,27.3 59.3,27.2 59.4,27.2 59.5,27.1 59.6,27 59.6,26.9 59.7,26.8 
			59.8,26.7 59.9,26.6 59.9,26.5 60,26.4 60,26.3 60,26.1 60.1,26 60.1,25.9 60.1,25.7 60.1,25.6 60.1,25.5 60.1,25.3 60.1,25.2 
			60,25.1 60,25 59.9,24.9 59.9,24.8 59.8,24.7 59.7,24.6 59.7,24.6 59.6,24.5 59.5,24.5 59.4,24.5 59.2,24.5 59.1,24.5 59,24.6 
			58.9,24.6 58.8,24.7 58.7,24.8 58.6,24.9 58.5,24.9 58.5,25.1 58.4,25.2 58.3,25.3 58.3,25.4 58.2,25.5 58.2,25.7 58.2,25.8 
			58.1,26 58.1,26.2 58.1,26.4 58.1,26.6 58.2,26.9 58.3,27.1 58.4,27.2 58.6,27.3 58.8,27.4 58.8,27.4 		"/>
		<polygon class="st3" points="29,27.5 28.8,28.5 27.6,28.5 27.6,28.3 27.6,28.2 27.6,28 27.6,28 27.6,28 27.5,28.1 27.4,28.2 
			27.3,28.3 27.2,28.3 27.1,28.4 26.9,28.4 26.8,28.5 26.7,28.5 26.5,28.6 26.4,28.6 26.2,28.6 26.1,28.6 26,28.6 25.8,28.6 
			25.7,28.6 25.5,28.5 25.4,28.5 25.2,28.4 25.1,28.4 25,28.3 24.9,28.2 24.8,28.1 24.8,28 24.7,27.9 24.7,27.8 24.6,27.7 
			24.6,27.6 24.6,27.5 24.6,27.4 24.5,27.3 24.5,27.2 24.6,27 24.6,26.8 24.6,26.6 24.7,26.4 24.8,26.3 24.9,26.2 25,26 25.1,25.9 
			25.2,25.8 25.3,25.7 25.5,25.6 25.6,25.5 25.8,25.4 25.9,25.4 26.1,25.3 26.3,25.3 26.3,25.3 26.3,25.3 26.3,25.3 26.4,25.3 
			26.5,25.3 26.5,25.3 26.6,25.3 26.7,25.3 26.8,25.3 26.8,25.2 26.9,25.2 27,25.2 27.1,25.2 27.2,25.2 27.2,25.2 27.3,25.2 
			27.4,25.2 27.5,25.2 27.6,25.2 27.7,25.2 27.8,25.2 27.9,25.2 27.9,25.2 27.9,25.2 28,25.2 28,25.1 28,25 28,24.9 28,24.8 
			28,24.7 27.9,24.6 27.8,24.6 27.7,24.5 27.6,24.5 27.5,24.4 27.4,24.4 27.2,24.4 27.1,24.4 26.9,24.4 26.8,24.4 26.6,24.4 
			26.5,24.4 26.3,24.5 26.2,24.5 26,24.5 25.9,24.5 25.8,24.5 25.6,24.6 25.5,24.6 25.5,24.6 25.4,24.7 25.3,24.7 25.7,23.5 
			25.8,23.5 25.9,23.4 26,23.4 26.1,23.4 26.2,23.3 26.4,23.3 26.5,23.3 26.6,23.3 26.8,23.3 26.9,23.3 27,23.3 27.2,23.3 
			27.3,23.3 27.5,23.3 27.7,23.3 27.8,23.3 28,23.3 28.1,23.3 28.3,23.4 28.4,23.4 28.6,23.5 28.7,23.5 28.9,23.6 29,23.7 
			29.1,23.8 29.2,23.9 29.3,24.1 29.4,24.2 29.5,24.4 29.5,24.5 29.5,24.7 29.5,24.9 29,27.5 29,27.5 		"/>
		<polyline class="st4" points="29,27.5 28.8,28.5 27.6,28.5 27.6,28.5 27.6,28.3 27.6,28.2 27.6,28 27.6,28 27.6,28 27.6,28 
			27.5,28.1 27.4,28.2 27.3,28.3 27.2,28.3 27.1,28.4 26.9,28.4 26.8,28.5 26.7,28.5 26.5,28.6 26.4,28.6 26.2,28.6 26.1,28.6 
			26,28.6 25.8,28.6 25.7,28.6 25.7,28.6 25.5,28.5 25.4,28.5 25.2,28.4 25.1,28.4 25,28.3 24.9,28.2 24.8,28.1 24.8,28 24.7,27.9 
			24.7,27.8 24.6,27.7 24.6,27.6 24.6,27.5 24.6,27.4 24.5,27.3 24.5,27.2 24.5,27.2 24.6,27 24.6,26.8 24.6,26.6 24.7,26.4 
			24.8,26.3 24.9,26.2 25,26 25.1,25.9 25.2,25.8 25.3,25.7 25.5,25.6 25.6,25.5 25.8,25.4 25.9,25.4 26.1,25.3 26.3,25.3 
			26.3,25.3 26.3,25.3 26.3,25.3 26.3,25.3 26.4,25.3 26.5,25.3 26.5,25.3 26.6,25.3 26.7,25.3 26.8,25.3 26.8,25.2 26.9,25.2 
			27,25.2 27.1,25.2 27.2,25.2 27.2,25.2 27.3,25.2 27.3,25.2 27.4,25.2 27.5,25.2 27.6,25.2 27.7,25.2 27.8,25.2 27.9,25.2 
			27.9,25.2 27.9,25.2 27.9,25.2 28,25.2 28,25.1 28,25 28,24.9 28,24.9 28,24.8 28,24.7 27.9,24.6 27.8,24.6 27.7,24.5 27.6,24.5 
			27.5,24.4 27.4,24.4 27.4,24.4 27.2,24.4 27.1,24.4 26.9,24.4 26.8,24.4 26.6,24.4 26.5,24.4 26.3,24.5 26.2,24.5 26,24.5 
			25.9,24.5 25.8,24.5 25.6,24.6 25.5,24.6 25.5,24.6 25.4,24.7 25.3,24.7 25.7,23.5 25.7,23.5 25.8,23.5 25.9,23.4 26,23.4 
			26.1,23.4 26.2,23.3 26.4,23.3 26.5,23.3 26.6,23.3 26.8,23.3 26.9,23.3 27,23.3 27.2,23.3 27.3,23.3 27.5,23.3 27.7,23.3 
			27.8,23.3 27.8,23.3 28,23.3 28.1,23.3 28.3,23.4 28.4,23.4 28.6,23.5 28.7,23.5 28.9,23.6 29,23.7 29.1,23.8 29.2,23.9 
			29.3,24.1 29.4,24.2 29.5,24.4 29.5,24.5 29.5,24.7 29.5,24.9 29,27.5 		"/>
		<polygon class="st2" points="27.8,26.2 27.8,26.2 27.8,26.2 27.7,26.1 27.7,26.1 27.6,26.1 27.6,26.1 27.5,26.1 27.4,26.1 
			27.4,26.1 27.3,26.1 27.2,26.1 27.1,26.1 27,26.2 27,26.2 26.9,26.2 26.9,26.2 26.8,26.2 26.8,26.2 26.7,26.2 26.7,26.3 
			26.6,26.3 26.6,26.3 26.5,26.4 26.4,26.4 26.4,26.5 26.3,26.5 26.2,26.6 26.2,26.6 26.1,26.7 26.1,26.7 26.1,26.8 26.1,26.9 
			26.1,27.1 26.1,27.2 26.1,27.3 26.2,27.4 26.3,27.4 26.3,27.4 26.4,27.5 26.5,27.5 26.6,27.5 26.8,27.4 26.9,27.4 27,27.4 
			27.1,27.4 27.2,27.3 27.3,27.3 27.4,27.2 27.4,27.2 27.5,27.1 27.5,27.1 27.6,27 27.6,26.9 27.6,26.9 27.7,26.8 27.7,26.8 
			27.7,26.6 27.7,26.5 27.8,26.3 27.8,26.2 27.8,26.2 		"/>
		<polygon class="st3" points="18.8,28.5 17.4,28.5 18.5,22.2 20.8,22.2 21.1,26 22.6,22.2 25,22.2 23.9,28.5 22.6,28.5 23.4,23.8 
			23.4,23.8 21.4,28.5 19.9,28.5 19.9,28.3 19.9,27.8 19.8,27.1 19.8,26.2 19.7,25.3 19.7,24.6 19.6,24 19.6,23.8 19.6,23.8 
			19.6,23.8 19.6,23.8 19.6,23.8 18.8,28.5 18.8,28.5 		"/>
		<polyline class="st4" points="18.8,28.5 17.4,28.5 18.5,22.2 20.8,22.2 21.1,26 22.6,22.2 25,22.2 23.9,28.5 22.6,28.5 23.4,23.8 
			23.4,23.8 21.4,28.5 19.9,28.5 19.9,28.5 19.9,28.3 19.9,27.8 19.8,27.1 19.8,26.2 19.7,25.3 19.7,24.6 19.6,24 19.6,23.8 
			19.6,23.8 19.6,23.8 19.6,23.8 19.6,23.8 19.6,23.8 18.8,28.5 		"/>
		<polygon class="st3" points="53.1,27.5 52.9,28.5 51.6,28.5 51.7,28.3 51.7,28.2 51.7,28 51.7,28 51.6,28.1 51.5,28.1 51.4,28.2 
			51.4,28.3 51.2,28.3 51.1,28.4 51,28.4 50.9,28.5 50.8,28.5 50.6,28.6 50.5,28.6 50.4,28.6 50.2,28.6 50.1,28.6 49.9,28.6 
			49.8,28.6 49.6,28.5 49.5,28.5 49.3,28.4 49.2,28.4 49.1,28.3 49,28.2 48.9,28.1 48.9,28 48.8,27.9 48.8,27.8 48.7,27.7 
			48.7,27.6 48.7,27.5 48.7,27.4 48.7,27.3 48.7,27.2 48.7,27 48.7,26.8 48.7,26.6 48.8,26.4 48.9,26.3 49,26.2 49.1,26 49.2,25.9 
			49.3,25.8 49.4,25.7 49.6,25.6 49.7,25.5 49.9,25.4 50.1,25.4 50.2,25.3 50.4,25.3 50.4,25.3 50.4,25.3 50.4,25.3 50.5,25.3 
			50.6,25.3 50.6,25.3 50.7,25.3 50.8,25.3 50.9,25.3 50.9,25.2 51,25.2 51.1,25.2 51.2,25.2 51.3,25.2 51.3,25.2 51.4,25.2 
			51.5,25.2 51.6,25.2 51.7,25.2 51.8,25.2 51.9,25.2 52,25.2 52,25.2 52.1,25.2 52.1,25.2 52.1,25.1 52.1,25 52.1,24.9 52.1,24.8 
			52.1,24.7 52,24.6 51.9,24.6 51.8,24.5 51.7,24.5 51.6,24.4 51.5,24.4 51.4,24.4 51.2,24.4 51.1,24.4 50.9,24.4 50.8,24.4 
			50.6,24.4 50.4,24.5 50.3,24.5 50.1,24.5 50,24.5 49.9,24.5 49.8,24.6 49.7,24.6 49.6,24.6 49.5,24.7 49.4,24.7 49.8,23.5 
			49.9,23.5 50,23.4 50.1,23.4 50.2,23.4 50.4,23.3 50.5,23.3 50.6,23.3 50.7,23.3 50.9,23.3 51,23.3 51.2,23.3 51.3,23.3 
			51.5,23.3 51.6,23.3 51.8,23.3 51.9,23.3 52.1,23.3 52.2,23.3 52.4,23.4 52.5,23.4 52.7,23.5 52.8,23.5 53,23.6 53.1,23.7 
			53.2,23.8 53.3,23.9 53.4,24.1 53.5,24.2 53.6,24.4 53.6,24.5 53.6,24.7 53.6,24.9 53.1,27.5 53.1,27.5 		"/>
		<polygon class="st3" points="52.9,28.6 52.9,28.5 53.1,27.5 53,27.5 52.8,28.5 52.9,28.5 52.9,28.6 52.9,28.6 52.9,28.5 
			52.9,28.6 52.9,28.6 		"/>
		<polygon class="st3" points="51.6,28.5 51.6,28.6 52.9,28.6 52.9,28.5 51.6,28.5 51.7,28.5 51.6,28.5 51.6,28.6 51.6,28.6 
			51.6,28.5 51.6,28.5 		"/>
		<polygon class="st3" points="51.7,28 51.7,28 51.6,28 51.6,28.2 51.6,28.3 51.6,28.5 51.7,28.5 51.7,28.3 51.7,28.2 51.7,28 
			51.7,28 51.6,28 51.7,28 51.7,28 		"/>
		<polygon class="st3" points="49.8,28.6 49.8,28.6 49.9,28.6 50.1,28.7 50.2,28.7 50.4,28.6 50.5,28.6 50.6,28.6 50.8,28.6 
			50.9,28.5 51,28.5 51.1,28.4 51.3,28.4 51.4,28.3 51.5,28.2 51.6,28.2 51.6,28.1 51.7,28 51.6,28 51.6,28 51.5,28.1 51.4,28.2 
			51.3,28.2 51.2,28.3 51.1,28.4 51,28.4 50.9,28.5 50.8,28.5 50.6,28.5 50.5,28.6 50.4,28.6 50.2,28.6 50.1,28.6 49.9,28.6 
			49.8,28.6 49.8,28.6 49.8,28.6 49.8,28.6 		"/>
		<polygon class="st3" points="48.6,27.2 48.6,27.2 48.6,27.3 48.6,27.4 48.7,27.5 48.7,27.6 48.7,27.7 48.7,27.8 48.8,27.9 
			48.9,28 48.9,28.1 49,28.2 49.1,28.3 49.2,28.4 49.3,28.5 49.5,28.5 49.6,28.6 49.8,28.6 49.8,28.6 49.6,28.5 49.5,28.5 
			49.4,28.4 49.2,28.3 49.1,28.3 49,28.2 49,28.1 48.9,28 48.8,27.9 48.8,27.8 48.8,27.7 48.7,27.6 48.7,27.5 48.7,27.4 48.7,27.3 
			48.7,27.2 48.7,27.2 48.6,27.2 48.6,27.2 		"/>
		<polygon class="st3" points="50.4,25.3 50.4,25.3 50.2,25.3 50,25.4 49.9,25.4 49.7,25.5 49.6,25.6 49.4,25.7 49.3,25.8 
			49.2,25.9 49.1,26 49,26.1 48.9,26.3 48.8,26.4 48.7,26.6 48.7,26.8 48.6,27 48.6,27.2 48.7,27.2 48.7,27 48.7,26.8 48.8,26.6 
			48.8,26.5 48.9,26.3 49,26.2 49.1,26 49.2,25.9 49.3,25.8 49.5,25.7 49.6,25.6 49.8,25.5 49.9,25.5 50.1,25.4 50.2,25.4 
			50.4,25.3 50.4,25.3 50.4,25.3 50.4,25.3 		"/>
		<polygon class="st3" points="51.4,25.2 51.4,25.2 51.3,25.2 51.3,25.2 51.2,25.2 51.1,25.2 51,25.2 50.9,25.2 50.9,25.2 
			50.8,25.2 50.7,25.2 50.6,25.3 50.6,25.3 50.5,25.3 50.4,25.3 50.4,25.3 50.4,25.3 50.4,25.3 50.4,25.3 50.4,25.3 50.4,25.3 
			50.4,25.3 50.5,25.3 50.6,25.3 50.6,25.3 50.7,25.3 50.8,25.3 50.9,25.3 50.9,25.3 51,25.3 51.1,25.3 51.2,25.3 51.3,25.3 
			51.3,25.3 51.4,25.3 51.4,25.3 51.4,25.2 51.4,25.2 		"/>
		<polygon class="st3" points="52,25.2 52.1,25.2 52,25.2 52,25.2 51.9,25.2 51.8,25.2 51.7,25.2 51.6,25.2 51.5,25.2 51.4,25.2 
			51.4,25.3 51.5,25.3 51.6,25.3 51.7,25.3 51.8,25.3 51.9,25.3 52,25.3 52,25.3 52.1,25.3 52.1,25.2 52.1,25.3 52.1,25.3 
			52.1,25.2 52,25.2 52,25.2 		"/>
		<polygon class="st3" points="52.1,24.9 52.1,24.9 52.1,25 52.1,25.1 52,25.2 52,25.2 52.1,25.2 52.1,25.2 52.1,25.1 52.1,25 
			52.1,24.9 52.1,24.9 52.1,24.9 52.1,24.9 		"/>
		<polygon class="st3" points="51.5,24.4 51.5,24.5 51.6,24.5 51.7,24.5 51.8,24.5 51.9,24.6 52,24.7 52,24.7 52.1,24.8 52.1,24.9 
			52.1,24.9 52.1,24.8 52.1,24.7 52,24.6 51.9,24.5 51.8,24.5 51.7,24.4 51.6,24.4 51.5,24.4 51.5,24.4 51.5,24.4 51.5,24.4 		"/>
		<polygon class="st3" points="49.4,24.7 49.5,24.7 49.5,24.7 49.6,24.7 49.7,24.6 49.8,24.6 49.9,24.6 50,24.5 50.2,24.5 
			50.3,24.5 50.4,24.5 50.6,24.5 50.8,24.5 50.9,24.4 51.1,24.4 51.2,24.4 51.4,24.4 51.5,24.4 51.5,24.4 51.4,24.4 51.2,24.4 
			51.1,24.4 50.9,24.4 50.8,24.4 50.6,24.4 50.4,24.4 50.3,24.4 50.1,24.5 50,24.5 49.9,24.5 49.8,24.5 49.7,24.6 49.6,24.6 
			49.5,24.6 49.4,24.7 49.5,24.7 49.4,24.7 49.4,24.7 		"/>
		<polygon class="st3" points="49.8,23.5 49.8,23.5 49.4,24.7 49.5,24.7 49.8,23.5 49.8,23.5 49.8,23.5 49.8,23.5 49.8,23.5 
			49.8,23.5 49.8,23.5 		"/>
		<polygon class="st3" points="51.9,23.3 51.9,23.3 51.8,23.3 51.6,23.2 51.5,23.2 51.3,23.2 51.2,23.2 51,23.3 50.9,23.3 
			50.7,23.3 50.6,23.3 50.5,23.3 50.4,23.3 50.2,23.3 50.1,23.4 50,23.4 49.9,23.4 49.8,23.5 49.8,23.5 49.9,23.5 50,23.5 
			50.1,23.4 50.2,23.4 50.4,23.4 50.5,23.4 50.6,23.3 50.7,23.3 50.9,23.3 51,23.3 51.2,23.3 51.3,23.3 51.5,23.3 51.6,23.3 
			51.8,23.3 51.9,23.3 51.9,23.3 51.9,23.3 51.9,23.3 		"/>
		<polygon class="st3" points="53.6,24.9 53.6,24.9 53.6,24.7 53.6,24.5 53.6,24.4 53.5,24.2 53.5,24 53.4,23.9 53.2,23.8 
			53.1,23.7 53,23.6 52.8,23.5 52.7,23.4 52.5,23.4 52.4,23.3 52.2,23.3 52.1,23.3 51.9,23.3 51.9,23.3 52.1,23.3 52.2,23.4 
			52.4,23.4 52.5,23.4 52.7,23.5 52.8,23.6 53,23.6 53.1,23.7 53.2,23.8 53.3,23.9 53.4,24.1 53.5,24.2 53.5,24.4 53.6,24.5 
			53.6,24.7 53.5,24.9 53.5,24.9 53.6,24.9 53.6,24.9 		"/>
		<polygon class="st3" points="53.1,27.5 53.1,27.5 53.6,24.9 53.5,24.9 53,27.5 53,27.5 53.1,27.5 53.1,27.5 		"/>
		<polygon class="st1" points="51.9,26.2 51.9,26.2 51.9,26.1 51.8,26.1 51.8,26.1 51.7,26.1 51.7,26.1 51.6,26.1 51.5,26.1 
			51.4,26.1 51.4,26.1 51.3,26.1 51.2,26.2 51.1,26.2 51.1,26.2 51,26.2 51,26.2 50.9,26.2 50.9,26.2 50.8,26.2 50.8,26.3 
			50.7,26.3 50.7,26.3 50.6,26.3 50.5,26.4 50.5,26.4 50.4,26.5 50.4,26.5 50.3,26.6 50.3,26.7 50.2,26.7 50.2,26.8 50.2,26.9 
			50.2,27.1 50.2,27.2 50.2,27.3 50.3,27.4 50.4,27.4 50.5,27.4 50.5,27.5 50.6,27.5 50.8,27.5 50.9,27.4 51,27.4 51.1,27.4 
			51.2,27.4 51.3,27.3 51.4,27.3 51.5,27.2 51.6,27.1 51.6,27.1 51.7,27 51.7,27 51.8,26.9 51.8,26.8 51.8,26.8 51.8,26.7 
			51.8,26.6 51.9,26.5 51.9,26.3 51.9,26.2 51.9,26.2 		"/>
		<polygon class="st3" points="61.9,27.9 61.9,27.8 61.9,27.6 62,27.5 62.1,27.4 62.2,27.3 62.3,27.3 62.4,27.2 62.6,27.2 
			62.7,27.2 62.8,27.3 63,27.3 63.1,27.4 63.1,27.5 63.2,27.6 63.2,27.8 63.3,27.9 63.1,27.9 63.1,27.8 63.1,27.7 63,27.6 63,27.5 
			62.9,27.4 62.8,27.4 62.7,27.4 62.6,27.3 62.5,27.4 62.4,27.4 62.3,27.4 62.2,27.5 62.1,27.6 62.1,27.7 62,27.8 62,27.9 
			61.9,27.9 61.9,27.9 		"/>
		<polygon class="st3" points="62.3,27.9 62.3,27.6 62.6,27.6 62.7,27.6 62.7,27.6 62.7,27.6 62.8,27.6 62.8,27.7 62.8,27.7 
			62.8,27.7 62.8,27.8 62.8,27.8 62.8,27.8 62.8,27.9 62.8,27.9 62.6,27.9 62.6,27.9 62.6,27.9 62.7,27.9 62.7,27.9 62.7,27.8 
			62.7,27.8 62.7,27.8 62.7,27.8 62.7,27.7 62.7,27.7 62.7,27.7 62.7,27.7 62.7,27.7 62.6,27.7 62.6,27.7 62.6,27.7 62.5,27.7 
			62.5,27.9 62.3,27.9 62.3,27.9 		"/>
		<polygon class="st3" points="61.9,27.9 61.9,27.9 61.9,28 61.9,28.2 62,28.3 62.1,28.4 62.2,28.5 62.3,28.5 62.4,28.6 62.6,28.6 
			62.7,28.6 62.8,28.5 63,28.5 63.1,28.4 63.1,28.3 63.2,28.2 63.2,28 63.3,27.9 63.3,27.9 63.1,27.9 63.1,27.9 63.1,28 63.1,28.1 
			63,28.2 63,28.3 62.9,28.4 62.8,28.4 62.7,28.5 62.6,28.5 62.5,28.5 62.4,28.4 62.3,28.4 62.2,28.3 62.1,28.2 62.1,28.1 62,28 
			62,27.9 62,27.9 61.9,27.9 61.9,27.9 		"/>
		<polygon class="st3" points="62.3,27.9 62.3,28.2 62.5,28.2 62.5,27.9 62.6,27.9 62.7,28.2 62.8,28.2 62.7,27.9 62.7,27.9 
			62.7,27.9 62.8,27.9 62.8,27.9 62.8,27.9 62.6,27.9 62.6,27.9 62.5,27.9 62.5,27.9 62.3,27.9 62.3,27.9 		"/>
		<path class="st4" d="M61.9,27.9L61.9,27.9l0-0.1l0-0.1l0.1-0.1l0.1-0.1l0.1-0.1l0.1-0.1l0.1,0l0.1,0l0,0l0.1,0l0.1,0l0.1,0.1
			l0.1,0.1l0.1,0.1l0.1,0.1l0,0.1l0,0.1l0,0l0,0.1l0,0.1l-0.1,0.1l-0.1,0.1L63,28.5l-0.1,0.1l-0.1,0l-0.1,0l0,0l-0.1,0l-0.1,0
			l-0.1-0.1l-0.1-0.1L62,28.3l-0.1-0.1l0-0.1L61.9,27.9 M62.5,28.2h-0.1v-0.6h0.3l0,0l0.1,0l0.1,0l0,0l0,0l0,0l0,0l0,0l0,0l0,0l0,0
			l0,0l0,0l0,0l0,0l0,0l0,0h0l0.1,0.2h-0.1l-0.1-0.2h-0.1V28.2 M62.6,27.9L62.6,27.9L62.6,27.9L62.6,27.9l0.1,0l0,0l0,0l0,0l0,0v0
			l0,0l0,0l0,0l0,0l0,0l0,0l0,0h0h0h-0.1v0.2H62.6 M62.6,28.5L62.6,28.5l0.1,0l0.1,0l0.1-0.1l0.1-0.1l0.1-0.1l0-0.1l0-0.1l0-0.1l0,0
			l0-0.1l0-0.1l0-0.1L63,27.5l-0.1-0.1l-0.1,0l-0.1,0l-0.1,0l0,0l-0.1,0l-0.1,0l-0.1,0l-0.1,0.1l-0.1,0.1l0,0.1l0,0.1l0,0.1l0,0
			l0,0.1l0,0.1l0,0.1l0.1,0.1l0.1,0.1l0.1,0.1l0.1,0L62.6,28.5"/>
		<polygon class="st3" points="53.4,28.5 54.8,28.5 54.8,28.5 55.3,25.8 55.3,25.7 55.3,25.6 55.4,25.5 55.4,25.4 55.5,25.2 
			55.5,25.1 55.6,25 55.7,25 55.7,24.9 55.8,24.8 55.9,24.7 56.1,24.7 56.2,24.6 56.4,24.6 56.5,24.5 56.7,24.5 56.8,24.5 
			56.8,24.5 56.9,24.5 56.9,24.5 57.1,23.3 56.9,23.3 56.8,23.3 56.7,23.3 56.6,23.4 56.5,23.4 56.4,23.5 56.3,23.5 56.2,23.6 
			56.1,23.6 56,23.7 55.9,23.8 55.8,23.9 55.8,23.9 55.7,24 55.6,24.1 55.6,24.2 55.7,23.3 54.3,23.3 53.4,28.5 53.4,28.5 
			53.4,28.5 		"/>
		<polyline class="st4" points="53.4,28.5 54.8,28.5 54.8,28.5 55.3,25.8 55.3,25.8 55.3,25.7 55.3,25.6 55.4,25.5 55.4,25.4 
			55.5,25.2 55.5,25.1 55.6,25 55.7,25 55.7,24.9 55.8,24.8 55.9,24.7 56.1,24.7 56.2,24.6 56.4,24.6 56.5,24.5 56.7,24.5 
			56.7,24.5 56.8,24.5 56.8,24.5 56.9,24.5 56.9,24.5 57.1,23.3 57.1,23.3 56.9,23.3 56.8,23.3 56.7,23.3 56.6,23.4 56.5,23.4 
			56.4,23.5 56.3,23.5 56.2,23.6 56.1,23.6 56,23.7 55.9,23.8 55.8,23.9 55.8,23.9 55.7,24 55.6,24.1 55.6,24.2 55.7,23.3 
			54.3,23.3 53.4,28.5 53.4,28.5 		"/>
		<polygon class="st3" points="40.6,28.5 41.9,28.5 42,28.5 42.4,25.8 42.5,25.7 42.5,25.6 42.5,25.5 42.5,25.4 42.6,25.3 
			42.6,25.2 42.7,25.1 42.7,25 42.8,24.9 42.9,24.9 43,24.8 43.1,24.8 43.3,24.7 43.4,24.7 43.6,24.7 43.8,24.6 43.8,24.6 
			43.8,24.6 43.8,24.6 43.9,24.6 43.9,24.7 43.9,24.7 43.9,24.7 43.9,24.7 43.9,24.6 43.9,24.6 44,24.5 44,24.4 44,24.3 44.1,24.1 
			44.1,24 44.1,23.9 44.2,23.8 44.2,23.7 44.3,23.6 44.3,23.5 44.4,23.4 44.4,23.4 44.4,23.3 44.4,23.3 44.4,23.3 44.4,23.3 
			44.4,23.3 44.4,23.3 44.3,23.3 44.3,23.3 44.2,23.3 44.2,23.3 44.1,23.3 43.9,23.3 43.8,23.3 43.7,23.4 43.6,23.4 43.5,23.5 
			43.4,23.5 43.3,23.6 43.2,23.6 43.1,23.7 43.1,23.8 43,23.9 42.9,23.9 42.8,24 42.8,24.1 42.7,24.2 42.9,23.3 41.5,23.3 
			40.6,28.5 40.6,28.5 40.6,28.5 		"/>
		<polyline class="st4" points="40.6,28.5 41.9,28.5 42,28.5 42.4,25.8 42.4,25.8 42.5,25.7 42.5,25.6 42.5,25.5 42.5,25.4 
			42.6,25.3 42.6,25.2 42.7,25.1 42.7,25 42.8,24.9 42.9,24.9 43,24.8 43.1,24.8 43.3,24.7 43.4,24.7 43.6,24.7 43.8,24.6 
			43.8,24.6 43.8,24.6 43.8,24.6 43.8,24.6 43.9,24.6 43.9,24.7 43.9,24.7 43.9,24.7 43.9,24.7 43.9,24.7 43.9,24.6 43.9,24.6 
			44,24.5 44,24.4 44,24.3 44.1,24.1 44.1,24 44.1,23.9 44.1,23.9 44.2,23.8 44.2,23.7 44.3,23.6 44.3,23.5 44.4,23.4 44.4,23.4 
			44.4,23.3 44.4,23.3 44.4,23.3 44.4,23.3 44.4,23.3 44.4,23.3 44.4,23.3 44.3,23.3 44.3,23.3 44.2,23.3 44.2,23.3 44.2,23.3 
			44.1,23.3 43.9,23.3 43.8,23.3 43.7,23.4 43.6,23.4 43.5,23.5 43.4,23.5 43.3,23.6 43.2,23.6 43.1,23.7 43.1,23.8 43,23.9 
			42.9,23.9 42.8,24 42.8,24.1 42.7,24.2 42.9,23.3 41.5,23.3 40.6,28.5 40.6,28.5 		"/>
		<polygon class="st1" points="61.9,33.7 61.9,33.6 61.9,33.5 62,33.4 62.1,33.3 62.2,33.2 62.3,33.2 62.4,33.1 62.6,33.1 
			62.7,33.1 62.8,33.2 63,33.2 63.1,33.3 63.1,33.4 63.2,33.5 63.2,33.6 63.2,33.7 63.1,33.7 63.1,33.6 63,33.5 63,33.4 62.9,33.3 
			62.8,33.3 62.7,33.2 62.6,33.2 62.5,33.2 62.4,33.3 62.3,33.3 62.2,33.4 62.1,33.5 62.1,33.6 62,33.7 61.9,33.7 61.9,33.7 		"/>
		<polygon class="st1" points="62.3,33.7 62.3,33.5 62.6,33.5 62.7,33.5 62.7,33.5 62.7,33.5 62.8,33.5 62.8,33.5 62.8,33.6 
			62.8,33.6 62.8,33.7 62.7,33.7 62.7,33.6 62.7,33.6 62.7,33.6 62.7,33.6 62.7,33.6 62.7,33.6 62.6,33.6 62.6,33.6 62.6,33.6 
			62.5,33.6 62.5,33.7 62.3,33.7 62.3,33.7 		"/>
		<polygon class="st1" points="61.9,33.8 61.9,33.7 62,33.7 62,33.7 62,33.8 61.9,33.8 61.9,33.8 		"/>
		<polygon class="st1" points="62.3,33.8 62.3,33.7 62.5,33.7 62.5,33.7 62.6,33.7 62.6,33.7 62.6,33.7 62.7,33.7 62.7,33.7 
			62.7,33.7 62.7,33.7 62.7,33.7 62.7,33.7 62.8,33.7 62.8,33.7 62.8,33.7 62.8,33.7 62.8,33.7 62.8,33.8 62.3,33.8 62.3,33.8 		"/>
		<polygon class="st1" points="63.1,33.8 63.1,33.7 63.1,33.7 63.2,33.7 63.3,33.8 63.1,33.8 63.1,33.8 		"/>
		<polygon class="st1" points="61.9,33.8 61.9,33.8 61.9,33.9 61.9,34 62,34.2 62.1,34.3 62.2,34.3 62.3,34.4 62.4,34.4 62.6,34.5 
			62.7,34.4 62.8,34.4 63,34.3 63.1,34.3 63.1,34.2 63.2,34 63.2,33.9 63.3,33.8 63.3,33.8 63.1,33.8 63.1,33.8 63.1,33.9 63.1,34 
			63,34.1 63,34.2 62.9,34.2 62.8,34.3 62.7,34.3 62.6,34.3 62.5,34.3 62.4,34.3 62.3,34.2 62.2,34.2 62.1,34.1 62.1,34 62,33.9 
			62,33.8 62,33.8 61.9,33.8 61.9,33.8 		"/>
		<polygon class="st1" points="62.3,33.8 62.3,34 62.5,34 62.5,33.8 62.6,33.8 62.7,34 62.8,34 62.7,33.8 62.7,33.8 62.7,33.8 
			62.8,33.8 62.8,33.8 62.8,33.8 62.3,33.8 62.3,33.8 		"/>
		<path class="st3" d="M40.7,24.9l0-0.3l-0.1-0.3l-0.1-0.2l-0.1-0.2l-0.1-0.2l-0.2-0.1l-0.2-0.1l-0.2-0.1l-0.2-0.1l-0.2,0l-0.2,0
			l-0.2,0l-0.2,0l-0.4,0L38,23.3l-0.3,0.1l-0.3,0.1l-0.2,0.1L37,23.8L36.8,24l-0.2,0.2l-0.1,0.2l-0.1,0.2l-0.1,0.2l-0.1,0.2
			l-0.1,0.2l0,0.2l0,0.2l0,0.2l0,0.4l0,0.4l0.1,0.3l0.1,0.3l0.1,0.3l0.1,0.2l0.2,0.2l0.2,0.2l0.2,0.1l0.2,0.1l0.2,0.1l0.2,0.1
			l0.2,0.1l0.2,0l0.2,0l0.2,0h0.2l0.1,0h0.1l0.1,0l0.1,0l0.1,0l0.1,0l0.1,0l0.1,0l0.1,0l0.1,0l0.1,0l0.1,0l0.1,0l0.1,0l0.1,0
			l0.2-1.2l-0.1,0.1l-0.1,0.1L40,27.3l-0.1,0.1l-0.1,0l-0.1,0l-0.1,0l-0.1,0l-0.1,0l-0.1,0H39l-0.1,0l-0.1,0l-0.1,0l-0.1,0l-0.1,0
			l-0.1,0l-0.1,0l-0.1,0L38,27.3l-0.1-0.1l-0.1-0.1l-0.1-0.1L37.6,27l-0.1-0.1l-0.1-0.1l0-0.1l0-0.1l0-0.1l0-0.1l0-0.1l0-0.1h3.1
			l0-0.3l0.1-0.4l0-0.4L40.7,24.9z M39.4,25.3h-1.8l0,0l0,0l0-0.1l0-0.1l0-0.1l0-0.1l0-0.1l0-0.1l0.1-0.1l0.1-0.1l0.1-0.1l0.1-0.1
			l0.1-0.1l0.1,0l0.1,0l0.1,0l0.1,0l0.1,0l0.1,0l0.1,0l0.1,0l0.1,0l0.1,0l0.1,0l0.1,0l0.1,0l0.1,0.1l0,0.1l0,0.1l0,0.1l0,0.1l0,0.1
			l0,0.1l0,0.1L39.4,25.3z"/>
	</g>
</g>
</svg>
