<?xml version="1.0" encoding="utf-8"?>
<!-- Generator: Adobe Illustrator 24.0.1, SVG Export Plug-In . SVG Version: 6.00 Build 0)  -->
<svg version="1.1" id="Capa_1" xmlns="http://www.w3.org/2000/svg" xmlns:xlink="http://www.w3.org/1999/xlink" x="0px" y="0px"
	 viewBox="0 0 35 50" style="enable-background:new 0 0 35 50;" xml:space="preserve">
<style type="text/css">
	.st0{fill:#333333;}
</style>
<g>
	<path class="st0" d="M28,21.4c-0.6,0-1.1-0.5-1.1-1.1v-8.7c0-5.1-4.1-9.2-9.2-9.2s-9.2,4.1-9.2,9.2v8.7c0,0.6-0.5,1.1-1.1,1.1
		c-0.6,0-1.1-0.5-1.1-1.1v-8.7C6.2,5.2,11.3,0,17.6,0c6.3,0,11.4,5.1,11.4,11.4v8.7C28.9,21,28.5,21.4,28,21.4z"/>
	<path class="st0" d="M3.8,50c-1.9,0-3.6-1.8-3.6-3.9V26.7c0-2.1,1.6-3.9,3.6-3.9h27.4c1.9,0,3.6,1.8,3.6,3.9v19.4
		c0.1,0.9-0.3,2.1-1,2.8c-0.7,0.7-1.6,1.1-2.5,1.1H3.8z M3.8,25.1c-0.7,0-1.2,0.7-1.2,1.5v19.4c0,0.8,0.6,1.5,1.2,1.5h27.4
		c0.7,0,1.2-0.7,1.2-1.5V26.7c0-0.8-0.6-1.5-1.2-1.5H3.8z"/>
	<path class="st0" d="M17.6,42.9c-1.4,0-2.6-1.2-2.6-2.6v-3.9c-0.8-0.7-1.2-1.6-1.2-2.8c0-2.1,1.7-3.8,3.8-3.8s3.8,1.7,3.8,3.8
		c0,1.2-0.4,2.1-1.2,2.8v3.9C20.1,41.9,19.1,42.9,17.6,42.9z M17.6,32.2c-0.7,0-1.4,0.7-1.4,1.4c0,0.5,0.3,0.9,0.7,1.2
		c0.2,0.2,0.5,0.5,0.5,1v4.6c0,0.1,0.1,0.2,0.2,0.2c0.2,0,0.2,0,0.2-0.2v-4.6c0-0.5,0.3-0.8,0.4-0.9c0.5-0.3,0.8-0.8,0.8-1.3
		C19.1,32.8,18.5,32.2,17.6,32.2z"/>
</g>
</svg>
