<?xml version="1.0" encoding="utf-8"?>
<!-- Generator: Adobe Illustrator 24.0.1, SVG Export Plug-In . SVG Version: 6.00 Build 0)  -->
<svg version="1.1" id="Capa_1" xmlns="http://www.w3.org/2000/svg" xmlns:xlink="http://www.w3.org/1999/xlink" x="0px" y="0px"
	 viewBox="0 0 49 50" style="enable-background:new 0 0 49 50;" xml:space="preserve">
<style type="text/css">
	.st0{fill:#333333;}
</style>
<g>
	<path class="st0" d="M42.8,17.2c-0.5-0.4-1.2-1-1.3-1.3c-0.1-0.3,0.2-1.2,0.5-1.9c0.5-1.2,1-2.6,0.3-3.8c-0.7-1.2-2.2-1.5-3.5-1.7
		c-0.6-0.1-1.6-0.3-1.8-0.5c-0.2-0.2-0.4-1.2-0.5-1.8c-0.2-1.3-0.5-2.8-1.7-3.5c-1.2-0.7-2.6-0.2-3.8,0.3c-0.6,0.2-1.5,0.6-1.9,0.5
		c-0.3-0.1-0.9-0.8-1.3-1.3c-0.9-1-1.8-2.2-3.2-2.2s-2.4,1.2-3.2,2.2c-0.4,0.5-1,1.2-1.3,1.3c-0.3,0.1-1.2-0.2-1.9-0.5
		c-1.2-0.5-2.6-1-3.8-0.3c-1.2,0.7-1.5,2.2-1.7,3.5c-0.1,0.6-0.3,1.6-0.5,1.8c-0.2,0.2-1.2,0.4-1.8,0.5C8.9,8.8,7.5,9,6.8,10.2
		c-0.7,1.2-0.2,2.6,0.3,3.8c0.2,0.6,0.6,1.5,0.5,1.9c-0.1,0.3-0.8,0.9-1.3,1.3c-1,0.9-2.2,1.8-2.2,3.2c0,1.4,1.2,2.4,2.2,3.2
		c0.5,0.4,1.2,1,1.3,1.3c0.1,0.3-0.2,1.2-0.5,1.9c-0.5,1.2-1,2.6-0.3,3.8c0.7,1.2,2.2,1.5,3.5,1.7c0.6,0.1,1.6,0.3,1.8,0.5
		c0.2,0.2,0.4,1.2,0.5,1.8c0.2,1.3,0.5,2.8,1.7,3.5c1.2,0.7,2.6,0.2,3.8-0.3c0.6-0.2,1.5-0.6,1.9-0.5c0.3,0.1,0.9,0.8,1.3,1.3
		c0.9,1,1.8,2.2,3.2,2.2s2.4-1.2,3.2-2.2c0.4-0.5,1-1.2,1.3-1.3c0.3-0.1,1.2,0.2,1.9,0.5c1.2,0.5,2.6,1,3.8,0.3
		c1.2-0.7,1.5-2.2,1.7-3.5c0.1-0.6,0.3-1.6,0.5-1.8c0.2-0.2,1.2-0.4,1.8-0.5c1.3-0.2,2.8-0.5,3.5-1.7c0.7-1.2,0.2-2.6-0.3-3.8
		c-0.2-0.6-0.6-1.5-0.5-1.9c0.1-0.3,0.8-0.9,1.3-1.3c1-0.9,2.2-1.8,2.2-3.2C45,19.1,43.8,18.1,42.8,17.2z M41.3,21.9
		c-0.9,0.7-1.8,1.5-2.1,2.5c-0.3,1.1,0.1,2.2,0.5,3.3c0.2,0.5,0.6,1.6,0.5,1.8c-0.1,0.2-1.3,0.4-1.8,0.5c-1.1,0.2-2.3,0.4-3.1,1.2
		c-0.8,0.8-1,2-1.2,3.1c-0.1,0.5-0.3,1.7-0.5,1.8c0,0-0.1,0.1-0.5,0c-0.4-0.1-0.8-0.3-1.3-0.4c-1.1-0.4-2.2-0.8-3.3-0.5
		c-1,0.3-1.8,1.2-2.5,2.1c-0.4,0.4-1.1,1.4-1.4,1.4s-1.1-0.9-1.4-1.4c-0.7-0.9-1.5-1.8-2.5-2.1c-0.2-0.1-0.5-0.1-0.7-0.1
		c-0.8,0-1.7,0.3-2.5,0.6c-0.5,0.2-1.6,0.6-1.8,0.5c-0.2-0.1-0.4-1.3-0.5-1.8c-0.2-1.1-0.4-2.3-1.2-3.1c-0.8-0.8-2-1-3.1-1.2
		c-0.5-0.1-1.7-0.3-1.8-0.5c0,0-0.1-0.1,0-0.5c0.1-0.4,0.3-0.8,0.4-1.3c0.4-1.1,0.8-2.2,0.5-3.3c-0.3-1-1.2-1.8-2.1-2.5
		c-0.4-0.4-1.4-1.1-1.4-1.4c0-0.3,0.9-1.1,1.4-1.4c0.9-0.7,1.8-1.5,2.1-2.5c0.3-1.1-0.1-2.2-0.5-3.3c-0.2-0.5-0.6-1.6-0.5-1.8
		c0.1-0.2,1.3-0.4,1.8-0.5c1.1-0.2,2.3-0.4,3.1-1.2c0.8-0.8,1-2,1.2-3.1c0.1-0.5,0.3-1.7,0.5-1.8c0,0,0.1-0.1,0.5,0
		c0.4,0.1,0.8,0.3,1.3,0.4c1.1,0.4,2.2,0.8,3.3,0.5c1-0.3,1.8-1.2,2.5-2.1c0.4-0.4,1.1-1.4,1.4-1.4s1.1,0.9,1.4,1.4
		c0.7,0.9,1.5,1.8,2.5,2.1c1.1,0.3,2.2-0.1,3.3-0.5c0.5-0.2,1.6-0.6,1.8-0.5c0.2,0.1,0.4,1.3,0.5,1.8c0.2,1.1,0.4,2.3,1.2,3.1
		c0.8,0.8,2,1,3.1,1.2c0.5,0.1,1.7,0.3,1.8,0.5c0,0,0.1,0.1,0,0.5c-0.1,0.4-0.3,0.8-0.4,1.3c-0.4,1.1-0.8,2.2-0.5,3.3
		c0.3,1,1.2,1.8,2.1,2.5c0.4,0.4,1.4,1.1,1.4,1.4C42.6,20.8,41.7,21.5,41.3,21.9z"/>
	<path class="st0" d="M32.3,13.2c-0.7-0.5-1.5-0.7-2.3-0.6c-0.8,0.1-1.6,0.6-2.1,1.2L23,20.4l-2.2-2.2c-1.2-1.2-3.2-1.2-4.5,0
		c-1.2,1.2-1.2,3.2,0,4.5l4.7,4.7c0.6,0.6,1.4,0.9,2.2,0.9c0.1,0,0.1,0,0.2,0c0.9-0.1,1.7-0.5,2.3-1.3l7.1-9.5
		c0.5-0.7,0.7-1.5,0.6-2.3C33.4,14.5,33,13.7,32.3,13.2z M31,16.2l-7.1,9.5c-0.1,0.2-0.3,0.3-0.6,0.3c-0.2,0-0.5-0.1-0.6-0.2L18,21
		c-0.3-0.3-0.3-0.8,0-1.1c0.2-0.2,0.4-0.2,0.6-0.2c0.2,0,0.4,0.1,0.6,0.2l3.1,3.1c0.2,0.2,0.6,0.4,0.9,0.3c0.3,0,0.7-0.2,0.9-0.5
		l5.7-7.6c0.1-0.2,0.3-0.3,0.5-0.3c0.2,0,0.4,0,0.6,0.1c0.2,0.1,0.3,0.3,0.3,0.5C31.2,15.9,31.2,16.1,31,16.2z"/>
</g>
<g>
	<path class="st0" d="M0.4,41.5C0.1,42,0.3,42.7,0.8,43c0.2,0.1,0.5,0.2,0.7,0.1l8.4-1l4.2,7.3c0.2,0.4,0.6,0.6,1,0.6h0
		c0.4,0,0.8-0.2,1-0.6l4.2-8.2c0.3-0.6,0.1-1.2-0.5-1.5c-0.6-0.3-1.2-0.1-1.5,0.5L15,46.5l-3.5-6.1c-0.2-0.4-0.7-0.6-1.1-0.6
		l-6.8,0.9l5.6-9.8l-1.7-1.7L0.4,41.5z"/>
	<path class="st0" d="M48.6,41.5c0.3,0.5,0.1,1.2-0.4,1.6c-0.2,0.1-0.5,0.2-0.7,0.1l-8.4-1l-4.2,7.3c-0.2,0.4-0.6,0.6-1,0.6h0
		c-0.4,0-0.8-0.2-1-0.6l-5.7-11.2c-0.3-0.6-0.1-1.2,0.5-1.5c0.6-0.3,1.2-0.1,1.5,0.5l4.8,9.3l3.5-6.1c0.2-0.4,0.7-0.6,1.1-0.6
		l6.8,0.9l-5.7-9.8l1.6-1.8L48.6,41.5z"/>
</g>
</svg>
